<svg id="_Layer_" data-name="&lt;Layer&gt;" xmlns="http://www.w3.org/2000/svg" viewBox="0 0 168.4 113.91"><defs><style>.cls-1{fill:#3c3;}.cls-1,.cls-2,.cls-3,.cls-4{stroke:#300;stroke-width:0.25px;}.cls-1,.cls-2{opacity:0.15;}.cls-2,.cls-6{fill:#069;}.cls-3{fill:#ccc;opacity:0.2;}.cls-4{fill:none;}.cls-5{fill:#090;}.cls-7{fill:#08850b;}</style></defs><rect class="cls-1" x="31.8" y="11.47" width="136.48" height="19.76" rx="8.39"/><rect class="cls-2" x="0.16" y="43.09" width="19.22" height="58.7" rx="9.61"/><rect class="cls-3" x="32.66" y="43.46" width="135.45" height="58.81" rx="12"/><rect class="cls-4" x="32.8" y="43.42" width="135.45" height="58.81" rx="12"/><rect class="cls-4" x="31.77" y="11.46" width="136.48" height="19.76" rx="8.39"/><rect class="cls-4" x="0.13" y="43.16" width="19.22" height="58.7" rx="9.61"/><path class="cls-5" d="M53.94,56.57v7.12c0,.3.08.49.24.58a2.47,2.47,0,0,0,.91.14v.17H51.78V64.4a1.94,1.94,0,0,0,.92-.19.82.82,0,0,0,.22-.69V58.1a1.16,1.16,0,0,0-.07-.43.31.31,0,0,0-.31-.15,1.17,1.17,0,0,0-.39.09l-.46.17v-.16l2.15-1.1h.07A.09.09,0,0,1,53.94,56.57Z" transform="translate(0 -1.9)"/><path d="M57.81,65.55a2.62,2.62,0,0,1-.92.74l-.11-.24a2,2,0,0,0,.78-.68,1.33,1.33,0,0,0,.21-.62s0-.09-.05-.1a.2.2,0,0,0-.11,0l-.39,0a.67.67,0,0,1-.45-.16.54.54,0,0,1-.21-.46.77.77,0,0,1,.17-.46.65.65,0,0,1,.56-.22.91.91,0,0,1,.66.29,1.09,1.09,0,0,1,.29.8A1.65,1.65,0,0,1,57.81,65.55Z" transform="translate(0 -1.9)"/><path class="cls-6" d="M59.76,63.85a.55.55,0,0,1,.29-.09.34.34,0,0,1,.14,0,.47.47,0,0,1,.15.06l.21.11.08,0h.08a.32.32,0,0,0,.23-.08c.05-.05.19-.22.41-.51s.47-.66,1-1.4c0,0,0-.24-.13-.63s-.18-.73-.25-1a2,2,0,0,0-.2-.55.37.37,0,0,0-.33-.13,1.73,1.73,0,0,0-.32.06l-.33.08-.05-.18.65-.22a3.48,3.48,0,0,1,.47-.14,1.34,1.34,0,0,1,.36-.06.44.44,0,0,1,.37.15,2.25,2.25,0,0,1,.32.93L63,61a9.44,9.44,0,0,1,.82-1.13,2.47,2.47,0,0,1,.5-.45.88.88,0,0,1,.77-.09.48.48,0,0,1,.11.71.38.38,0,0,1-.29.11H64.8l-.13,0L64.52,60l-.12,0-.09,0c-.18,0-.42.23-.73.68a3.54,3.54,0,0,0-.47.79,5.08,5.08,0,0,0,.11.57c.07.33.15.67.24,1a4.69,4.69,0,0,0,.19.7c.09.21.2.31.31.31a.44.44,0,0,0,.32-.17c.11-.12.27-.33.49-.63l.17.1a5.56,5.56,0,0,1-.52.78,1.38,1.38,0,0,1-1,.6.51.51,0,0,1-.46-.28,1.91,1.91,0,0,1-.19-.54l-.37-1.44L61.22,64a3.09,3.09,0,0,1-.54.55.73.73,0,0,1-.47.14.53.53,0,0,1-.51-.23.55.55,0,0,1-.08-.29A.38.38,0,0,1,59.76,63.85Z" transform="translate(0 -1.9)"/><path d="M50.11,54.11a7.16,7.16,0,0,0-1.42,2.72A16.36,16.36,0,0,0,48.27,61a16.25,16.25,0,0,0,.42,4.14,7.11,7.11,0,0,0,1.42,2.71l-.24.33a7.9,7.9,0,0,1-1.94-3.09,12.33,12.33,0,0,1,0-8.19,8.13,8.13,0,0,1,1.94-3.09Z" transform="translate(0 -1.9)"/><path d="M66.71,54.11l.23-.33a8.13,8.13,0,0,1,1.94,3.09,12.16,12.16,0,0,1,0,8.19,8.13,8.13,0,0,1-1.94,3.09l-.23-.33a7,7,0,0,0,1.42-2.69A16.42,16.42,0,0,0,68.55,61a16.42,16.42,0,0,0-.42-4.16A7.07,7.07,0,0,0,66.71,54.11Z" transform="translate(0 -1.9)"/><path class="cls-5" d="M92.68,64.44a36.3,36.3,0,0,0,2.91-3.27,3.44,3.44,0,0,0,.77-2,1.76,1.76,0,0,0-.47-1.32,1.56,1.56,0,0,0-1.12-.45,1.63,1.63,0,0,0-1.3.58,3.69,3.69,0,0,0-.53,1l-.25,0a3.11,3.11,0,0,1,1-1.87,2.47,2.47,0,0,1,1.51-.52,2.12,2.12,0,0,1,1.6.62,2.07,2.07,0,0,1,.61,1.52,3.06,3.06,0,0,1-.66,1.85,38.13,38.13,0,0,1-2.88,3.17h2.69a1.65,1.65,0,0,0,.79-.13,1.67,1.67,0,0,0,.52-.66l.15.07-.65,1.64H92.68Z" transform="translate(0 -1.9)"/><path d="M100.77,65.55a2.62,2.62,0,0,1-.92.74l-.11-.24a2,2,0,0,0,.78-.68,1.33,1.33,0,0,0,.21-.62.1.1,0,0,0,0-.1.23.23,0,0,0-.11,0l-.4,0a.71.71,0,0,1-.45-.16.56.56,0,0,1-.2-.46.77.77,0,0,1,.17-.46.65.65,0,0,1,.56-.22.91.91,0,0,1,.66.29,1.09,1.09,0,0,1,.29.8A1.65,1.65,0,0,1,100.77,65.55Z" transform="translate(0 -1.9)"/><path class="cls-6" d="M102.72,63.85a.55.55,0,0,1,.29-.09.34.34,0,0,1,.14,0,.47.47,0,0,1,.15.06l.21.11.08,0h.08a.34.34,0,0,0,.23-.08,5.61,5.61,0,0,0,.4-.51c.15-.19.48-.66,1-1.4,0,0-.05-.24-.14-.63s-.17-.73-.24-1a2.34,2.34,0,0,0-.2-.55.37.37,0,0,0-.33-.13,1.73,1.73,0,0,0-.32.06l-.33.08,0-.18.65-.22a3.85,3.85,0,0,1,.46-.14,1.48,1.48,0,0,1,.37-.06.45.45,0,0,1,.37.15,2.27,2.27,0,0,1,.31.93L106,61a9.44,9.44,0,0,1,.82-1.13,2.23,2.23,0,0,1,.5-.45.78.78,0,0,1,.44-.14.74.74,0,0,1,.32.05.41.41,0,0,1,.23.4.42.42,0,0,1-.11.31.38.38,0,0,1-.29.11h-.12l-.13,0-.15-.07-.12,0-.09,0c-.18,0-.42.23-.73.68a3.13,3.13,0,0,0-.47.79,3.37,3.37,0,0,0,.11.57c.07.33.15.67.23,1a5.84,5.84,0,0,0,.2.7c.09.21.19.31.31.31a.44.44,0,0,0,.32-.17c.11-.12.27-.33.49-.63l.17.1a5.57,5.57,0,0,1-.53.78,1.37,1.37,0,0,1-1,.6.51.51,0,0,1-.46-.28,1.91,1.91,0,0,1-.19-.54l-.37-1.44L104.18,64a3.09,3.09,0,0,1-.54.55.75.75,0,0,1-.47.14.53.53,0,0,1-.51-.23.55.55,0,0,1-.08-.29A.38.38,0,0,1,102.72,63.85Z" transform="translate(0 -1.9)"/><path d="M91.07,54.11a7.16,7.16,0,0,0-1.42,2.72A16.36,16.36,0,0,0,89.23,61a16.25,16.25,0,0,0,.42,4.14,7.11,7.11,0,0,0,1.42,2.71l-.24.33a8,8,0,0,1-2-3.09,11.87,11.87,0,0,1-.7-4.09,11.74,11.74,0,0,1,.71-4.1,8,8,0,0,1,1.94-3.09Z" transform="translate(0 -1.9)"/><path d="M109.67,54.11l.22-.33a8,8,0,0,1,2,3.09,12.16,12.16,0,0,1,0,8.19,8,8,0,0,1-2,3.09l-.22-.33a6.88,6.88,0,0,0,1.41-2.69,16.35,16.35,0,0,0,.43-4.16,16.35,16.35,0,0,0-.43-4.16A6.92,6.92,0,0,0,109.67,54.11Z" transform="translate(0 -1.9)"/><path class="cls-5" d="M137.37,63.89a1.72,1.72,0,0,0,.9.34,1.41,1.41,0,0,0,1.22-.55,2.08,2.08,0,0,0,.39-1.21,1.85,1.85,0,0,0-.32-1.1,2,2,0,0,0-1.84-.81h-.14l-.17,0v-.15a5.2,5.2,0,0,0,1.48-.78,1.43,1.43,0,0,0,.54-1.16,1.16,1.16,0,0,0-.43-1,1.49,1.49,0,0,0-1-.34,1.59,1.59,0,0,0-1.14.48,3.93,3.93,0,0,0-.58.79l-.18,0A2.68,2.68,0,0,1,137,57a2.19,2.19,0,0,1,1.47-.54,1.88,1.88,0,0,1,1.39.5,1.56,1.56,0,0,1,.49,1.13,1.6,1.6,0,0,1-.41,1.05,3.6,3.6,0,0,1-.71.6,3.15,3.15,0,0,1,.91.56,2.1,2.1,0,0,1,.64,1.56,2.66,2.66,0,0,1-.88,2,3.42,3.42,0,0,1-2.49.85,1.79,1.79,0,0,1-1-.21.57.57,0,0,1-.29-.46.52.52,0,0,1,.09-.29.35.35,0,0,1,.32-.14A1.81,1.81,0,0,1,137.37,63.89Z" transform="translate(0 -1.9)"/><path d="M143.29,65.55a2.81,2.81,0,0,1-.92.74l-.12-.24a2,2,0,0,0,.78-.68,1.33,1.33,0,0,0,.21-.62s0-.09-.05-.1a.2.2,0,0,0-.11,0l-.39,0a.67.67,0,0,1-.45-.16A.54.54,0,0,1,142,64a.77.77,0,0,1,.17-.46.65.65,0,0,1,.56-.22.91.91,0,0,1,.66.29,1.05,1.05,0,0,1,.29.8A1.68,1.68,0,0,1,143.29,65.55Z" transform="translate(0 -1.9)"/><path class="cls-6" d="M145.23,63.85a.55.55,0,0,1,.29-.09.32.32,0,0,1,.14,0,.47.47,0,0,1,.15.06L146,64l.08,0h.08a.32.32,0,0,0,.23-.08c.05-.05.19-.22.41-.51s.47-.66,1-1.4c0,0,0-.24-.13-.63s-.18-.73-.25-1a2,2,0,0,0-.2-.55.37.37,0,0,0-.33-.13,1.73,1.73,0,0,0-.32.06l-.33.08-.05-.18.65-.22a3.48,3.48,0,0,1,.47-.14,1.34,1.34,0,0,1,.36-.06.44.44,0,0,1,.37.15,2.25,2.25,0,0,1,.32.93l.12.66a10.73,10.73,0,0,1,.82-1.13,2.47,2.47,0,0,1,.5-.45.81.81,0,0,1,.44-.14.79.79,0,0,1,.33.05.4.4,0,0,1,.22.4.42.42,0,0,1-.11.31.38.38,0,0,1-.29.11h-.12l-.13,0L150,60l-.12,0-.09,0c-.17,0-.42.23-.73.68a3.54,3.54,0,0,0-.47.79,5.08,5.08,0,0,0,.11.57c.07.33.15.67.24,1a3.52,3.52,0,0,0,.2.7c.09.21.19.31.3.31a.43.43,0,0,0,.32-.17,6.49,6.49,0,0,0,.49-.63l.17.1a5.56,5.56,0,0,1-.52.78,1.38,1.38,0,0,1-1,.6.51.51,0,0,1-.46-.28,1.91,1.91,0,0,1-.19-.54l-.37-1.44L146.69,64a3.09,3.09,0,0,1-.54.55.73.73,0,0,1-.47.14.53.53,0,0,1-.51-.23.55.55,0,0,1-.08-.29A.38.38,0,0,1,145.23,63.85Z" transform="translate(0 -1.9)"/><path d="M134.08,54.11a7,7,0,0,0-1.41,2.72,15.85,15.85,0,0,0-.43,4.14,15.74,15.74,0,0,0,.43,4.14,7,7,0,0,0,1.41,2.71l-.24.33a7.9,7.9,0,0,1-1.94-3.09,12.33,12.33,0,0,1,0-8.19,8.13,8.13,0,0,1,1.94-3.09Z" transform="translate(0 -1.9)"/><path d="M152.18,54.11l.23-.33a8.13,8.13,0,0,1,1.94,3.09,12.16,12.16,0,0,1,0,8.19,8.13,8.13,0,0,1-1.94,3.09l-.23-.33a7,7,0,0,0,1.42-2.69A16.42,16.42,0,0,0,154,61a16.42,16.42,0,0,0-.42-4.16A7.07,7.07,0,0,0,152.18,54.11Z" transform="translate(0 -1.9)"/><path class="cls-5" d="M54.07,82.6v7.12q0,.45.24.57a2.53,2.53,0,0,0,.9.15v.16H51.9v-.17a2,2,0,0,0,.93-.2c.14-.1.21-.33.21-.68V84.12a1,1,0,0,0-.07-.43.3.3,0,0,0-.3-.14,1.47,1.47,0,0,0-.4.08l-.45.18v-.16L54,82.55H54Z" transform="translate(0 -1.9)"/><path d="M57.94,91.58a2.56,2.56,0,0,1-.92.73l-.11-.23a2,2,0,0,0,.77-.69,1.23,1.23,0,0,0,.22-.61.12.12,0,0,0,0-.11l-.12,0-.39,0a.71.71,0,0,1-.45-.16.55.55,0,0,1-.2-.47.71.71,0,0,1,.17-.45.63.63,0,0,1,.55-.23.91.91,0,0,1,.66.29,1.09,1.09,0,0,1,.3.81A1.72,1.72,0,0,1,57.94,91.58Z" transform="translate(0 -1.9)"/><path class="cls-6" d="M59.89,92.22a.42.42,0,0,1,.34-.13.55.55,0,0,1,.26,0,1.38,1.38,0,0,1,.23.16l.08.06s.05,0,.08,0l.1,0c.19,0,.5-.25.92-.76a2.18,2.18,0,0,0,.64-1.1,8,8,0,0,0-.22-1.29c-.15-.64-.29-1.21-.43-1.71a5.77,5.77,0,0,0-.52-1.42.78.78,0,0,0-.7-.38h-.12l-.29,0v-.19l1.6-.31H62c.1,0,.29.43.56,1.32A15.16,15.16,0,0,1,63,88.35l.24,1.4c.41-.69.71-1.21.9-1.58a4.18,4.18,0,0,0,.56-1.52.69.69,0,0,0,0-.2.33.33,0,0,0-.17-.16l-.1-.06a1.19,1.19,0,0,1-.22-.17.5.5,0,0,1-.12-.35.44.44,0,0,1,.11-.3.45.45,0,0,1,.36-.13.64.64,0,0,1,.47.18.77.77,0,0,1,.18.58,5.46,5.46,0,0,1-.68,2,21.8,21.8,0,0,1-1.18,2A18.06,18.06,0,0,1,61.93,92c-.62.7-1.14,1.06-1.55,1.06a.64.64,0,0,1-.42-.15.5.5,0,0,1-.07-.72Z" transform="translate(0 -1.9)"/><path d="M50.23,80.13a7.07,7.07,0,0,0-1.41,2.72,20.19,20.19,0,0,0,0,8.29,7,7,0,0,0,1.41,2.71l-.24.32a8,8,0,0,1-1.94-3.08,12.33,12.33,0,0,1,0-8.19A8,8,0,0,1,50,79.81Z" transform="translate(0 -1.9)"/><path d="M66.58,80.13l.23-.32a7.88,7.88,0,0,1,2,3.09,12.16,12.16,0,0,1,0,8.19,7.91,7.91,0,0,1-2,3.08l-.23-.32A6.81,6.81,0,0,0,68,91.15,16.33,16.33,0,0,0,68.42,87,16.37,16.37,0,0,0,68,82.84,6.85,6.85,0,0,0,66.58,80.13Z" transform="translate(0 -1.9)"/><path class="cls-5" d="M92.8,90.47a40.26,40.26,0,0,0,2.92-3.27,3.42,3.42,0,0,0,.76-2A1.72,1.72,0,0,0,96,83.85a1.54,1.54,0,0,0-1.11-.45,1.65,1.65,0,0,0-1.31.58,3.71,3.71,0,0,0-.52,1l-.25,0a3,3,0,0,1,1-1.87,2.47,2.47,0,0,1,1.5-.53,2.12,2.12,0,0,1,1.6.63,2.07,2.07,0,0,1,.62,1.52,3,3,0,0,1-.67,1.85A41.2,41.2,0,0,1,94,89.69h2.69a1.66,1.66,0,0,0,.79-.14A1.71,1.71,0,0,0,98,88.9l.16.07-.65,1.63H92.8Z" transform="translate(0 -1.9)"/><path d="M100.9,91.58a2.56,2.56,0,0,1-.92.73l-.11-.23a2,2,0,0,0,.77-.69,1.23,1.23,0,0,0,.22-.61.11.11,0,0,0-.06-.11l-.11,0-.39,0a.71.71,0,0,1-.45-.16.55.55,0,0,1-.21-.47.77.77,0,0,1,.17-.45.67.67,0,0,1,.56-.23.91.91,0,0,1,.66.29,1.09,1.09,0,0,1,.3.81A1.72,1.72,0,0,1,100.9,91.58Z" transform="translate(0 -1.9)"/><path class="cls-6" d="M102.85,92.22a.41.41,0,0,1,.34-.13.51.51,0,0,1,.25,0,1.11,1.11,0,0,1,.24.16l.08.06a.12.12,0,0,0,.08,0l.1,0c.19,0,.5-.25.92-.76a2.26,2.26,0,0,0,.64-1.1,8,8,0,0,0-.22-1.29c-.15-.64-.29-1.21-.43-1.71a6.22,6.22,0,0,0-.52-1.42.79.79,0,0,0-.7-.38h-.12l-.29,0v-.19l1.6-.31h.12c.1,0,.28.43.56,1.32a15.16,15.16,0,0,1,.47,1.74l.23,1.4c.41-.69.71-1.21.91-1.58a4.18,4.18,0,0,0,.56-1.52.48.48,0,0,0,0-.2.28.28,0,0,0-.16-.16l-.1-.06a.93.93,0,0,1-.22-.17.5.5,0,0,1-.13-.35.41.41,0,0,1,.12-.3.45.45,0,0,1,.35-.13.65.65,0,0,1,.48.18.77.77,0,0,1,.18.58,5.34,5.34,0,0,1-.69,2,21.27,21.27,0,0,1-2.57,4c-.63.7-1.14,1.06-1.55,1.06a.68.68,0,0,1-.43-.15.49.49,0,0,1-.18-.4A.47.47,0,0,1,102.85,92.22Z" transform="translate(0 -1.9)"/><path d="M91.19,80.13a7.07,7.07,0,0,0-1.41,2.72A15.93,15.93,0,0,0,89.35,87a15.79,15.79,0,0,0,.43,4.14,7,7,0,0,0,1.41,2.71l-.24.32A7.9,7.9,0,0,1,89,91.09a12.33,12.33,0,0,1,0-8.19A8,8,0,0,1,91,79.81Z" transform="translate(0 -1.9)"/><path d="M109.54,80.13l.23-.32a7.88,7.88,0,0,1,2,3.09,12.33,12.33,0,0,1,0,8.19,7.91,7.91,0,0,1-2,3.08l-.23-.32a6.94,6.94,0,0,0,1.42-2.7,16.33,16.33,0,0,0,.42-4.15,16.37,16.37,0,0,0-.42-4.16A7,7,0,0,0,109.54,80.13Z" transform="translate(0 -1.9)"/><path class="cls-5" d="M137.49,89.92a1.78,1.78,0,0,0,.9.34,1.4,1.4,0,0,0,1.22-.56,2,2,0,0,0,.08-2.31,2.08,2.08,0,0,0-1.84-.8h-.15l-.16,0v-.16a5,5,0,0,0,1.47-.77,1.43,1.43,0,0,0,.54-1.16,1.19,1.19,0,0,0-.42-1,1.56,1.56,0,0,0-1-.33,1.62,1.62,0,0,0-1.14.47,3.68,3.68,0,0,0-.58.8l-.18,0a2.66,2.66,0,0,1,.87-1.42,2.23,2.23,0,0,1,1.48-.54A1.87,1.87,0,0,1,140,83a1.56,1.56,0,0,1,.49,1.14,1.54,1.54,0,0,1-.4,1,4,4,0,0,1-.71.61,2.89,2.89,0,0,1,.9.56,2.06,2.06,0,0,1,.64,1.56,2.64,2.64,0,0,1-.88,2,3.4,3.4,0,0,1-2.49.85,1.79,1.79,0,0,1-1-.21.62.62,0,0,1-.29-.46.51.51,0,0,1,.1-.3.36.36,0,0,1,.31-.14A1.77,1.77,0,0,1,137.49,89.92Z" transform="translate(0 -1.9)"/><path d="M143.41,91.58a2.48,2.48,0,0,1-.92.73l-.11-.23a2.07,2.07,0,0,0,.78-.69,1.3,1.3,0,0,0,.21-.61.12.12,0,0,0-.05-.11l-.11,0-.4,0a.71.71,0,0,1-.45-.16.55.55,0,0,1-.2-.47.71.71,0,0,1,.17-.45.65.65,0,0,1,.55-.23,1,1,0,0,1,.67.29,1.13,1.13,0,0,1,.29.81A1.66,1.66,0,0,1,143.41,91.58Z" transform="translate(0 -1.9)"/><path class="cls-6" d="M145.36,92.22a.42.42,0,0,1,.34-.13.55.55,0,0,1,.26,0,1.38,1.38,0,0,1,.23.16l.08.06s0,0,.08,0l.1,0c.19,0,.5-.25.92-.76a2.18,2.18,0,0,0,.64-1.1,8,8,0,0,0-.22-1.29c-.15-.64-.29-1.21-.43-1.71a5.77,5.77,0,0,0-.52-1.42.78.78,0,0,0-.7-.38H146l-.29,0v-.19l1.6-.31h.12c.1,0,.29.43.56,1.32a15.16,15.16,0,0,1,.47,1.74l.24,1.4c.41-.69.71-1.21.9-1.58a4.18,4.18,0,0,0,.56-1.52.69.69,0,0,0,0-.2.33.33,0,0,0-.17-.16l-.1-.06a1.19,1.19,0,0,1-.22-.17.5.5,0,0,1-.12-.35.44.44,0,0,1,.11-.3.45.45,0,0,1,.36-.13.64.64,0,0,1,.47.18.77.77,0,0,1,.18.58,5.46,5.46,0,0,1-.68,2,19.8,19.8,0,0,1-1.18,2A18.06,18.06,0,0,1,147.4,92c-.62.7-1.14,1.06-1.55,1.06a.64.64,0,0,1-.42-.15.5.5,0,0,1-.07-.72Z" transform="translate(0 -1.9)"/><path d="M134.21,80.13a7.09,7.09,0,0,0-1.42,2.72,16.44,16.44,0,0,0-.42,4.15,16.3,16.3,0,0,0,.42,4.14,7,7,0,0,0,1.42,2.71l-.24.32A7.91,7.91,0,0,1,132,91.09a11.91,11.91,0,0,1-.7-4.09,11.7,11.7,0,0,1,.71-4.1A7.75,7.75,0,0,1,134,79.81Z" transform="translate(0 -1.9)"/><path d="M152.05,80.13l.23-.32a7.88,7.88,0,0,1,1.95,3.09,12.16,12.16,0,0,1,0,8.19,7.91,7.91,0,0,1-1.95,3.08l-.23-.32a6.81,6.81,0,0,0,1.42-2.7,16.33,16.33,0,0,0,.42-4.15,16.37,16.37,0,0,0-.42-4.16A6.85,6.85,0,0,0,152.05,80.13Z" transform="translate(0 -1.9)"/><path class="cls-7" d="M59,19v7.13q0,.45.24.57a2.53,2.53,0,0,0,.9.15V27H56.82v-.18a1.9,1.9,0,0,0,.93-.19c.14-.1.21-.33.21-.68V20.56a1,1,0,0,0-.07-.43c0-.1-.15-.14-.3-.14a1.17,1.17,0,0,0-.4.08l-.45.18v-.16L58.89,19H59Z" transform="translate(0 -1.9)"/><path class="cls-7" d="M97.68,26.91a39.36,39.36,0,0,0,2.91-3.27,3.46,3.46,0,0,0,.77-2,1.76,1.76,0,0,0-.47-1.32,1.55,1.55,0,0,0-1.12-.46,1.62,1.62,0,0,0-1.3.59,3.18,3.18,0,0,0-.53,1l-.25-.05a3,3,0,0,1,1-1.88,2.53,2.53,0,0,1,1.5-.52,2.19,2.19,0,0,1,1.61.62,2.15,2.15,0,0,1,.61,1.53,3.06,3.06,0,0,1-.66,1.85,42.05,42.05,0,0,1-2.88,3.17h2.69a1.66,1.66,0,0,0,.79-.14,1.91,1.91,0,0,0,.52-.65l.15.07L102.36,27H97.68Z" transform="translate(0 -1.9)"/><path class="cls-7" d="M141.91,26.36a1.85,1.85,0,0,0,.9.33,1.39,1.39,0,0,0,1.22-.55,2,2,0,0,0,.4-1.21,2,2,0,0,0-.32-1.1,2.06,2.06,0,0,0-1.84-.8H142v-.15a4.8,4.8,0,0,0,1.47-.78A1.42,1.42,0,0,0,144,21a1.17,1.17,0,0,0-.42-1,1.56,1.56,0,0,0-1-.33,1.58,1.58,0,0,0-1.14.47,3.68,3.68,0,0,0-.58.8l-.18,0a2.69,2.69,0,0,1,.87-1.43,2.28,2.28,0,0,1,1.48-.53,1.83,1.83,0,0,1,1.38.49,1.56,1.56,0,0,1,.09,2.18,3.6,3.6,0,0,1-.71.6,2.9,2.9,0,0,1,.9.57,2.06,2.06,0,0,1,.64,1.56,2.64,2.64,0,0,1-.88,2,3.4,3.4,0,0,1-2.49.85,1.69,1.69,0,0,1-1-.22.59.59,0,0,1-.29-.46.48.48,0,0,1,.1-.29.36.36,0,0,1,.31-.14A1.67,1.67,0,0,1,141.91,26.36Z" transform="translate(0 -1.9)"/><path class="cls-6" d="M7.28,64a.53.53,0,0,1,.28-.1l.15,0,.15.07.2.11.08,0h.09a.31.31,0,0,0,.22-.07,5,5,0,0,0,.41-.51c.14-.19.47-.66,1-1.4,0,0,0-.24-.13-.63s-.17-.73-.25-1a2,2,0,0,0-.2-.55c0-.09-.16-.13-.32-.13a1.65,1.65,0,0,0-.33.06L8.29,60l-.06-.18.65-.23.47-.14a1.8,1.8,0,0,1,.37,0,.43.43,0,0,1,.36.15,2.19,2.19,0,0,1,.32.92l.12.67A13,13,0,0,1,11.34,60a3.08,3.08,0,0,1,.5-.44.86.86,0,0,1,.45-.15.73.73,0,0,1,.32.06.48.48,0,0,1,.11.71.4.4,0,0,1-.29.11h-.12l-.12-.05L12,60.2l-.13-.05-.09,0c-.17,0-.42.23-.73.68a3.54,3.54,0,0,0-.47.79,5.08,5.08,0,0,0,.11.57q.11.48.24,1a4.61,4.61,0,0,0,.2.71c.09.21.19.31.3.31A.48.48,0,0,0,11.8,64c.1-.12.27-.33.49-.64l.16.1a4.59,4.59,0,0,1-.52.78,1.35,1.35,0,0,1-1,.61.53.53,0,0,1-.47-.28,2.29,2.29,0,0,1-.19-.54l-.36-1.45L8.74,64.2a3.93,3.93,0,0,1-.55.55.71.71,0,0,1-.47.14.55.55,0,0,1-.51-.23.56.56,0,0,1-.07-.3A.34.34,0,0,1,7.28,64Z" transform="translate(0 -1.9)"/><path class="cls-6" d="M7.28,92.41a.44.44,0,0,1,.34-.14.53.53,0,0,1,.26.06,1.43,1.43,0,0,1,.24.16l.08.06.08,0,.09,0c.2,0,.5-.26.93-.76a2.26,2.26,0,0,0,.63-1.1,6.94,6.94,0,0,0-.22-1.29c-.14-.64-.29-1.21-.42-1.71a5.8,5.8,0,0,0-.53-1.43.78.78,0,0,0-.7-.37H7.94l-.29,0V85.8l1.6-.31h.13c.09,0,.28.42.56,1.31a15.12,15.12,0,0,1,.46,1.75l.24,1.4c.41-.69.71-1.22.9-1.58a4.13,4.13,0,0,0,.57-1.52.71.71,0,0,0,0-.2.36.36,0,0,0-.16-.17l-.1,0a.79.79,0,0,1-.22-.18.44.44,0,0,1-.13-.34.45.45,0,0,1,.12-.31.46.46,0,0,1,.35-.12.7.7,0,0,1,.48.17.8.8,0,0,1,.18.59,5.4,5.4,0,0,1-.69,2,19.06,19.06,0,0,1-1.18,2,18.06,18.06,0,0,1-1.4,1.92c-.62.7-1.13,1-1.54,1a.65.65,0,0,1-.43-.14.49.49,0,0,1-.18-.4A.5.5,0,0,1,7.28,92.41Z" transform="translate(0 -1.9)"/><path d="M96.49,9.72a1.17,1.17,0,0,0,.63-.37,11.78,11.78,0,0,0,.93-1.45l3.5-6h.26L103,8.7a1.76,1.76,0,0,0,.26.81,1,1,0,0,0,.65.21v.19h-3V9.72a2.26,2.26,0,0,0,.69-.13.46.46,0,0,0,.26-.46c0-.05,0-.12,0-.18a.72.72,0,0,0,0-.17l-.25-1.57H99l-.75,1.34a2.59,2.59,0,0,0-.14.29,1.54,1.54,0,0,0-.1.45.37.37,0,0,0,.16.33,1.3,1.3,0,0,0,.55.1v.19H96.49Zm5-2.94L101,3.67,99.26,6.78Z" transform="translate(0 -1.9)"/><path d="M6.26,41.29a1.13,1.13,0,0,0,.58-.15,1.33,1.33,0,0,0,.41-.73L8.72,35.1c0-.13.06-.24.08-.31a2,2,0,0,0,.06-.4.41.41,0,0,0-.2-.41,1.62,1.62,0,0,0-.73-.13v-.19H11a4.52,4.52,0,0,1,1.39.2,1.54,1.54,0,0,1,1,1.54,1.6,1.6,0,0,1-.82,1.43,4.35,4.35,0,0,1-1.25.45,3,3,0,0,1,.93.52,1.78,1.78,0,0,1,.55,1.38A2,2,0,0,1,12,40.82a3.81,3.81,0,0,1-2.39.67H6.26ZM11,40.48A2.19,2.19,0,0,0,11.54,39a1.25,1.25,0,0,0-.65-1.27,4.94,4.94,0,0,0-1.65-.2l-.76,2.72a1.42,1.42,0,0,0,0,.2.52.52,0,0,0,0,.17.41.41,0,0,0,.3.43,1.64,1.64,0,0,0,.53.07A2.2,2.2,0,0,0,11,40.48ZM9.88,37.13a3.37,3.37,0,0,0,1.45-.25,1.66,1.66,0,0,0,.89-1.63,1.13,1.13,0,0,0-.38-1,1.66,1.66,0,0,0-1-.27,1.27,1.27,0,0,0-.53.07.37.37,0,0,0-.19.26l-.78,2.78Z" transform="translate(0 -1.9)"/><path d="M87.12,115.62a1.18,1.18,0,0,0,.63-.37,14.39,14.39,0,0,0,.92-1.44l3.5-6h.27l1.15,6.79a1.85,1.85,0,0,0,.27.81,1,1,0,0,0,.65.21v.19h-3v-.19a2.42,2.42,0,0,0,.69-.13.45.45,0,0,0,.25-.45v-.19c0-.07,0-.12,0-.17l-.26-1.57H89.65l-.76,1.35a2.39,2.39,0,0,0-.13.28,1.27,1.27,0,0,0-.1.45.36.36,0,0,0,.15.33,1.36,1.36,0,0,0,.56.1v.19H87.12Zm5-2.94-.51-3.11-1.74,3.11Z" transform="translate(0 -1.9)"/><polygon points="102.77 107.62 103.21 108.07 100.57 110.72 103.21 113.37 102.77 113.82 100.11 111.15 97.47 113.82 97.02 113.37 99.66 110.72 97.02 108.07 97.47 107.62 100.11 110.29 102.77 107.62"/><path d="M106.08,115.62a1.17,1.17,0,0,0,.58-.15,1.33,1.33,0,0,0,.4-.73l1.47-5.31.09-.31a2,2,0,0,0,.06-.4.46.46,0,0,0-.2-.42,1.86,1.86,0,0,0-.73-.12V108h3.09a4.54,4.54,0,0,1,1.4.2,1.55,1.55,0,0,1,1,1.54,1.59,1.59,0,0,1-.83,1.43,4.24,4.24,0,0,1-1.25.45,2.82,2.82,0,0,1,.93.51,1.79,1.79,0,0,1,.56,1.39,2,2,0,0,1-.87,1.64,3.9,3.9,0,0,1-2.39.66h-3.32Zm4.72-.81a2.15,2.15,0,0,0,.55-1.49,1.25,1.25,0,0,0-.64-1.27,4.94,4.94,0,0,0-1.65-.2l-.76,2.72a1.33,1.33,0,0,0,0,.19,1.21,1.21,0,0,0,0,.18.42.42,0,0,0,.29.43,1.82,1.82,0,0,0,.54.06A2.18,2.18,0,0,0,110.8,114.81Zm-1.11-3.35a3.19,3.19,0,0,0,1.45-.26,1.64,1.64,0,0,0,.89-1.63,1.1,1.1,0,0,0-.38-.95,1.66,1.66,0,0,0-1-.28,1.23,1.23,0,0,0-.53.08.41.41,0,0,0-.19.26l-.77,2.78Z" transform="translate(0 -1.9)"/></svg>