<?xml version="1.0" encoding="UTF-8" standalone="no"?>
<svg width="640" xmlns="http://www.w3.org/2000/svg" height="820">
 <defs>
  <linearGradient id="linearGradient0" y2="100%" x2="50%" x1="50%">
   <stop stop-color="#ffb2b2" offset="0"/>
   <stop stop-color="#cc1414" offset="1"/>
  </linearGradient>
  <linearGradient id="linearGradient1" y2="100%" x2="50%" x1="50%">
   <stop stop-color="#ffffb2" offset="0"/>
   <stop stop-color="#cccc14" offset="1"/>
  </linearGradient>
  <linearGradient id="linearGradient4" y2="100%" x2="50%" x1="50%">
   <stop stop-color="#d9ffb2" offset="0"/>
   <stop stop-color="#70cc14" offset="1"/>
  </linearGradient>
 </defs>
 <g>
  <title>Layer 1</title>
  <g transform="matrix(1,0,0,1,180,20)">
   <g stroke="#c66" fill="url(#linearGradient0)">
    <path d="m20,0l80,0c26,0 26,40 0,40l-80,0c-26,0 -26,-40 0,-40z"/>
   </g>
   <rect stroke-opacity="0" fill-opacity="0" height="32.7" width="50.2" stroke="#fff" y="3.67" x="34.9" stroke-width="0" fill="#fff"/>
   <text font-size="13.3" text-anchor="middle" y="17.7" x="60" font-family="Arial" fill="rgb(0,0,0)">Memory</text>
   <text font-size="13.3" text-anchor="middle" y="33.033" x="60" font-family="Arial" fill="rgb(0,0,0)">request</text>
  </g>
  <g transform="matrix(1,0,0,1,180,100)">
   <polygon stroke="#cc6" points="60 0 120 30 60 60 0 30" fill="url(#linearGradient1)"/>
   <rect stroke-opacity="0" fill-opacity="0" height="32.7" width="51.7" stroke="#fff" y="13.7" x="34.2" stroke-width="0" fill="#fff"/>
   <text font-size="13.3" text-anchor="middle" y="27.7" x="60" font-family="Arial" fill="rgb(0,0,0)">Request</text>
   <text font-size="13.3" text-anchor="middle" y="43.033" x="60" font-family="Arial" fill="rgb(0,0,0)">type</text>
  </g>
  <g transform="matrix(1,0,0,1,20,160)">
   <polygon stroke="#cc6" points="60 0 120 30 60 60 0 30" fill="url(#linearGradient1)"/>
   <rect stroke-opacity="0" fill-opacity="0" height="17.3" width="65.8" stroke="#fff" y="21.3" x="27.1" stroke-width="0" fill="#fff"/>
   <text font-size="13.3" text-anchor="middle" y="35.366" x="60" font-family="Arial" fill="rgb(0,0,0)">Cache hit?</text>
  </g>
  <g transform="matrix(1,0,0,1,340,160)">
   <polygon stroke="#cc6" points="60 0 120 30 60 60 0 30" fill="url(#linearGradient1)"/>
   <rect stroke-opacity="0" fill-opacity="0" height="17.3" width="65.8" stroke="#fff" y="21.3" x="27.1" stroke-width="0" fill="#fff"/>
   <text font-size="13.3" text-anchor="middle" y="35.366" x="60" font-family="Arial" fill="rgb(0,0,0)">Cache hit?</text>
  </g>
  <g transform="matrix(1,0,0,1,480,410)">
   <rect height="60" width="120" stroke="#9c6" y="0" x="0" fill="url(#linearGradient4)"/>
   <rect stroke-opacity="0" fill-opacity="0" height="48" width="104" stroke="#fff" y="6" x="8" stroke-width="0" fill="#fff"/>
   <text font-size="13.3" text-anchor="middle" y="20.033" x="60" font-family="Arial" fill="rgb(0,0,0)">Write its previous</text>
   <text font-size="13.3" text-anchor="middle" y="35.366" x="60" font-family="Arial" fill="rgb(0,0,0)">data back to the</text>
   <text font-size="13.3" text-anchor="middle" y="50.7" x="60" font-family="Arial" fill="rgb(0,0,0)">lower memory</text>
  </g>
  <g transform="matrix(1,0,0,1,340,660)">
   <rect height="60" width="120" stroke="#9c6" y="0" x="0" fill="url(#linearGradient4)"/>
   <rect stroke-opacity="0" fill-opacity="0" height="32.7" width="93.2" stroke="#fff" y="13.7" x="13.4" stroke-width="0" fill="#fff"/>
   <text font-size="13.3" text-anchor="middle" y="27.7" x="60" font-family="Arial" fill="rgb(0,0,0)">Mark the cache</text>
   <text font-size="13.3" text-anchor="middle" y="43.033" x="60" font-family="Arial" fill="rgb(0,0,0)">block as 'dirty'</text>
  </g>
  <g transform="matrix(1,0,0,1,20,460)">
   <rect height="60" width="120" stroke="#9c6" y="0" x="0" fill="url(#linearGradient4)"/>
   <rect stroke-opacity="0" fill-opacity="0" height="48" width="111" stroke="#fff" y="6" x="4.54" stroke-width="0" fill="#fff"/>
   <text font-size="13.3" text-anchor="middle" y="20.033" x="60" font-family="Arial" fill="rgb(0,0,0)">Read data from</text>
   <text font-size="13.3" text-anchor="middle" y="35.366" x="60" font-family="Arial" fill="rgb(0,0,0)">lower memory into</text>
   <text font-size="13.3" text-anchor="middle" y="50.7" x="60" font-family="Arial" fill="rgb(0,0,0)">the cache block</text>
  </g>
  <g transform="matrix(1,0,0,1,20,560)">
   <rect height="60" width="120" stroke="#9c6" y="0" x="0" fill="url(#linearGradient4)"/>
   <rect stroke-opacity="0" fill-opacity="0" height="32.7" width="107" stroke="#fff" y="13.7" x="6.43" stroke-width="0" fill="#fff"/>
   <text font-size="13.3" text-anchor="middle" y="27.7" x="60" font-family="Arial" fill="rgb(0,0,0)">Mark the cache</text>
   <text font-size="13.3" text-anchor="middle" y="43.033" x="60" font-family="Arial" fill="rgb(0,0,0)">block as 'not dirty'</text>
  </g>
  <g transform="matrix(1,0,0,1,20,660)">
   <rect height="60" width="120" stroke="#9c6" y="0" x="0" fill="url(#linearGradient4)"/>
   <rect stroke-opacity="0" fill-opacity="0" height="17.3" width="71.7" stroke="#fff" y="21.3" x="24.2" stroke-width="0" fill="#fff"/>
   <text font-size="13.3" text-anchor="middle" y="35.366" x="60" font-family="Arial" fill="rgb(0,0,0)">Return data</text>
  </g>
  <g transform="matrix(1,0,0,1,180,760)">
   <g stroke="#c66" fill="url(#linearGradient0)">
    <path d="m20,0l80,0c26,0 26,40 0,40l-80,0c-26,0 -26,-40 0,-40z"/>
   </g>
   <rect stroke-opacity="0" fill-opacity="0" height="17.3" width="33.9" stroke="#fff" y="11.3" x="43.1" stroke-width="0" fill="#fff"/>
   <text font-size="13.3" text-anchor="middle" y="25.366" x="60" font-family="Arial" fill="rgb(0,0,0)">Done</text>
  </g>
  <g transform="matrix(1,0,0,1,340,560)">
   <rect height="60" width="120" stroke="#9c6" y="0" x="0" fill="url(#linearGradient4)"/>
   <rect stroke-opacity="0" fill-opacity="0" height="48" width="113" stroke="#fff" y="6" x="3.54" stroke-width="0" fill="#fff"/>
   <text font-size="13.3" text-anchor="middle" y="20.033" x="60" font-family="Arial" fill="rgb(0,0,0)">Write the new</text>
   <text font-size="13.3" text-anchor="middle" y="35.366" x="60" font-family="Arial" fill="rgb(0,0,0)">data into the</text>
   <text font-size="13.3" text-anchor="middle" y="50.7" x="60" font-family="Arial" fill="rgb(0,0,0)">cache block</text>
  </g>
  <g transform="matrix(1,0,0,1,340,360)">
   <polygon stroke="#cc6" points="60 0 120 30 60 60 0 30" fill="url(#linearGradient1)"/>
   <rect stroke-opacity="0" fill-opacity="0" height="17.3" width="64.1" stroke="#fff" y="21.3" x="27.9" stroke-width="0" fill="#fff"/>
   <text font-size="13.3" text-anchor="middle" y="35.366" x="60" font-family="Arial" fill="rgb(0,0,0)">Is it 'dirty'?</text>
  </g>
  <g transform="matrix(1,0,0,1,20,360)">
   <polygon stroke="#cc6" points="60 0 120 30 60 60 0 30" fill="url(#linearGradient1)"/>
   <rect stroke-opacity="0" fill-opacity="0" height="17.3" width="64.1" stroke="#fff" y="21.3" x="27.9" stroke-width="0" fill="#fff"/>
   <text font-size="13.3" text-anchor="middle" y="35.366" x="60" font-family="Arial" fill="rgb(0,0,0)">Is it 'dirty'?</text>
  </g>
  <g transform="matrix(1,0,0,1,340,260)">
   <rect height="60" width="120" stroke="#9c6" y="0" x="0" fill="url(#linearGradient4)"/>
   <rect stroke-opacity="0" fill-opacity="0" height="32.7" width="92.4" stroke="#fff" y="13.7" x="13.8" stroke-width="0" fill="#fff"/>
   <text font-size="13.3" text-anchor="middle" y="27.7" x="60" font-family="Arial" fill="rgb(0,0,0)">Locate a cache</text>
   <text font-size="13.3" text-anchor="middle" y="43.033" x="60" font-family="Arial" fill="rgb(0,0,0)">block to use</text>
  </g>
  <g transform="matrix(1,0,0,1,20,260)">
   <rect height="60" width="120" stroke="#9c6" y="0" x="0" fill="url(#linearGradient4)"/>
   <rect stroke-opacity="0" fill-opacity="0" height="32.7" width="92.4" stroke="#fff" y="13.7" x="13.8" stroke-width="0" fill="#fff"/>
   <text font-size="13.3" text-anchor="middle" y="27.7" x="60" font-family="Arial" fill="rgb(0,0,0)">Locate a cache</text>
   <text font-size="13.3" text-anchor="middle" y="43.033" x="60" font-family="Arial" fill="rgb(0,0,0)">block to use</text>
  </g>
  <g transform="matrix(1,0,0,1,160,410)">
   <rect height="60" width="120" stroke="#9c6" y="0" x="0" fill="url(#linearGradient4)"/>
   <rect stroke-opacity="0" fill-opacity="0" height="48" width="104" stroke="#fff" y="6" x="8" stroke-width="0" fill="#fff"/>
   <text font-size="13.3" text-anchor="middle" y="20.033" x="60" font-family="Arial" fill="rgb(0,0,0)">Write its previous</text>
   <text font-size="13.3" text-anchor="middle" y="35.366" x="60" font-family="Arial" fill="rgb(0,0,0)">data back to the</text>
   <text font-size="13.3" text-anchor="middle" y="50.7" x="60" font-family="Arial" fill="rgb(0,0,0)">lower memory</text>
  </g>
  <g transform="matrix(1,0,0,1,340,460)">
   <rect height="60" width="120" stroke="#9c6" y="0" x="0" fill="url(#linearGradient4)"/>
   <rect stroke-opacity="0" fill-opacity="0" height="48" width="111" stroke="#fff" y="6" x="4.54" stroke-width="0" fill="#fff"/>
   <text font-size="13.3" text-anchor="middle" y="20.033" x="60" font-family="Arial" fill="rgb(0,0,0)">Read data from</text>
   <text font-size="13.3" text-anchor="middle" y="35.366" x="60" font-family="Arial" fill="rgb(0,0,0)">lower memory into</text>
   <text font-size="13.3" text-anchor="middle" y="50.7" x="60" font-family="Arial" fill="rgb(0,0,0)">the cache block</text>
  </g>
  <g stroke="#000" fill="#000">
   <path d="m240,60l0,40" fill="none"/>
   <path d="m0,0z"/>
   <path d="m247.5,85l-7.5,15l-7.5,-15l7.5,4.5l7.5,-4.5z"/>
  </g>
  <g stroke="#000" fill="#000">
   <path d="m300,130l90,0q10,0 10,10l0,20" fill="none"/>
  </g>
  <g stroke="#000" fill="#000">
   <path d="m0,0z"/>
  </g>
  <g stroke="#000" fill="#000">
   <path d="m407.5,145l-7.5,15l-7.5,-15l7.5,4.5l7.5,-4.5z"/>
  </g>
  <rect stroke-opacity="0" height="17.3" width="32.9" stroke="#fff" y="111" x="327" stroke-width="0" fill="#fff"/>
  <text font-size="13.3" text-anchor="middle" y="125.366" x="343.475" font-family="Arial" fill="rgb(0,0,0)">Write</text>
  <g stroke="#000" fill="#000">
   <path d="m180,130l-90,0q-10,0 -10,10l0,20" fill="none"/>
  </g>
  <g stroke="#000" fill="#000">
   <path d="m0,0z"/>
  </g>
  <g stroke="#000" fill="#000">
   <path d="m87.5,145l-7.5,15l-7.5,-15l7.5,4.5l7.5,-4.5z"/>
  </g>
  <rect stroke-opacity="0" height="17.3" width="33.9" stroke="#fff" y="111" x="120" stroke-width="0" fill="#fff"/>
  <text font-size="13.3" text-anchor="middle" y="125.366" x="136.786" font-family="Arial" fill="rgb(0,0,0)">Read</text>
  <g stroke="#000" fill="#000">
   <path d="m80,220l0,40" fill="none"/>
  </g>
  <g stroke="#000" fill="#000">
   <path d="m0,0z"/>
  </g>
  <g stroke="#000" fill="#000">
   <path d="m87.5,245l-7.5,15l-7.5,-15l7.5,4.5l7.5,-4.5z"/>
  </g>
  <rect stroke-opacity="0" height="17.3" width="19" stroke="#fff" y="220" x="81.5" stroke-width="0" fill="#fff"/>
  <text font-size="13.3" text-anchor="middle" y="234.366" x="91" font-family="Arial" fill="rgb(0,0,0)">No</text>
  <g stroke="#000" fill="#000">
   <path d="m80,520l0,40" fill="none"/>
   <path d="m0,0z"/>
   <path d="m87.5,545l-7.5,15l-7.5,-15l7.5,4.5l7.5,-4.5z"/>
  </g>
  <g stroke="#000" fill="#000">
   <path d="m80,620l0,40" fill="none"/>
   <path d="m0,0z"/>
   <path d="m87.5,645l-7.5,15l-7.5,-15l7.5,4.5l7.5,-4.5z"/>
  </g>
  <g stroke="#000" fill="#000">
   <path d="m460,190l150,0q10,0 10,10l0,380q0,10 -10,10l-150,0" fill="none"/>
  </g>
  <g stroke="#000" fill="#000">
   <path d="m0,0z"/>
  </g>
  <g stroke="#000" fill="#000">
   <path d="m475,597.5l-15,-7.5l15,-7.5l-4.5,7.5l4.5,7.5z"/>
  </g>
  <rect stroke-opacity="0" height="17.3" width="23.8" stroke="#fff" y="171" x="460" stroke-width="0" fill="#fff"/>
  <text font-size="13.3" text-anchor="middle" y="185.439" x="471.475" font-family="Arial" fill="rgb(0,0,0)">Yes</text>
  <g stroke="#000" fill="#000">
   <path d="m400,220l0,40" fill="none"/>
  </g>
  <g stroke="#000" fill="#000">
   <path d="m0,0z"/>
  </g>
  <g stroke="#000" fill="#000">
   <path d="m407.5,245l-7.5,15l-7.5,-15l7.5,4.5l7.5,-4.5z"/>
  </g>
  <rect stroke-opacity="0" height="17.3" width="19" stroke="#fff" y="220" x="401" stroke-width="0" fill="#fff"/>
  <text font-size="13.3" text-anchor="middle" y="234.035" x="411" font-family="Arial" fill="rgb(0,0,0)">No</text>
  <g stroke="#000" fill="#000">
   <path d="m540,470l0,10q0,10 -10,10l-70,0" fill="none"/>
   <path d="m0,0z"/>
   <path d="m475,497.5l-15,-7.5l15,-7.5l-4.5,7.5l4.5,7.5z"/>
  </g>
  <g stroke="#000" fill="#000">
   <path d="m80,720l0,10q0,10 10,10l140,0q10,0 10,10l0,10" fill="none"/>
   <path d="m0,0z"/>
   <path d="m247.5,745l-7.5,15l-7.5,-15l7.5,4.5l7.5,-4.5z"/>
  </g>
  <g stroke="#000" fill="#000">
   <path d="m400,720l0,10q0,10 -10,10l-140,0q-10,0 -10,10l0,10" fill="none"/>
   <path d="m0,0z"/>
   <path d="m247.5,745l-7.5,15l-7.5,-15l7.5,4.5l7.5,-4.5z"/>
  </g>
  <g stroke="#000" fill="#000">
   <path d="m140,190l150,0q10,0 10,10l0,480q0,10 -10,10l-150,0" fill="none"/>
  </g>
  <g stroke="#000" fill="#000">
   <path d="m0,0z"/>
  </g>
  <g stroke="#000" fill="#000">
   <path d="m155,697.5l-15,-7.5l15,-7.5l-4.5,7.5l4.5,7.5z"/>
  </g>
  <rect stroke-opacity="0" height="17.3" width="23.8" stroke="#fff" y="171" x="140" stroke-width="0" fill="#fff"/>
  <text font-size="13.3" text-anchor="middle" y="185.464" x="151.549" font-family="Arial" fill="rgb(0,0,0)">Yes</text>
  <g stroke="#000" fill="#000">
   <path d="m400,620l0,40" fill="none"/>
   <path d="m0,0z"/>
   <path d="m407.5,645l-7.5,15l-7.5,-15l7.5,4.5l7.5,-4.5z"/>
  </g>
  <g stroke="#000" fill="#000">
   <path d="m400,320l0,40" fill="none"/>
   <path d="m0,0z"/>
   <path d="m407.5,345l-7.5,15l-7.5,-15l7.5,4.5l7.5,-4.5z"/>
  </g>
  <g stroke="#000" fill="#000">
   <path d="m80,320l0,40" fill="none"/>
   <path d="m0,0z"/>
   <path d="m87.5,345l-7.5,15l-7.5,-15l7.5,4.5l7.5,-4.5z"/>
  </g>
  <g stroke="#000" fill="#000">
   <path d="m80,420l0,40" fill="none"/>
  </g>
  <g stroke="#000" fill="#000">
   <path d="m0,0z"/>
  </g>
  <g stroke="#000" fill="#000">
   <path d="m87.5,445l-7.5,15l-7.5,-15l7.5,4.5l7.5,-4.5z"/>
  </g>
  <rect stroke-opacity="0" height="17.3" width="19" stroke="#fff" y="420" x="81.4" stroke-width="0" fill="#fff"/>
  <text font-size="13.3" text-anchor="middle" y="434.078" x="90.877" font-family="Arial" fill="rgb(0,0,0)">No</text>
  <g stroke="#000" fill="#000">
   <path d="m400,420l0,40" fill="none"/>
  </g>
  <g stroke="#000" fill="#000">
   <path d="m0,0z"/>
  </g>
  <g stroke="#000" fill="#000">
   <path d="m407.5,445l-7.5,15l-7.5,-15l7.5,4.5l7.5,-4.5z"/>
  </g>
  <rect stroke-opacity="0" height="17.3" width="19" stroke="#fff" y="420" x="401" stroke-width="0" fill="#fff"/>
  <text font-size="13.3" text-anchor="middle" y="434.078" x="410.877" font-family="Arial" fill="rgb(0,0,0)">No</text>
  <g stroke="#000" fill="#000">
   <path d="m460,390l70,0q10,0 10,10l0,10" fill="none"/>
  </g>
  <g stroke="#000" fill="#000">
   <path d="m0,0z"/>
  </g>
  <g stroke="#000" fill="#000">
   <path d="m547.5,395l-7.5,15l-7.5,-15l7.5,4.5l7.5,-4.5z"/>
  </g>
  <rect stroke-opacity="0" height="17.3" width="23.8" stroke="#fff" y="371" x="460" stroke-width="0" fill="#fff"/>
  <text font-size="13.3" text-anchor="middle" y="385.195" x="471.549" font-family="Arial" fill="rgb(0,0,0)">Yes</text>
  <g stroke="#000" fill="#000">
   <path d="m140,390l70,0q10,0 10,10l0,10" fill="none"/>
  </g>
  <g stroke="#000" fill="#000">
   <path d="m0,0z"/>
  </g>
  <g stroke="#000" fill="#000">
   <path d="m227.5,395l-7.5,15l-7.5,-15l7.5,4.5l7.5,-4.5z"/>
  </g>
  <rect stroke-opacity="0" height="17.3" width="23.8" stroke="#fff" y="371" x="140" stroke-width="0" fill="#fff"/>
  <text font-size="13.3" text-anchor="middle" y="385.379" x="151.549" font-family="Arial" fill="rgb(0,0,0)">Yes</text>
  <g stroke="#000" fill="#000">
   <path d="m220,470l0,10q0,10 -10,10l-70,0" fill="none"/>
   <path d="m0,0z"/>
   <path d="m155,497.5l-15,-7.5l15,-7.5l-4.5,7.5l4.5,7.5z"/>
  </g>
  <g stroke="#000" fill="#000">
   <path d="m400,520l0,40" fill="none"/>
   <path d="m0,0z"/>
   <path d="m407.5,545l-7.5,15l-7.5,-15l7.5,4.5l7.5,-4.5z"/>
  </g>
 </g>
</svg>