<?xml version="1.0" standalone="no"?>
<!DOCTYPE svg PUBLIC "-//W3C//DTD SVG 1.1//EN" "http://www.w3.org/Graphics/SVG/1.1/DTD/svg11.dtd">
<svg xmlns:xlink="http://www.w3.org/1999/xlink" width="2.206ex" height="1.843ex" style="vertical-align: -0.338ex;" viewBox="0 -647.8 949.7 793.3" xmlns="http://www.w3.org/2000/svg">
<defs>
<path stroke-width="10" id="E1-MJMAIN-227A" d="M84 249Q84 262 91 266T117 270Q120 270 126 270T137 269Q388 273 512 333T653 512Q657 539 676 539Q685 538 689 532T694 520V515Q689 469 672 431T626 366T569 320T500 286T435 265T373 249Q379 248 404 242T440 233T477 221T533 199Q681 124 694 -17Q694 -41 674 -41Q658 -41 653 -17Q646 41 613 84T533 154T418 197T284 220T137 229H114Q104 229 98 230T88 235T84 249Z"></path>
</defs>
<g stroke="currentColor" fill="currentColor" stroke-width="0" transform="matrix(1 0 0 -1 0 0)">
 <use xlink:href="#E1-MJMAIN-227A" x="0" y="0"></use>
</g>
</svg>