<?xml version="1.0" standalone="no"?>
<!DOCTYPE svg PUBLIC "-//W3C//DTD SVG 1.1//EN" "http://www.w3.org/Graphics/SVG/1.1/DTD/svg11.dtd">
<svg xmlns:xlink="http://www.w3.org/1999/xlink" width="24.08ex" height="2.176ex" style="vertical-align: -0.338ex;" viewBox="0 -791.3 10367.7 936.9" xmlns="http://www.w3.org/2000/svg">
<defs>
<path stroke-width="10" id="E1-MJSS-41" d="M183 181Q183 179 152 91T118 0H28L154 346L280 693Q281 694 333 694H385L511 349Q636 4 638 2Q638 0 584 0H530L464 183H184L183 181ZM324 606Q319 578 292 492T238 332T210 256Q210 254 324 254T438 255L429 281L419 308Q409 336 395 378T365 465T339 551T324 611V606Z"></path>
<path stroke-width="10" id="E1-MJSS-42" d="M425 363Q438 363 465 353T526 324T585 270T610 192Q610 132 561 78T426 7Q404 2 387 2T240 0H90V694H227Q373 693 396 689Q484 673 533 623T583 517Q583 494 574 473T551 437T520 409T487 388T456 374T433 366L425 363ZM490 516Q490 527 485 539T467 568T423 599T347 621Q340 622 262 623H188V399H261H286Q432 399 478 475Q490 496 490 516ZM514 190Q514 245 462 280T343 322Q336 323 259 323H188V71H274Q365 72 388 77Q445 88 479 121T514 190Z"></path>
<path stroke-width="10" id="E1-MJSS-43" d="M59 347Q59 440 100 521T218 654T392 705Q473 705 550 680Q577 670 577 667Q576 666 572 642T564 595T559 571Q515 601 479 613T392 626Q300 626 232 549T164 347Q164 231 229 150T397 68Q453 68 489 80T568 120L581 129L582 110Q584 91 585 71T587 46Q580 40 566 31T502 5T396 -11Q296 -11 218 41T99 174T59 347Z"></path>
<path stroke-width="10" id="E1-MJSS-44" d="M88 0V694H237H258H316Q383 694 425 686T511 648Q578 604 622 525T666 343Q666 190 564 86Q494 18 400 3Q387 1 237 0H88ZM565 341Q565 409 546 463T495 550T429 600T359 621Q348 623 267 623H189V71H267Q272 71 286 71T310 70Q461 70 527 184Q565 251 565 341Z"></path>
<path stroke-width="10" id="E1-MJSS-45" d="M86 0V691H541V611H366L190 612V397H513V321H190V85H372L554 86V0H86Z"></path>
<path stroke-width="10" id="E1-MJSS-46" d="M86 0V691H526V611H358L190 612V384H485V308H190V0H86Z"></path>
<path stroke-width="10" id="E1-MJSS-61" d="M236 387Q209 387 184 382T141 370T111 355T91 342T83 337L82 355Q80 373 79 393T77 417Q77 419 81 421Q86 423 91 426Q155 460 227 460H238Q319 460 368 400Q393 371 400 341T408 252Q408 240 408 207T407 152V0H317V39L306 32Q244 -10 159 -10H152Q109 -10 77 22Q38 61 38 126Q38 142 39 146Q55 199 130 223T295 252H314V277Q314 305 313 310Q308 342 287 364T236 387ZM303 186Q124 180 124 126Q124 105 144 86T208 66Q284 66 309 124Q314 137 314 166V186H303Z"></path>
<path stroke-width="10" id="E1-MJSS-62" d="M303 -11Q280 -11 259 -6T222 6T194 21T176 33T168 38V0H75V694H165V550L166 405Q247 455 336 455Q397 455 439 389T482 226Q482 115 428 52T303 -11ZM390 221Q390 283 361 331T265 379Q214 379 177 342L168 334V118Q203 66 258 66Q316 66 353 106T390 221Z"></path>
<path stroke-width="10" id="E1-MJSS-63" d="M34 223Q34 327 99 393T245 460Q290 460 301 459Q328 455 354 445T395 427T410 415L396 338L386 344Q377 349 362 357T335 370Q305 381 258 381H252Q182 381 146 315Q126 275 126 224Q126 158 159 113T255 68Q329 68 394 106L408 114L410 93Q411 72 412 52L414 32Q407 27 394 20T338 2T252 -10Q156 -10 95 58T34 223Z"></path>
<path stroke-width="10" id="E1-MJSS-64" d="M33 224Q33 321 81 388T197 455Q277 455 342 414L351 408V694H441V0H348V44L338 37Q278 -10 198 -10Q177 -10 168 -8Q99 11 62 90Q33 148 33 224ZM348 337Q307 378 263 378Q260 378 256 378T251 379Q239 379 223 374T182 355T142 305T126 220Q126 90 225 67Q231 66 250 66H255Q306 66 342 115L348 124V337Z"></path>
<path stroke-width="10" id="E1-MJSS-65" d="M28 226Q28 329 91 395T235 461Q258 461 279 456T325 436T368 397T399 332T415 238V219H113V215Q113 163 151 114T248 65Q273 65 298 70T341 82T373 96T396 108L403 113Q403 106 406 76T409 38Q409 34 408 33T393 24Q325 -10 252 -10Q155 -10 92 59T28 226ZM340 289L338 297Q335 305 333 310T327 326T317 343T304 358T286 372T263 381T233 385Q212 385 193 376T162 353T140 325T127 301T123 289H340Z"></path>
<path stroke-width="10" id="E1-MJSS-66" d="M262 705H267Q300 705 347 694V612L336 616Q303 628 274 628H266Q224 628 199 605Q187 590 184 579T181 541V507V444H287V371H184V0H94V371H27V444H94V492Q94 544 95 550Q102 617 151 661T262 705Z"></path>
<path stroke-width="10" id="E1-MJSS-31" d="M94 612Q172 616 211 632T284 678H307V73H430V0H88V73H213V317Q213 560 212 560Q210 558 197 554T155 546T96 540L83 539V612H94Z"></path>
<path stroke-width="10" id="E1-MJSS-32" d="M222 599Q190 599 166 585T128 550T108 509T97 474T93 459L67 492L42 526L47 539Q72 608 120 642T225 677Q304 677 355 644Q449 579 449 454Q449 373 361 290Q351 280 315 250T199 144Q156 103 137 85L293 86H449V0H50V79L216 242Q284 302 317 349T351 456Q351 517 315 558T222 599Z"></path>
<path stroke-width="10" id="E1-MJSS-33" d="M333 521Q333 554 313 579T243 604Q154 604 99 514L78 546Q56 577 56 579Q56 580 62 589T82 611T114 637T162 662T222 677Q224 677 231 677T242 678H245Q318 678 374 634T430 520Q430 483 417 452T382 398T351 369T329 354L328 353Q369 333 373 330Q408 306 432 268T457 184Q457 103 397 41T242 -22Q131 -22 51 58L42 68L49 105L55 142L58 138Q62 134 66 130T77 120T91 108T108 96T129 83T152 72T179 63T209 57T242 54Q285 54 319 86T353 184Q353 231 331 267T260 315L213 316H166V354Q166 392 167 392Q233 395 257 405Q290 418 311 450T333 521Z"></path>
<path stroke-width="10" id="E1-MJSS-34" d="M271 654L272 656H380V235H471V159H380V0H286V159H28V235L149 443Q269 652 271 654ZM292 235V607Q292 604 290 591T286 571T280 548T269 517T252 476T226 422T189 354T140 267Q136 260 132 253T126 240L123 236Q123 235 207 235H292Z"></path>
<path stroke-width="10" id="E1-MJSS-35" d="M257 350Q236 350 218 342T189 323T171 301T160 281L157 273Q157 272 116 272H75V656H416V577H162V486Q162 396 163 396T174 403T207 418T258 426Q339 426 394 360T449 203Q449 113 386 46T226 -21H223Q188 -21 156 -11T102 13T64 42T41 66T33 77Q34 78 44 95T64 128L73 144Q93 112 117 93Q165 54 223 54Q270 54 306 86T345 197Q345 350 257 350Z"></path>
<path stroke-width="10" id="E1-MJSS-36" d="M42 318Q42 396 61 460T109 564T173 629T237 666T289 677H301H317Q359 677 408 658V621Q408 585 407 585H406Q359 605 308 605Q246 605 203 556T146 421Q143 403 144 403Q145 402 152 409Q216 469 299 469Q333 469 357 457T407 405Q457 330 457 226Q457 126 402 57Q340 -22 251 -22Q216 -22 183 -7T116 43T63 149T42 318ZM260 393Q216 393 188 365T150 306T141 243Q141 153 172 104Q192 68 230 56Q238 54 251 54Q311 54 342 116Q360 152 360 226Q360 297 344 332Q320 382 277 392Q275 392 270 392T260 393Z"></path>
</defs>
<g stroke="currentColor" fill="currentColor" stroke-width="0" transform="matrix(1 0 0 -1 0 0)">
 <use xlink:href="#E1-MJSS-41" x="0" y="0"></use>
 <use xlink:href="#E1-MJSS-42" x="672" y="0"></use>
 <use xlink:href="#E1-MJSS-43" x="1344" y="0"></use>
 <use xlink:href="#E1-MJSS-44" x="1988" y="0"></use>
 <use xlink:href="#E1-MJSS-45" x="2715" y="0"></use>
 <use xlink:href="#E1-MJSS-46" x="3317" y="0"></use>
 <use xlink:href="#E1-MJSS-61" x="4141" y="0"></use>
 <use xlink:href="#E1-MJSS-62" x="4627" y="0"></use>
 <use xlink:href="#E1-MJSS-63" x="5149" y="0"></use>
 <use xlink:href="#E1-MJSS-64" x="5598" y="0"></use>
 <use xlink:href="#E1-MJSS-65" x="6120" y="0"></use>
 <use xlink:href="#E1-MJSS-66" x="6569" y="0"></use>
<g transform="translate(7171,0)">
 <use xlink:href="#E1-MJSS-31"></use>
 <use xlink:href="#E1-MJSS-32" x="505" y="0"></use>
 <use xlink:href="#E1-MJSS-33" x="1010" y="0"></use>
 <use xlink:href="#E1-MJSS-34" x="1515" y="0"></use>
 <use xlink:href="#E1-MJSS-35" x="2020" y="0"></use>
 <use xlink:href="#E1-MJSS-36" x="2525" y="0"></use>
</g>
</g>
</svg>