<?xml version="1.0" standalone="no"?>
<!DOCTYPE svg PUBLIC "-//W3C//DTD SVG 1.1//EN" "http://www.w3.org/Graphics/SVG/1.1/DTD/svg11.dtd">
<svg xmlns:xlink="http://www.w3.org/1999/xlink" width="3.521ex" height="3.843ex" style="vertical-align: -1.338ex;" viewBox="0 -1078.4 1516 1654.5" xmlns="http://www.w3.org/2000/svg">
<defs>
<path stroke-width="10" id="E1-MJSZ2-2A01" d="M668 944Q697 949 744 949Q803 949 814 948Q916 937 1006 902T1154 826T1262 730T1336 638T1380 563Q1454 415 1454 250Q1454 113 1402 -14T1258 -238T1036 -391T755 -449Q608 -449 477 -392T255 -240T110 -16T56 250Q56 387 105 510T239 723T434 871T668 944ZM706 299V850H704Q519 832 386 725T198 476Q181 433 169 379T156 300Q156 299 431 299H706ZM1116 732Q1054 778 982 807T871 842T810 849L804 850V299H1079Q1354 299 1354 300Q1354 311 1352 329T1336 402T1299 506T1228 620T1116 732ZM706 -350V201H431Q156 201 156 200Q156 189 158 171T174 98T211 -6T282 -120T395 -232Q428 -257 464 -277T527 -308T587 -328T636 -339T678 -346T706 -350ZM1354 200Q1354 201 1079 201H804V-350Q808 -349 838 -345T887 -338T940 -323T1010 -295Q1038 -282 1067 -265T1144 -208T1229 -121T1301 0T1349 158Q1354 188 1354 200Z"></path>
</defs>
<g stroke="currentColor" fill="currentColor" stroke-width="0" transform="matrix(1 0 0 -1 0 0)">
 <use xlink:href="#E1-MJSZ2-2A01" x="0" y="0"></use>
</g>
</svg>