<?xml version="1.0" standalone="no"?>
<!DOCTYPE svg PUBLIC "-//W3C//DTD SVG 1.1//EN" "http://www.w3.org/Graphics/SVG/1.1/DTD/svg11.dtd">
<svg xmlns:xlink="http://www.w3.org/1999/xlink" width="2.206ex" height="1.843ex" style="vertical-align: -0.338ex;" viewBox="0 -647.8 949.7 793.3" xmlns="http://www.w3.org/2000/svg">
<defs>
<path stroke-width="10" id="E1-MJMAIN-2283" d="M83 520Q83 532 98 540H251Q267 540 297 540T343 541Q427 541 488 525T605 455Q693 374 693 250Q693 165 650 99T545 0T415 -39Q407 -40 251 -40H98Q83 -32 83 -20Q83 -10 96 0H255H308H337Q412 0 439 4T512 28Q533 39 553 54T599 96T639 163T654 250Q654 341 592 411Q557 449 512 472Q468 491 439 495T335 500H306H255L96 501Q83 511 83 520Z"></path>
</defs>
<g stroke="currentColor" fill="currentColor" stroke-width="0" transform="matrix(1 0 0 -1 0 0)">
 <use xlink:href="#E1-MJMAIN-2283" x="0" y="0"></use>
</g>
</svg>