<?xml version="1.0" standalone="no"?>
<!DOCTYPE svg PUBLIC "-//W3C//DTD SVG 1.1//EN" "http://www.w3.org/Graphics/SVG/1.1/DTD/svg11.dtd">
<svg xmlns:xlink="http://www.w3.org/1999/xlink" width="2.412ex" height="2.843ex" style="vertical-align: -0.838ex;" viewBox="0 -863.1 1038.7 1223.9" xmlns="http://www.w3.org/2000/svg">
<defs>
<path stroke-width="10" id="E1-MJMAIN-22A8" d="M139 -249H137Q125 -249 119 -235V251L120 737Q130 750 139 750Q152 750 159 735V367H796Q811 359 811 347Q811 336 797 328L479 327H161L159 328V172L161 173H797Q798 172 800 171T803 169T805 167T808 164T809 162T810 158T811 153Q811 140 796 133H159V-235Q151 -249 141 -249H139Z"></path>
</defs>
<g stroke="currentColor" fill="currentColor" stroke-width="0" transform="matrix(1 0 0 -1 0 0)">
 <use xlink:href="#E1-MJMAIN-22A8" x="0" y="0"></use>
</g>
</svg>