<?xml version="1.0" standalone="no"?>
<!DOCTYPE svg PUBLIC "-//W3C//DTD SVG 1.1//EN" "http://www.w3.org/Graphics/SVG/1.1/DTD/svg11.dtd">
<svg xmlns:xlink="http://www.w3.org/1999/xlink" width="19.076ex" height="13.509ex" style="vertical-align: -5.889ex; margin-bottom: -0.282ex;" viewBox="0 -3159.4 8213.4 5816.5" xmlns="http://www.w3.org/2000/svg">
<defs>
<path stroke-width="10" id="E1-MJMATHI-4D" d="M289 629Q289 635 232 637Q208 637 201 638T194 648Q194 649 196 659Q197 662 198 666T199 671T201 676T203 679T207 681T212 683T220 683T232 684Q238 684 262 684T307 683Q386 683 398 683T414 678Q415 674 451 396L487 117L510 154Q534 190 574 254T662 394Q837 673 839 675Q840 676 842 678T846 681L852 683H948Q965 683 988 683T1017 684Q1051 684 1051 673Q1051 668 1048 656T1045 643Q1041 637 1008 637Q968 636 957 634T939 623Q936 618 867 340T797 59Q797 55 798 54T805 50T822 48T855 46H886Q892 37 892 35Q892 19 885 5Q880 0 869 0Q864 0 828 1T736 2Q675 2 644 2T609 1Q592 1 592 11Q592 13 594 25Q598 41 602 43T625 46Q652 46 685 49Q699 52 704 61Q706 65 742 207T813 490T848 631L654 322Q458 10 453 5Q451 4 449 3Q444 0 433 0Q418 0 415 7Q413 11 374 317L335 624L267 354Q200 88 200 79Q206 46 272 46H282Q288 41 289 37T286 19Q282 3 278 1Q274 0 267 0Q265 0 255 0T221 1T157 2Q127 2 95 1T58 0Q43 0 39 2T35 11Q35 13 38 25T43 40Q45 46 65 46Q135 46 154 86Q158 92 223 354T289 629Z"></path>
<path stroke-width="10" id="E1-MJMAIN-3D" d="M56 347Q56 360 70 367H707Q722 359 722 347Q722 336 708 328L390 327H72Q56 332 56 347ZM56 153Q56 168 72 173H708Q722 163 722 153Q722 140 707 133H70Q56 140 56 153Z"></path>
<path stroke-width="10" id="E1-MJMAIN-5B" d="M118 -250V750H255V710H158V-210H255V-250H118Z"></path>
<path stroke-width="10" id="E1-MJMAIN-35" d="M164 157Q164 133 148 117T109 101H102Q148 22 224 22Q294 22 326 82Q345 115 345 210Q345 313 318 349Q292 382 260 382H254Q176 382 136 314Q132 307 129 306T114 304Q97 304 95 310Q93 314 93 485V614Q93 664 98 664Q100 666 102 666Q103 666 123 658T178 642T253 634Q324 634 389 662Q397 666 402 666Q410 666 410 648V635Q328 538 205 538Q174 538 149 544L139 546V374Q158 388 169 396T205 412T256 420Q337 420 393 355T449 201Q449 109 385 44T229 -22Q148 -22 99 32T50 154Q50 178 61 192T84 210T107 214Q132 214 148 197T164 157Z"></path>
<path stroke-width="10" id="E1-MJMAIN-36" d="M42 313Q42 476 123 571T303 666Q372 666 402 630T432 550Q432 525 418 510T379 495Q356 495 341 509T326 548Q326 592 373 601Q351 623 311 626Q240 626 194 566Q147 500 147 364L148 360Q153 366 156 373Q197 433 263 433H267Q313 433 348 414Q372 400 396 374T435 317Q456 268 456 210V192Q456 169 451 149Q440 90 387 34T253 -22Q225 -22 199 -14T143 16T92 75T56 172T42 313ZM257 397Q227 397 205 380T171 335T154 278T148 216Q148 133 160 97T198 39Q222 21 251 21Q302 21 329 59Q342 77 347 104T352 209Q352 289 347 316T329 361Q302 397 257 397Z"></path>
<path stroke-width="10" id="E1-MJMAIN-31" d="M213 578L200 573Q186 568 160 563T102 556H83V602H102Q149 604 189 617T245 641T273 663Q275 666 285 666Q294 666 302 660V361L303 61Q310 54 315 52T339 48T401 46H427V0H416Q395 3 257 3Q121 3 100 0H88V46H114Q136 46 152 46T177 47T193 50T201 52T207 57T213 61V578Z"></path>
<path stroke-width="10" id="E1-MJMAIN-30" d="M96 585Q152 666 249 666Q297 666 345 640T423 548Q460 465 460 320Q460 165 417 83Q397 41 362 16T301 -15T250 -22Q224 -22 198 -16T137 16T82 83Q39 165 39 320Q39 494 96 585ZM321 597Q291 629 250 629Q208 629 178 597Q153 571 145 525T137 333Q137 175 145 125T181 46Q209 16 250 16Q290 16 318 46Q347 76 354 130T362 333Q362 478 354 524T321 597Z"></path>
<path stroke-width="10" id="E1-MJMAIN-5D" d="M22 710V750H159V-250H22V-210H119V710H22Z"></path>
<path stroke-width="10" id="E1-MJSZ4-23A1" d="M319 -645V1154H666V1070H403V-645H319Z"></path>
<path stroke-width="10" id="E1-MJSZ4-23A3" d="M319 -644V1155H403V-560H666V-644H319Z"></path>
<path stroke-width="10" id="E1-MJSZ4-23A2" d="M319 0V602H403V0H319Z"></path>
<path stroke-width="10" id="E1-MJSZ4-23A4" d="M0 1070V1154H347V-645H263V1070H0Z"></path>
<path stroke-width="10" id="E1-MJSZ4-23A6" d="M263 -560V1155H347V-644H0V-560H263Z"></path>
<path stroke-width="10" id="E1-MJSZ4-23A5" d="M263 0V602H347V0H263Z"></path>
</defs>
<g stroke="currentColor" fill="currentColor" stroke-width="0" transform="matrix(1 0 0 -1 0 0)">
 <use xlink:href="#E1-MJMATHI-4D" x="0" y="0"></use>
 <use xlink:href="#E1-MJMAIN-3D" x="1333" y="0"></use>
<g transform="translate(2394,0)">
<g transform="translate(0,3035)">
 <use xlink:href="#E1-MJSZ4-23A1" x="0" y="-1164"></use>
<g transform="translate(0,-3769.392209270157) scale(1,3.268614721029668)">
 <use xlink:href="#E1-MJSZ4-23A2"></use>
</g>
 <use xlink:href="#E1-MJSZ4-23A3" x="0" y="-4918"></use>
</g>
<g transform="translate(839,0)">
<g transform="translate(-11,0)">
<g transform="translate(0,2090)">
<g transform="translate(120,0)">
<rect stroke="none" width="477" height="60" x="0" y="220"></rect>
 <use transform="scale(0.707)" xlink:href="#E1-MJMAIN-35" x="84" y="660"></use>
 <use transform="scale(0.707)" xlink:href="#E1-MJMAIN-36" x="84" y="-598"></use>
</g>
</g>
<g transform="translate(120,0)">
<rect stroke="none" width="477" height="60" x="0" y="220"></rect>
 <use transform="scale(0.707)" xlink:href="#E1-MJMAIN-35" x="84" y="660"></use>
 <use transform="scale(0.707)" xlink:href="#E1-MJMAIN-36" x="84" y="-598"></use>
</g>
 <use xlink:href="#E1-MJMAIN-30" x="106" y="-2091"></use>
</g>
<g transform="translate(1706,0)">
<g transform="translate(0,2090)">
<g transform="translate(120,0)">
<rect stroke="none" width="477" height="60" x="0" y="220"></rect>
 <use transform="scale(0.707)" xlink:href="#E1-MJMAIN-31" x="84" y="638"></use>
 <use transform="scale(0.707)" xlink:href="#E1-MJMAIN-36" x="84" y="-598"></use>
</g>
</g>
 <use xlink:href="#E1-MJMAIN-30" x="106" y="-1"></use>
<g transform="translate(0,-2091)">
<g transform="translate(120,0)">
<rect stroke="none" width="477" height="60" x="0" y="220"></rect>
 <use transform="scale(0.707)" xlink:href="#E1-MJMAIN-35" x="84" y="660"></use>
 <use transform="scale(0.707)" xlink:href="#E1-MJMAIN-36" x="84" y="-598"></use>
</g>
</g>
</g>
<g transform="translate(3423,0)">
 <use xlink:href="#E1-MJMAIN-30" x="106" y="2090"></use>
<g transform="translate(120,0)">
<rect stroke="none" width="477" height="60" x="0" y="220"></rect>
 <use transform="scale(0.707)" xlink:href="#E1-MJMAIN-31" x="84" y="638"></use>
 <use transform="scale(0.707)" xlink:href="#E1-MJMAIN-36" x="84" y="-598"></use>
</g>
<g transform="translate(0,-2091)">
<g transform="translate(120,0)">
<rect stroke="none" width="477" height="60" x="0" y="220"></rect>
 <use transform="scale(0.707)" xlink:href="#E1-MJMAIN-31" x="84" y="638"></use>
 <use transform="scale(0.707)" xlink:href="#E1-MJMAIN-36" x="84" y="-598"></use>
</g>
</g>
</g>
</g>
<g transform="translate(5146,3035)">
 <use xlink:href="#E1-MJSZ4-23A4" x="0" y="-1164"></use>
<g transform="translate(0,-3769.392209270157) scale(1,3.268614721029668)">
 <use xlink:href="#E1-MJSZ4-23A5"></use>
</g>
 <use xlink:href="#E1-MJSZ4-23A6" x="0" y="-4918"></use>
</g>
</g>
</g>
</svg>