<?xml version="1.0" standalone="no"?>
<!DOCTYPE svg PUBLIC "-//W3C//DTD SVG 1.1//EN" "http://www.w3.org/Graphics/SVG/1.1/DTD/svg11.dtd">
<svg xmlns:xlink="http://www.w3.org/1999/xlink" width="2.206ex" height="1.843ex" style="vertical-align: -0.338ex;" viewBox="0 -647.8 949.7 793.3" xmlns="http://www.w3.org/2000/svg">
<defs>
<path stroke-width="10" id="E1-MJMAIN-227B" d="M84 517Q84 539 102 539Q115 539 119 529T125 503T137 459T171 404Q277 275 640 269H661Q694 269 694 249T661 229H640Q526 227 439 214T283 173T173 98T124 -17Q118 -41 103 -41Q83 -41 83 -17Q88 29 105 67T151 132T208 178T277 212T342 233T404 249Q401 250 380 254T345 263T302 276T245 299Q125 358 92 468Q84 502 84 517Z"></path>
</defs>
<g stroke="currentColor" fill="currentColor" stroke-width="0" transform="matrix(1 0 0 -1 0 0)">
 <use xlink:href="#E1-MJMAIN-227B" x="0" y="0"></use>
</g>
</svg>