<?xml version="1.0" standalone="no"?>
<!DOCTYPE svg PUBLIC "-//W3C//DTD SVG 1.1//EN" "http://www.w3.org/Graphics/SVG/1.1/DTD/svg11.dtd">
<svg xmlns:xlink="http://www.w3.org/1999/xlink" width="2.206ex" height="2.176ex" style="vertical-align: -0.671ex;" viewBox="0 -647.8 949.7 936.9" xmlns="http://www.w3.org/2000/svg">
<defs>
<path stroke-width="10" id="E1-MJMAIN-2213" d="M56 467T56 480T70 500H707Q722 492 722 480T707 460H409V187H707Q722 179 722 167Q722 154 707 147H409V0V-93Q409 -144 406 -155T389 -166Q376 -166 372 -155T368 -105Q368 -96 368 -62T369 -2V147H70Q56 154 56 167T70 187H369V460H70Q56 467 56 480Z"></path>
</defs>
<g stroke="currentColor" fill="currentColor" stroke-width="0" transform="matrix(1 0 0 -1 0 0)">
 <use xlink:href="#E1-MJMAIN-2213" x="0" y="0"></use>
</g>
</svg>