<?xml version="1.0" standalone="no"?>
<!DOCTYPE svg PUBLIC "-//W3C//DTD SVG 1.1//EN" "http://www.w3.org/Graphics/SVG/1.1/DTD/svg11.dtd">
<svg xmlns:xlink="http://www.w3.org/1999/xlink" width="1.43ex" height="2.676ex" style="vertical-align: -0.838ex;" viewBox="0 -791.3 615.7 1152.1" xmlns="http://www.w3.org/2000/svg">
<defs>
<path stroke-width="10" id="E1-MJMAIN-2020" d="M182 675Q195 705 222 705Q234 705 243 700T253 691T263 675L262 655Q262 620 252 549T240 454V449Q250 451 288 461T346 472T377 461T389 431Q389 417 379 404T346 390Q327 390 288 401T243 412H240V405Q245 367 250 339T258 301T261 274T263 225Q263 124 255 -41T239 -213Q236 -216 222 -216H217Q206 -216 204 -212T200 -186Q199 -175 199 -168Q181 38 181 225Q181 265 182 280T191 327T204 405V412H201Q196 412 157 401T98 390Q76 390 66 403T55 431T65 458T98 472Q116 472 155 462T205 449Q204 452 204 460T201 490T193 547Q182 619 182 655V675Z"></path>
</defs>
<g stroke="currentColor" fill="currentColor" stroke-width="0" transform="matrix(1 0 0 -1 0 0)">
 <use xlink:href="#E1-MJMAIN-2020" x="0" y="0"></use>
</g>
</svg>