<?xml version="1.0" standalone="no"?>
<!DOCTYPE svg PUBLIC "-//W3C//DTD SVG 1.1//EN" "http://www.w3.org/Graphics/SVG/1.1/DTD/svg11.dtd">
<svg xmlns:xlink="http://www.w3.org/1999/xlink" width="2.721ex" height="2.843ex" style="vertical-align: -0.838ex;" viewBox="0 -863.1 1171.7 1223.9" xmlns="http://www.w3.org/2000/svg">
<defs>
<path stroke-width="10" id="E1-MJMAIN-25EF" d="M56 250Q56 353 95 442T196 589T335 681T491 715Q573 715 635 693Q694 673 747 635T846 543T917 412T944 250Q944 58 815 -78T500 -215Q457 -215 429 -210Q274 -183 165 -56T56 250ZM500 -176Q664 -176 784 -54T904 250Q904 418 799 536T543 674Q534 675 493 675Q425 675 357 647T229 567T133 432T96 250Q96 160 129 80T217 -56T346 -144T500 -176Z"></path>
</defs>
<g stroke="currentColor" fill="currentColor" stroke-width="0" transform="matrix(1 0 0 -1 0 0)">
 <use xlink:href="#E1-MJMAIN-25EF" x="0" y="0"></use>
</g>
</svg>