<?xml version="1.0" standalone="no"?>
<!DOCTYPE svg PUBLIC "-//W3C//DTD SVG 1.1//EN" "http://www.w3.org/Graphics/SVG/1.1/DTD/svg11.dtd">
<svg xmlns:xlink="http://www.w3.org/1999/xlink" width="25.039ex" height="2.676ex" style="vertical-align: -0.671ex;" viewBox="0 -863.1 10780.7 1152.1" xmlns="http://www.w3.org/2000/svg">
<defs>
<path stroke-width="10" id="E1-MJMAINI-41" d="M85 46Q112 48 132 56T161 73T176 92T185 104Q185 106 353 407T524 709Q527 716 551 716Q568 716 572 712Q573 711 574 710Q576 708 594 384Q613 54 617 52H618Q626 46 672 46H689Q696 41 696 36Q696 13 683 0H670Q639 2 557 2Q526 2 500 2T459 2T441 1Q425 1 425 10Q425 12 427 24Q428 27 429 31T430 36T432 40T434 43T437 45T443 46T450 46Q514 46 514 69Q514 74 511 136L506 209H292L260 152Q222 84 222 74Q222 48 264 46Q280 46 280 35Q280 33 278 21Q275 7 272 4T259 0Q256 0 232 1T159 2Q135 2 109 1T78 0Q58 0 58 10Q58 14 61 26T66 40Q68 46 85 46ZM504 260Q503 263 496 407T486 553L466 520Q446 486 402 406L318 256Q318 255 411 255H504V260Z"></path>
<path stroke-width="10" id="E1-MJMAINI-42" d="M57 11Q57 38 69 45L74 46Q78 46 85 46T99 46Q134 47 145 50T162 62Q164 66 233 344T303 626Q303 627 302 629V631Q296 637 241 637H223Q217 642 217 645T219 664Q223 677 229 683H411L593 682L605 680Q616 678 628 675T660 662T694 639T720 601T732 547Q732 519 726 503Q710 452 662 414T556 360L545 357L556 355Q604 346 641 312T678 221Q678 155 622 92T482 8Q459 2 439 2T256 0H154H105Q74 0 66 2T57 11ZM629 549Q628 550 629 557T627 576T619 600T601 622T570 636Q564 637 490 637Q472 637 454 637T424 636T411 636Q399 635 395 622T364 500Q333 377 332 376Q332 374 408 374L485 375L495 377Q547 390 588 437T629 549ZM504 336Q500 337 410 337Q323 337 322 336Q322 334 305 263T270 122T252 51Q252 47 337 46Q346 46 361 46T384 45Q425 45 455 55T515 95Q574 156 574 235Q574 276 555 304T504 336Z"></path>
<path stroke-width="10" id="E1-MJMAINI-43" d="M395 -21Q279 -21 215 56T150 244Q150 402 265 543Q339 630 421 667T562 704Q596 704 604 703Q627 698 647 689T679 669T699 649T711 633T716 627L753 665Q790 704 792 704Q793 705 798 705Q812 705 812 698Q812 694 780 561Q744 422 744 421Q742 416 739 415T721 413H705Q699 419 699 426Q701 432 701 444Q705 464 705 493Q705 524 700 551T681 604T643 644T583 659Q480 659 387 570Q321 502 287 397T252 213Q252 123 297 74Q347 24 421 24Q500 24 564 89T653 240Q656 253 659 255T677 257Q700 257 700 248Q700 242 694 222Q681 183 656 143T593 65T504 3T395 -21Z"></path>
<path stroke-width="10" id="E1-MJMAINI-44" d="M56 11Q56 38 68 45L72 46Q77 46 84 46T98 46Q133 47 144 50T161 62Q163 66 232 344T302 626Q302 627 302 629L301 631Q295 637 240 637H222Q216 642 216 645T218 664Q222 677 228 683H403Q582 683 589 682Q672 674 723 608T775 440Q775 312 709 209T562 54Q502 14 432 2Q423 1 243 0H148H102Q72 0 64 2T56 11ZM254 51Q254 46 348 46Q395 46 422 50T484 71Q585 121 633 255Q679 396 679 477Q679 522 665 554T629 603T587 626T548 636Q547 636 536 636T510 636T480 637Q420 637 411 636T398 627Q396 623 325 339T254 51Z"></path>
<path stroke-width="10" id="E1-MJMAINI-45" d="M248 634Q216 634 214 638Q213 641 213 646Q213 674 224 678Q226 680 481 680H736Q743 676 743 669Q743 665 729 557T713 447Q711 440 690 440H675Q667 445 667 454Q667 455 671 481T675 536Q675 583 658 604T592 632Q574 634 475 634Q439 634 424 633T405 631T399 625Q397 622 367 501T336 377Q336 376 367 376H388Q451 376 477 389Q493 399 503 419T520 462T528 489Q531 493 549 493Q557 493 561 492T566 491T569 488T572 483L539 351Q507 221 503 216Q503 216 500 213H484Q468 213 465 216Q461 219 461 225Q461 228 466 250T472 290Q472 317 452 323T368 330H324Q323 326 289 191T255 51T331 46H360Q413 46 444 49T511 67T570 113Q589 137 608 175T638 242T652 272Q656 274 670 274Q693 274 693 262L648 148Q590 4 588 2Q585 0 323 0H61Q54 4 54 11Q54 27 61 41Q65 46 95 46Q131 47 142 50T159 62L194 200Q229 337 264 477T299 623Q299 630 292 631T248 634Z"></path>
<path stroke-width="10" id="E1-MJMAINI-46" d="M299 623Q299 630 292 631T247 634H219Q213 640 213 642T215 661Q218 673 225 680H724Q731 676 731 669Q731 665 717 557T701 447Q699 440 678 440H663Q656 444 656 452Q656 457 659 485T663 538Q663 586 644 607T566 633Q564 633 535 633T486 634H458Q404 634 399 625Q396 620 364 492L332 363H380Q446 365 464 373Q496 389 514 458Q518 477 523 479Q527 480 541 480H556Q563 475 563 470Q563 467 532 339T498 207Q496 200 475 200H460Q453 207 453 212Q454 213 456 225T461 254T464 278Q464 304 445 310T369 317H321L289 190Q257 66 257 59Q257 54 261 52T283 48T337 46Q348 46 352 46T360 45T366 42T368 37Q368 32 365 23Q360 4 355 2Q352 1 342 1Q336 1 297 1T199 2Q138 2 106 2T71 1H68Q54 1 54 11Q54 38 66 45L70 46Q75 46 82 46T96 46Q131 47 142 50T159 62L194 200Q229 337 264 477T299 623Z"></path>
<path stroke-width="10" id="E1-MJMAINI-61" d="M418 53Q418 26 438 26Q466 26 494 131Q500 151 504 152Q507 153 516 153H521Q531 153 534 153T540 150T543 144Q543 141 540 126T529 88T509 43T477 5T434 -11Q404 -11 383 3T354 30T347 48H346Q345 47 342 45T337 40Q282 -11 228 -11Q172 -11 137 34T101 146Q101 260 177 351T333 442Q343 442 352 441T369 437T382 431T393 425T402 417T409 410T414 402T419 396Q423 406 436 414T461 422Q475 422 484 413T494 395Q494 384 459 244T420 88Q418 80 418 58V53ZM397 323Q397 344 382 374T333 405Q302 405 271 372Q249 349 235 316T203 215Q184 135 184 108V100V94Q184 54 207 35Q218 26 235 26Q279 26 330 91Q343 109 346 118T372 217Q397 317 397 323Z"></path>
<path stroke-width="10" id="E1-MJMAINI-62" d="M158 683Q163 683 223 688T300 694Q312 694 312 685T279 544Q243 405 243 403L256 412Q268 422 292 432T338 442Q395 442 431 398T467 284Q467 175 393 82T229 -11Q175 -11 142 32T108 142Q108 176 115 207T166 412Q177 458 190 510T209 588T216 616Q216 629 209 632T170 637H149Q143 643 143 645T145 664Q150 683 158 683ZM178 109Q178 27 234 27Q247 27 254 29Q295 44 323 94Q343 129 363 208T384 332Q384 354 382 361Q369 405 332 405Q282 405 228 326L222 317L205 250Q178 142 178 109Z"></path>
<path stroke-width="10" id="E1-MJMAINI-63" d="M257 -10Q183 -10 143 37T103 155Q103 257 173 341T337 440Q341 441 348 441H358Q421 441 445 415T469 356Q469 320 450 305T410 289Q392 289 381 299T370 325Q370 362 404 378L414 383Q392 402 365 405Q322 405 285 375T227 294Q217 271 202 213T187 119Q187 27 263 27Q299 27 330 40Q361 51 386 71T424 106T440 121Q444 121 455 110T466 96Q466 92 458 81T432 54T390 24T331 0T257 -10Z"></path>
<path stroke-width="10" id="E1-MJMAINI-64" d="M418 54Q418 26 438 26Q466 26 494 131Q500 151 504 152Q507 153 516 153H521H526Q543 153 543 144Q543 143 541 129Q531 91 521 65T487 14T434 -11T383 3T354 30T347 48H346Q345 47 342 45T337 40Q282 -11 228 -11Q172 -11 137 34T101 146Q101 255 174 348T337 441Q354 441 368 437T390 427T404 414T413 404T417 400L471 616Q471 629 464 632T425 637H404Q398 643 398 645T400 664Q405 683 413 683Q418 683 478 688T555 694Q567 694 567 686Q567 676 495 389L419 86Q418 80 418 61V54ZM397 323Q397 329 394 340T385 367T365 394T333 405Q302 405 271 372Q249 349 235 316T203 215Q184 135 184 108V100Q184 71 191 56Q204 26 235 26Q267 26 300 57T344 112Q347 117 372 217T397 323Z"></path>
<path stroke-width="10" id="E1-MJMAINI-65" d="M107 166Q107 230 131 283T193 369T270 420T345 441Q346 441 352 441T361 442H364Q409 442 439 418T470 355Q470 270 366 239Q308 223 218 223H205Q189 164 189 125Q189 83 206 55T261 27Q309 27 353 50T426 109Q436 121 440 121T453 111T466 97Q469 92 455 77Q424 41 372 16T258 -10Q184 -10 146 41T107 166ZM416 333T416 354T401 390T360 405Q322 405 292 384T246 336T223 288T215 261Q215 260 240 260Q262 261 276 262T314 266T353 275T384 291T408 317Z"></path>
<path stroke-width="10" id="E1-MJMAINI-66" d="M351 608Q351 642 389 661Q368 668 365 668Q358 668 352 664Q349 663 347 661T342 654T337 647T333 637T330 627T327 614T324 601T321 587T318 571L291 432Q291 431 343 431H394Q400 426 400 423T398 404Q394 390 389 386L335 385H282L255 246Q212 20 189 -51Q136 -199 58 -204Q22 -204 0 -185T-23 -134Q-23 -100 -3 -85T37 -69Q54 -69 65 -80T76 -108Q76 -115 75 -119Q70 -134 61 -144T46 -158L39 -161Q39 -162 42 -163T50 -166T61 -168Q77 -168 91 -145Q98 -128 105 -95L125 -1Q145 90 146 98Q149 109 163 180T189 317T202 384T158 385H114Q108 390 108 393T110 412Q113 424 120 431H165Q211 431 211 433Q213 435 219 473T237 561T266 639Q282 667 310 686T367 705Q402 705 426 686T450 635Q450 600 430 585T390 569Q373 569 362 580T351 608Z"></path>
<path stroke-width="10" id="E1-MJMAINI-31" d="M248 491Q228 491 228 502Q228 516 236 532Q237 536 246 537T275 541T314 552Q350 567 382 595T430 644L446 664Q450 666 454 666Q468 666 468 658Q468 647 395 359Q321 63 321 59Q321 52 334 50T388 46H422Q428 37 428 35Q428 19 421 5Q416 0 405 0Q400 0 361 1T263 2Q215 2 185 2T142 1T127 0Q110 0 110 11Q110 13 113 25T118 40Q120 46 146 46Q196 46 212 49T235 61Q238 66 295 295L353 526L340 519Q328 512 302 503T248 491Z"></path>
<path stroke-width="10" id="E1-MJMAINI-32" d="M159 404Q159 433 176 476T222 562T297 635T395 666Q466 666 508 617T551 497Q551 473 545 446Q534 388 482 333Q441 292 355 240T264 184Q216 151 179 101L171 91Q171 90 177 90Q206 90 269 77T366 64Q385 64 390 65Q418 73 441 98T475 156Q479 168 481 170T495 173H518Q524 167 524 166T521 152Q502 86 459 32T353 -22Q315 -22 259 15T172 53Q156 53 143 36T126 1L121 -16Q119 -22 98 -22H82Q76 -16 76 -13T80 5T98 50T132 111T189 178T274 242Q327 273 364 305T420 370T447 427T460 483Q466 514 466 538Q466 586 443 607T389 629Q338 629 293 584T226 487T204 399Q204 390 204 386T209 378T222 373Q258 376 282 422T307 493Q307 506 302 517T297 531Q297 537 308 546T327 551Q329 550 333 543T340 523T344 497Q344 450 306 393T216 336Q186 336 173 355T159 396V404Z"></path>
<path stroke-width="10" id="E1-MJMAINI-33" d="M296 531Q296 536 307 544T322 553Q330 553 338 534T346 501Q346 468 319 440T258 412Q232 412 216 430T200 478Q200 552 281 618Q345 666 416 666Q489 666 525 625T562 530Q562 473 525 419T430 335L416 329Q479 288 479 206Q479 142 440 89T344 7T229 -22Q173 -22 135 12T96 106Q96 192 157 192Q192 192 197 157Q197 134 184 117T142 96Q153 47 180 29Q201 15 232 15Q249 15 275 22Q307 34 331 57Q363 90 379 153T396 246Q396 261 393 272T384 290T371 301T355 308T341 311T326 312H316H307Q287 312 282 313T276 320Q276 323 279 337T283 352Q284 356 290 357T325 358Q364 359 368 360Q386 365 400 372T433 397T464 448T485 527Q487 535 487 556Q487 629 414 629Q350 629 298 580T245 476Q245 450 263 450H264Q280 450 294 463T308 496Q308 508 302 518T296 531Z"></path>
<path stroke-width="10" id="E1-MJMAINI-34" d="M448 34Q453 34 463 22T473 5Q473 -2 457 -7Q417 -22 383 -23H366L350 -91Q348 -98 345 -111T340 -130T335 -146T330 -161T325 -172T318 -182T310 -188T299 -193T286 -194Q256 -194 253 -165Q253 -159 271 -83T292 -5Q231 29 169 29Q114 29 91 14Q72 -2 65 1Q46 20 46 28Q46 35 55 43T77 60T96 74Q306 257 396 623Q410 666 444 666Q459 666 468 657T478 634Q478 627 470 595T440 504T387 381T303 239T187 99L164 75H178Q217 75 260 59L304 43Q304 48 325 127Q342 195 346 207T358 228Q372 242 391 242Q403 242 413 235T423 214Q423 205 402 116T378 25Q378 23 387 23Q405 23 418 25T439 31T448 34Z"></path>
<path stroke-width="10" id="E1-MJMAINI-35" d="M196 304Q189 309 189 314Q189 317 231 487T275 660Q278 666 283 666Q287 666 302 658T346 643T413 635Q447 635 481 642T537 658T559 666Q561 666 564 663T567 658Q565 637 557 629Q528 600 474 573T359 545Q342 545 327 546T304 550T294 552L291 540Q288 529 283 507T273 465L251 379Q307 420 364 420Q415 420 456 382T497 261Q497 165 429 82T262 -20Q256 -20 247 -21T233 -22Q176 -22 141 15T106 112Q106 208 173 208Q192 208 203 197T214 169Q214 143 195 125T156 107H153V100Q155 73 174 47T239 21Q245 21 259 23Q355 46 392 200Q393 205 394 207Q412 276 412 312Q412 352 396 367T358 383Q288 383 233 314Q226 306 224 305T209 304H196Z"></path>
<path stroke-width="10" id="E1-MJMAINI-36" d="M377 434Q425 434 457 404T499 341T509 278Q509 243 496 194T456 105T383 27Q322 -22 256 -22Q142 -22 122 114Q120 130 120 159Q120 221 135 292T195 452T310 599Q390 665 465 665Q565 665 565 583V574Q565 543 546 524Q528 506 504 506Q491 506 478 514T465 543Q465 585 515 602Q505 626 466 626Q419 626 372 587Q334 557 305 503T266 409L255 370Q287 410 339 429Q361 434 377 434ZM424 333Q424 359 411 378T365 397Q318 397 282 356T230 257T205 157T197 94Q197 67 211 45T260 22Q313 22 341 57T386 151Q424 283 424 333Z"></path>
</defs>
<g stroke="currentColor" fill="currentColor" stroke-width="0" transform="matrix(1 0 0 -1 0 0)">
 <use xlink:href="#E1-MJMAINI-41" x="0" y="0"></use>
 <use xlink:href="#E1-MJMAINI-42" x="748" y="0"></use>
 <use xlink:href="#E1-MJMAINI-43" x="1457" y="0"></use>
 <use xlink:href="#E1-MJMAINI-44" x="2178" y="0"></use>
 <use xlink:href="#E1-MJMAINI-45" x="2938" y="0"></use>
 <use xlink:href="#E1-MJMAINI-46" x="3621" y="0"></use>
 <use xlink:href="#E1-MJMAINI-61" x="4529" y="0"></use>
 <use xlink:href="#E1-MJMAINI-62" x="5045" y="0"></use>
 <use xlink:href="#E1-MJMAINI-63" x="5510" y="0"></use>
 <use xlink:href="#E1-MJMAINI-64" x="5975" y="0"></use>
 <use xlink:href="#E1-MJMAINI-65" x="6491" y="0"></use>
 <use xlink:href="#E1-MJMAINI-66" x="6956" y="0"></use>
<g transform="translate(7518,0)">
 <use xlink:href="#E1-MJMAINI-31"></use>
 <use xlink:href="#E1-MJMAINI-32" x="516" y="0"></use>
 <use xlink:href="#E1-MJMAINI-33" x="1032" y="0"></use>
 <use xlink:href="#E1-MJMAINI-34" x="1548" y="0"></use>
 <use xlink:href="#E1-MJMAINI-35" x="2064" y="0"></use>
 <use xlink:href="#E1-MJMAINI-36" x="2580" y="0"></use>
</g>
</g>
</svg>