<?xml version="1.0" standalone="no"?>
<!DOCTYPE svg PUBLIC "-//W3C//DTD SVG 1.1//EN" "http://www.w3.org/Graphics/SVG/1.1/DTD/svg11.dtd">
<svg xmlns:xlink="http://www.w3.org/1999/xlink" width="1.69ex" height="2.343ex" style="vertical-align: -0.338ex;" viewBox="0 -863.1 727.7 1008.6" xmlns="http://www.w3.org/2000/svg">
<defs>
<path stroke-width="10" id="E1-MJAMS-F0" d="M75 566V604Q75 624 79 629T102 635Q124 635 127 629T131 588L133 550L191 588L249 628L231 635Q176 654 124 657Q116 657 106 658L95 659Q94 661 94 687T95 715Q99 717 113 717Q195 717 282 679L309 668L331 681Q351 697 391 721Q428 748 435 748Q437 749 446 749Q470 749 473 746Q478 744 478 681V621Q466 615 456 615Q435 615 424 624L422 661V699L382 675L344 648Q353 639 366 630Q480 538 504 413Q509 393 509 333V313Q509 284 507 257T495 184T466 102T413 33T329 -16Q311 -21 275 -21Q226 -21 195 -10Q150 7 110 50T53 141Q42 179 42 227Q42 332 101 403T245 474Q282 474 314 461T359 436T380 415Q386 405 389 408Q389 426 378 475Q368 505 355 529T329 567T306 590T288 603L282 606L120 501Q116 500 102 500Q84 500 75 506V566ZM388 225Q388 376 309 410Q299 416 273 419Q216 419 191 390Q174 371 168 342T162 218Q162 112 184 79Q212 39 273 39Q312 39 342 62T380 121Q388 159 388 225Z"></path>
</defs>
<g stroke="currentColor" fill="currentColor" stroke-width="0" transform="matrix(1 0 0 -1 0 0)">
 <use xlink:href="#E1-MJAMS-F0" x="0" y="0"></use>
</g>
</svg>