<?xml version="1.0" standalone="no"?>
<!DOCTYPE svg PUBLIC "-//W3C//DTD SVG 1.1//EN" "http://www.w3.org/Graphics/SVG/1.1/DTD/svg11.dtd">
<svg xmlns:xlink="http://www.w3.org/1999/xlink" width="1.818ex" height="2.176ex" style="vertical-align: -0.338ex;" viewBox="0 -791.3 782.7 936.9" xmlns="http://www.w3.org/2000/svg">
<defs>
<path stroke-width="10" id="E1-MJMAIN-22A2" d="M55 678Q55 679 56 681T58 684T61 688T65 691T70 693T77 694Q88 692 95 679V367H540Q555 359 555 347Q555 334 540 327H95V15Q88 2 77 0Q73 0 70 1T65 3T61 6T59 9T57 13T55 16V678Z"></path>
</defs>
<g stroke="currentColor" fill="currentColor" stroke-width="0" transform="matrix(1 0 0 -1 0 0)">
 <use xlink:href="#E1-MJMAIN-22A2" x="0" y="0"></use>
</g>
</svg>