<?xml version="1.0" standalone="no"?>
<!DOCTYPE svg PUBLIC "-//W3C//DTD SVG 1.1//EN" "http://www.w3.org/Graphics/SVG/1.1/DTD/svg11.dtd">
<svg xmlns:xlink="http://www.w3.org/1999/xlink" width="1.56ex" height="1.509ex" style="vertical-align: -0.171ex;" viewBox="0 -576.1 671.7 649.8" xmlns="http://www.w3.org/2000/svg">
<defs>
<path stroke-width="10" id="E1-MJMAIN-22C6" d="M210 282Q210 284 225 381T241 480Q241 484 245 484Q249 486 251 486Q258 486 260 477T272 406Q275 390 276 380Q290 286 290 282L388 299Q484 314 487 314H488Q497 314 497 302Q497 297 434 266Q416 257 404 251L315 206L361 118Q372 98 383 75T401 40L407 28Q407 16 395 16Q394 16 392 16L390 17L250 159L110 17L108 16Q106 16 105 16Q93 16 93 28L99 40Q105 52 116 75T139 118L185 206L96 251Q6 296 4 300Q3 301 3 302Q3 314 12 314H13Q16 314 112 299L210 282Z"></path>
</defs>
<g stroke="currentColor" fill="currentColor" stroke-width="0" transform="matrix(1 0 0 -1 0 0)">
 <use xlink:href="#E1-MJMAIN-22C6" x="0" y="0"></use>
</g>
</svg>