<?xml version="1.0" standalone="no"?>
<!DOCTYPE svg PUBLIC "-//W3C//DTD SVG 1.1//EN" "http://www.w3.org/Graphics/SVG/1.1/DTD/svg11.dtd">
<svg xmlns:xlink="http://www.w3.org/1999/xlink" width="2.721ex" height="2.176ex" style="vertical-align: -0.505ex;" viewBox="0 -719.6 1171.7 936.9" xmlns="http://www.w3.org/2000/svg">
<defs>
<path stroke-width="10" id="E1-MJMAIN-226A" d="M639 -48Q639 -54 634 -60T619 -67H618Q612 -67 536 -26Q430 33 329 88Q61 235 59 239Q56 243 56 250T59 261Q62 266 336 415T615 567L619 568Q622 567 625 567Q639 562 639 548Q639 540 633 534Q632 532 374 391L117 250L374 109Q632 -32 633 -34Q639 -40 639 -48ZM944 -48Q944 -54 939 -60T924 -67H923Q917 -67 841 -26Q735 33 634 88Q366 235 364 239Q361 243 361 250T364 261Q367 266 641 415T920 567L924 568Q927 567 930 567Q944 562 944 548Q944 540 938 534Q937 532 679 391L422 250L679 109Q937 -32 938 -34Q944 -40 944 -48Z"></path>
</defs>
<g stroke="currentColor" fill="currentColor" stroke-width="0" transform="matrix(1 0 0 -1 0 0)">
 <use xlink:href="#E1-MJMAIN-226A" x="0" y="0"></use>
</g>
</svg>