<?xml version="1.0" standalone="no"?>
<!DOCTYPE svg PUBLIC "-//W3C//DTD SVG 1.1//EN" "http://www.w3.org/Graphics/SVG/1.1/DTD/svg11.dtd">
<svg xmlns:xlink="http://www.w3.org/1999/xlink" width="2.141ex" height="2.176ex" style="vertical-align: -0.338ex;" viewBox="0 -791.3 921.7 936.9" xmlns="http://www.w3.org/2000/svg">
<defs>
<path stroke-width="10" id="E1-MJMAIN-2A3F" d="M28 660Q28 676 31 679T46 683H50Q87 681 182 681Q217 681 247 681T294 682T315 682Q321 682 323 682T328 679T331 673T332 660Q332 643 328 640T304 637Q239 637 231 626Q229 620 229 334V46H520V334Q520 620 518 626Q510 637 445 637Q426 637 422 640T417 660Q417 675 420 678T432 682H435Q437 682 467 682T569 681T671 681T703 682Q714 682 717 679T721 660Q721 643 717 640T693 637Q628 637 620 626Q619 623 619 342Q619 60 620 57Q628 46 693 46Q714 46 717 43T721 23Q721 5 715 1Q713 0 374 0Q36 0 34 1Q28 5 28 23Q28 40 31 43T56 46Q121 46 129 57Q131 63 131 342Q131 620 129 626Q121 637 56 637Q35 637 32 640T28 660Z"></path>
</defs>
<g stroke="currentColor" fill="currentColor" stroke-width="0" transform="matrix(1 0 0 -1 0 0)">
 <use xlink:href="#E1-MJMAIN-2A3F" x="0" y="0"></use>
</g>
</svg>