<?xml version="1.0" standalone="no"?>
<!DOCTYPE svg PUBLIC "-//W3C//DTD SVG 1.1//EN" "http://www.w3.org/Graphics/SVG/1.1/DTD/svg11.dtd">
<svg xmlns:xlink="http://www.w3.org/1999/xlink" width="2.206ex" height="1.843ex" style="vertical-align: -0.338ex;" viewBox="0 -647.8 949.7 793.3" xmlns="http://www.w3.org/2000/svg">
<defs>
<path stroke-width="10" id="E1-MJMAIN-F7" d="M318 466Q318 500 339 518T386 537Q418 537 438 517T458 466Q458 438 440 417T388 396Q355 396 337 417T318 466ZM56 237T56 250T70 270H706Q721 262 721 250T706 230H70Q56 237 56 250ZM318 34Q318 68 339 86T386 105Q418 105 438 85T458 34Q458 6 440 -15T388 -36Q355 -36 337 -15T318 34Z"></path>
</defs>
<g stroke="currentColor" fill="currentColor" stroke-width="0" transform="matrix(1 0 0 -1 0 0)">
 <use xlink:href="#E1-MJMAIN-F7" x="0" y="0"></use>
</g>
</svg>