<?xml version="1.0" standalone="no"?>
<!DOCTYPE svg PUBLIC "-//W3C//DTD SVG 1.1//EN" "http://www.w3.org/Graphics/SVG/1.1/DTD/svg11.dtd">
<svg xmlns:xlink="http://www.w3.org/1999/xlink" width="3.521ex" height="3.843ex" style="vertical-align: -1.338ex;" viewBox="0 -1078.4 1516 1654.5" xmlns="http://www.w3.org/2000/svg">
<defs>
<path stroke-width="10" id="E1-MJSZ2-2A00" d="M668 944Q697 949 744 949Q803 949 814 948Q916 937 1006 902T1154 826T1262 730T1336 638T1380 563Q1454 415 1454 250Q1454 113 1402 -14T1258 -238T1036 -391T755 -449Q608 -449 477 -392T255 -240T110 -16T56 250Q56 387 105 510T239 723T434 871T668 944ZM755 -352Q922 -352 1061 -269T1278 -48T1356 250Q1356 479 1202 652T809 850Q798 851 747 851Q634 851 527 806T337 682T204 491T154 251Q154 128 201 17T329 -176T521 -304T755 -352ZM665 250Q665 290 692 315T758 341Q792 339 818 315T845 250Q845 211 819 186T755 160Q716 160 691 186T665 250Z"></path>
</defs>
<g stroke="currentColor" fill="currentColor" stroke-width="0" transform="matrix(1 0 0 -1 0 0)">
 <use xlink:href="#E1-MJSZ2-2A00" x="0" y="0"></use>
</g>
</svg>