<?xml version="1.0" standalone="no"?>
<!DOCTYPE svg PUBLIC "-//W3C//DTD SVG 1.1//EN" "http://www.w3.org/Graphics/SVG/1.1/DTD/svg11.dtd">
<svg xmlns:xlink="http://www.w3.org/1999/xlink" width="5.261ex" height="3.509ex" style="vertical-align: -0.338ex;" viewBox="0 -1365.4 2265 1510.9" xmlns="http://www.w3.org/2000/svg">
<defs>
<path stroke-width="10" id="E1-MJMATHI-41" d="M208 74Q208 50 254 46Q272 46 272 35Q272 34 270 22Q267 8 264 4T251 0Q249 0 239 0T205 1T141 2Q70 2 50 0H42Q35 7 35 11Q37 38 48 46H62Q132 49 164 96Q170 102 345 401T523 704Q530 716 547 716H555H572Q578 707 578 706L606 383Q634 60 636 57Q641 46 701 46Q726 46 726 36Q726 34 723 22Q720 7 718 4T704 0Q701 0 690 0T651 1T578 2Q484 2 455 0H443Q437 6 437 9T439 27Q443 40 445 43L449 46H469Q523 49 533 63L521 213H283L249 155Q208 86 208 74ZM516 260Q516 271 504 416T490 562L463 519Q447 492 400 412L310 260L413 259Q516 259 516 260Z"></path>
<path stroke-width="10" id="E1-MJMAIN-2322" d="M55 141Q55 149 72 174T125 234T209 303T329 360T478 388H526Q649 383 765 319Q814 291 858 250T923 179T944 141Q944 133 938 128T924 122Q914 124 912 125T902 139Q766 328 500 328Q415 328 342 308T225 258T150 199T102 148T84 124Q81 122 75 122Q55 127 55 141Z"></path>
</defs>
<g stroke="currentColor" fill="currentColor" stroke-width="0" transform="matrix(1 0 0 -1 0 0)">
 <use xlink:href="#E1-MJMATHI-41" x="0" y="0"></use>
 <use xlink:href="#E1-MJMATHI-41" x="755" y="0"></use>
 <use xlink:href="#E1-MJMATHI-41" x="1510" y="0"></use>
 <use transform="scale(0.707)" xlink:href="#E1-MJMAIN-2322" x="1099" y="1197"></use>
</g>
</svg>