<?xml version="1.0" standalone="no"?>
<!DOCTYPE svg PUBLIC "-//W3C//DTD SVG 1.1//EN" "http://www.w3.org/Graphics/SVG/1.1/DTD/svg11.dtd">
<svg xmlns:xlink="http://www.w3.org/1999/xlink" width="23.706ex" height="2.009ex" style="vertical-align: -0.338ex;" viewBox="0 -719.6 10206.7 865.1" xmlns="http://www.w3.org/2000/svg">
<defs>
<path stroke-width="10" id="E1-MJTT-41" d="M191 76Q212 75 220 68T229 38Q229 10 208 1H129H80Q48 1 38 7T28 38Q28 51 29 57T40 69T70 76Q89 76 89 78Q90 79 117 205T173 461T205 599Q212 623 250 623H262H273Q312 623 319 599Q322 591 350 461T406 205T435 78Q435 76 454 76H458Q484 76 493 59Q496 53 496 38Q496 11 478 3Q474 1 395 1H317Q295 8 295 38Q295 65 311 73Q316 75 333 76L348 77V78Q348 80 341 112L334 143H190L183 112Q176 80 176 78Q175 76 178 76Q180 76 191 76ZM318 221Q313 238 288 366T263 519Q263 526 262 527Q261 527 261 520Q261 493 236 365T206 221Q206 219 262 219T318 221Z"></path>
<path stroke-width="10" id="E1-MJTT-42" d="M39 1Q17 10 17 32V38V46Q17 65 34 73Q40 76 61 76H84V535H61H54Q27 535 19 553Q17 557 17 573Q17 583 17 587T23 599T39 610Q40 611 179 611Q320 610 332 607Q332 607 339 605Q394 591 427 547T461 454Q461 413 436 378T369 325L358 320Q405 311 443 270T482 169Q482 112 445 64T345 3L334 1H39ZM309 533Q302 535 234 535H168V356H230Q284 357 296 358T323 368Q346 380 361 402T377 452Q377 482 358 505T309 533ZM398 176Q396 218 371 246T315 279Q310 280 237 280H168V76H239Q316 77 327 81Q329 82 334 84Q398 107 398 176Z"></path>
<path stroke-width="10" id="E1-MJTT-43" d="M40 305Q40 437 110 529T281 622Q315 622 343 611T387 589T404 578Q409 585 415 596T425 611T435 618T452 622Q472 622 478 609T485 566Q485 559 485 540T484 508V460Q484 413 478 403T442 393Q417 393 409 402Q400 409 400 420Q400 428 395 445T380 487T347 528T295 546Q235 546 180 483T124 306Q124 245 141 197T186 121T241 80T296 66Q346 66 373 103T400 178Q400 209 435 209H442H450Q484 209 484 172Q480 96 421 43T281 -11Q177 -11 109 84T40 305Z"></path>
<path stroke-width="10" id="E1-MJTT-44" d="M38 1Q16 8 16 38Q16 62 32 73Q39 76 58 76H78V535H58Q40 535 32 538Q16 548 16 573Q16 587 17 591Q23 604 34 607T83 611H166H176Q188 611 209 611T239 612Q299 612 337 597T415 530Q485 438 485 300Q485 180 431 100T301 3L291 1H38ZM400 301Q400 363 385 410T346 482T303 519T267 534Q261 535 210 535H162V76H214L267 77Q323 89 361 148T400 301Z"></path>
<path stroke-width="10" id="E1-MJTT-45" d="M374 271Q374 241 367 232T332 223Q307 223 299 231Q290 240 290 263V279H173V76H418V118V144Q418 167 426 176T460 186Q491 186 500 166Q502 161 502 93V52Q502 25 499 17T480 1H41Q19 9 19 32V38Q19 63 36 73Q42 76 65 76H89V535H65H55Q44 535 38 537T25 548T19 573Q19 602 41 610H47Q53 610 63 610T88 610T121 610T160 611T204 611T251 611H458Q460 609 465 606T471 602T475 598T478 593T479 586T480 576T480 562V526V488Q480 452 462 444Q458 442 438 442Q413 442 405 450Q398 457 397 463T396 501V535H173V355H290V371Q290 394 299 403T332 412Q363 412 372 392Q374 387 374 317V271Z"></path>
<path stroke-width="10" id="E1-MJTT-46" d="M384 260Q384 230 377 221T342 212Q317 212 309 220Q300 229 300 252V268H179V76H249Q264 67 267 61T271 38Q271 10 249 1H44Q22 9 22 32V38Q22 63 39 73Q45 76 69 76H95V535H69H59Q42 535 32 542T22 573Q22 602 44 610H50Q56 610 66 610T91 610T125 610T164 611T208 611T257 611H468Q470 609 475 606T481 602T485 598T488 593T489 586T490 576T490 562V526V488Q490 452 472 444Q468 442 448 442Q423 442 415 450Q408 457 407 463T406 501V535H179V344H300V360Q300 383 309 392T342 401Q373 401 382 381Q384 376 384 306V260Z"></path>
<path stroke-width="10" id="E1-MJTT-61" d="M126 306Q105 306 90 321T74 359Q74 439 211 439Q268 439 276 438Q343 426 383 390T430 306Q431 301 431 190V81Q446 79 465 78T492 76T509 72T521 60T524 38Q524 11 506 3Q502 1 466 1Q426 1 406 5T379 14T355 36L345 30Q284 -6 205 -6Q135 -6 92 39T48 141Q48 182 79 212T158 256T252 278T342 285H347V290Q347 315 325 335T267 362Q258 363 224 363Q189 363 185 362H179L178 358Q178 353 178 352T176 345T174 337T170 330T165 322T158 316T150 311T139 308T126 306ZM132 140Q132 115 157 93T224 70Q269 70 302 87T344 133Q346 139 347 175V211H339Q256 209 194 190T132 140Z"></path>
<path stroke-width="10" id="E1-MJTT-62" d="M4 573Q4 596 15 603T52 611H90H124Q146 611 155 608T171 591Q173 586 173 491V396L182 402Q217 424 256 431Q280 437 309 437Q376 437 434 379T492 217Q492 162 473 118T422 47T358 8T293 -6Q229 -6 174 38Q171 13 163 7T135 1H131H122Q99 1 90 23L89 279V535H58L27 536Q4 543 4 573ZM409 215Q409 269 377 315T283 361Q255 361 224 344T177 297L173 290V167Q189 124 213 97T278 70Q330 70 369 111T409 215Z"></path>
<path stroke-width="10" id="E1-MJTT-63" d="M291 -6Q196 -6 131 60T66 216Q66 296 119 361Q154 403 200 421T273 439Q275 440 293 440H313Q400 440 433 409Q454 388 454 359Q454 335 439 321T402 306Q380 306 365 321T350 357V362L340 363Q339 363 326 363T303 364Q280 364 266 362Q217 352 184 313T151 215Q151 153 199 112T313 70Q341 70 357 85T381 118T394 140Q402 146 424 146Q443 146 447 144Q466 137 466 117Q466 106 457 88T429 47T374 10T291 -6Z"></path>
<path stroke-width="10" id="E1-MJTT-64" d="M266 573Q266 596 277 603T314 611H352H385Q411 611 419 607T435 586V76H498Q512 67 516 60T520 38Q520 9 498 1H436Q429 1 417 1T398 0Q375 0 363 7T351 34V43L342 36Q288 -6 223 -6Q143 -6 87 58T31 216Q31 307 88 372T230 437Q292 437 342 405L351 399V535H320L289 536Q266 543 266 573ZM351 290Q347 302 337 316T302 346T244 361Q193 361 154 319T115 215Q115 152 152 111T235 70Q314 70 351 170V290Z"></path>
<path stroke-width="10" id="E1-MJTT-65" d="M48 217Q48 295 100 361T248 439L258 440Q268 440 274 440Q329 438 369 416T428 359T456 292T464 228Q464 215 461 208T454 198T442 190L288 189H135L138 179Q153 132 199 102T303 71Q336 71 353 86T380 120T398 143Q404 146 422 146Q453 146 462 126Q464 120 464 116Q464 84 416 39T285 -6Q187 -6 118 59T48 217ZM377 264Q371 291 365 306T341 338T294 362Q288 363 264 363Q225 363 190 336T139 264H377Z"></path>
<path stroke-width="10" id="E1-MJTT-66" d="M43 395Q44 405 44 408T47 416T53 423T66 431H176V461Q176 500 182 518Q201 570 252 593T353 617Q399 614 418 593T437 548Q437 528 424 514T387 499Q365 499 353 511T338 537V541H328Q275 536 261 494Q260 490 260 460V431H327Q334 431 346 431T364 432Q392 432 404 425T416 393T405 362T365 355H327H260V76H319Q375 76 388 71T401 38Q401 27 400 23T395 12T379 1H58Q47 6 42 12T36 23T35 38Q35 65 53 73Q59 76 117 76H176V355H121H93Q64 355 54 362T43 395Z"></path>
<path stroke-width="10" id="E1-MJTT-31" d="M99 461Q99 470 99 474T104 487T120 498T151 502Q213 517 251 596Q264 622 283 622Q308 622 319 597V76H373H401Q428 76 439 69T450 38Q450 11 428 1H127Q104 10 104 38Q104 62 115 69T153 76H181H235V269Q235 461 234 461Q184 426 137 424H133Q124 424 119 425T109 431T99 447V461Z"></path>
<path stroke-width="10" id="E1-MJTT-32" d="M52 462Q52 528 110 575T247 622H250Q343 622 407 565T472 421Q472 371 446 324T390 248T308 178Q307 177 275 151T214 101L185 77Q185 76 286 76H388V87Q388 105 397 114T430 123T463 114Q470 107 471 100T472 61V42Q472 24 468 16T450 1H75Q53 10 53 32V38V48Q53 57 63 67T127 122Q153 144 169 157L289 256Q388 345 388 419Q388 473 346 509T231 545H224Q176 545 146 499L144 494Q155 476 155 459Q154 459 155 455T154 444T148 430T136 417T114 408Q113 408 110 408T104 407Q80 407 66 422T52 462Z"></path>
<path stroke-width="10" id="E1-MJTT-33" d="M260 546Q233 546 211 541T180 531T171 524L174 514Q177 505 177 497Q177 476 162 461T125 446Q106 446 90 459T73 504Q76 540 98 565T150 601T203 616T239 621Q241 622 265 622Q322 620 362 602T420 558T444 513T451 478Q451 386 369 329L375 326Q381 323 386 320T401 311T419 298T436 283T452 263T466 240T475 212T479 180Q479 99 416 44T259 -11T105 28T44 130Q44 154 59 168T95 183Q117 183 132 169T148 131Q148 119 139 101Q175 65 260 65Q316 65 355 97T395 179Q395 211 375 240Q336 292 253 292H234H215Q194 292 185 299T175 330Q175 350 184 359Q192 368 238 370T309 384Q336 398 351 423T367 474Q367 496 350 513Q321 546 260 546Z"></path>
<path stroke-width="10" id="E1-MJTT-34" d="M235 1Q213 10 213 32V38V46Q213 65 230 73Q236 76 274 76H314V168H183L52 169Q37 175 33 182T29 205V218L30 244Q53 283 155 443T264 613Q276 623 298 623H323H363Q378 616 385 601V244H429H450Q474 244 484 237T495 206Q495 179 477 171Q471 168 429 168H385V76H425H442Q466 76 476 69T487 38Q487 10 465 1H235ZM314 244V554L117 245L215 244H314Z"></path>
<path stroke-width="10" id="E1-MJTT-35" d="M387 189Q387 244 354 278T273 313Q230 313 205 301T163 271T138 249H120Q102 249 97 251Q85 258 83 266T80 311Q80 320 80 359T81 430Q81 587 82 591Q88 605 103 610H108Q112 610 120 610T138 610T163 610T192 611T225 611T260 611H415Q416 610 421 607T428 602T432 596T436 587T437 573Q437 567 437 562T434 554T431 548T427 543T423 540T418 538L415 536L289 535H164V363L170 366Q175 368 184 372T207 380T238 386T276 389Q357 389 414 331T472 187Q472 116 412 53T245 -10Q218 -10 209 -9Q126 5 89 48T52 137Q52 164 68 177T104 191Q130 191 143 175T156 141Q156 132 154 125T149 113T146 107Q146 104 155 95T188 76T245 65Q298 65 342 98T387 189Z"></path>
<path stroke-width="10" id="E1-MJTT-36" d="M357 536Q357 546 318 546Q258 546 205 497T133 357V353L144 361Q210 402 285 402Q362 402 414 350Q479 285 479 193Q479 111 418 50T263 -11Q234 -11 207 -3T149 26T97 81T60 171T45 301Q45 444 129 533T319 622Q388 622 421 589T454 510Q454 491 442 475T402 458Q373 458 362 475T350 510Q350 520 354 528L357 536ZM319 326T269 326T179 298T136 223Q136 202 143 174T176 112T237 68Q246 66 265 66Q319 66 360 107Q395 146 395 197Q395 250 356 289Q319 326 269 326Z"></path>
</defs>
<g stroke="currentColor" fill="currentColor" stroke-width="0" transform="matrix(1 0 0 -1 0 0)">
 <use xlink:href="#E1-MJTT-41" x="0" y="0"></use>
 <use xlink:href="#E1-MJTT-42" x="530" y="0"></use>
 <use xlink:href="#E1-MJTT-43" x="1060" y="0"></use>
 <use xlink:href="#E1-MJTT-44" x="1590" y="0"></use>
 <use xlink:href="#E1-MJTT-45" x="2120" y="0"></use>
 <use xlink:href="#E1-MJTT-46" x="2650" y="0"></use>
 <use xlink:href="#E1-MJTT-61" x="3430" y="0"></use>
 <use xlink:href="#E1-MJTT-62" x="3960" y="0"></use>
 <use xlink:href="#E1-MJTT-63" x="4490" y="0"></use>
 <use xlink:href="#E1-MJTT-64" x="5020" y="0"></use>
 <use xlink:href="#E1-MJTT-65" x="5550" y="0"></use>
 <use xlink:href="#E1-MJTT-66" x="6080" y="0"></use>
<g transform="translate(6860,0)">
 <use xlink:href="#E1-MJTT-31"></use>
 <use xlink:href="#E1-MJTT-32" x="530" y="0"></use>
 <use xlink:href="#E1-MJTT-33" x="1060" y="0"></use>
 <use xlink:href="#E1-MJTT-34" x="1590" y="0"></use>
 <use xlink:href="#E1-MJTT-35" x="2120" y="0"></use>
 <use xlink:href="#E1-MJTT-36" x="2650" y="0"></use>
</g>
</g>
</svg>