<?xml version="1.0" standalone="no"?>
<!DOCTYPE svg PUBLIC "-//W3C//DTD SVG 1.1//EN" "http://www.w3.org/Graphics/SVG/1.1/DTD/svg11.dtd">
<svg xmlns:xlink="http://www.w3.org/1999/xlink" width="24.895ex" height="2.676ex" style="vertical-align: -0.838ex;" viewBox="0 -791.3 10718.7 1152.1" xmlns="http://www.w3.org/2000/svg">
<defs>
<path stroke-width="10" id="E1-MJFRAK-41" d="M22 505Q22 563 94 624T271 685H280Q416 685 443 560Q447 535 447 504Q444 414 405 330L399 319L229 155Q233 154 241 153T253 150T265 145T281 135T301 119T328 93L357 64L402 92Q438 116 473 137L500 154V339Q500 528 495 593V601L559 649Q621 696 624 696L638 686L629 677Q599 650 593 638Q582 614 581 504Q580 490 580 443Q580 314 584 238Q584 235 584 224T584 210T585 199T586 187T588 176T591 164T595 152T601 137T609 121Q630 77 640 77Q661 77 703 101Q704 95 706 90L707 86V84L636 29Q618 15 601 2T574 -19T564 -25L500 121Q499 121 399 48L299 -26Q298 -26 291 -15T272 11T245 42T209 69T165 80Q120 80 58 43L48 37L40 42L32 48L122 117Q196 173 241 211Q319 280 343 327T368 447Q368 535 317 582Q264 633 199 633Q155 633 122 605T86 542Q86 518 133 467T181 387Q181 348 140 309Q113 281 73 260L64 255L50 265L59 273Q112 307 112 345Q112 363 90 387T45 441T22 505Z"></path>
<path stroke-width="10" id="E1-MJFRAK-42" d="M48 506Q48 568 120 629T268 691Q362 691 425 594L431 585L441 594Q478 628 528 657T629 686Q665 686 687 670Q703 658 718 584T753 506Q756 505 763 505Q778 505 804 512L815 516L820 496Q820 494 808 490T774 476T732 454Q720 445 708 437L675 415L640 394L625 383Q626 382 635 382Q652 382 670 379T712 364T754 336T784 289T797 220Q797 172 776 122Q769 106 766 102T745 84Q654 11 619 -8T538 -27Q483 -27 387 10T249 47Q218 47 186 34T133 8T112 -5T104 7T97 21L196 82Q259 120 284 140Q333 181 351 214Q368 251 368 353Q368 588 228 620Q222 621 205 621Q160 621 139 596Q117 569 117 548Q117 526 162 470T208 387Q208 352 179 320T104 264Q88 256 86 256Q83 256 70 266L82 274Q134 309 134 343Q134 352 130 359Q118 377 100 401T72 439T56 470T48 506ZM453 528Q457 496 457 419L458 357L488 367Q554 390 622 425Q673 449 673 453L671 454Q669 456 665 460T657 473T648 498T639 541Q629 597 616 613Q599 633 567 633Q534 633 493 599Q471 577 457 540L453 528ZM713 176Q713 252 661 295T528 339Q512 339 494 336T466 330T455 325Q454 325 452 311T444 270T425 217L420 207L304 118L319 116Q381 111 475 74T602 37Q655 37 684 79T713 176Z"></path>
<path stroke-width="10" id="E1-MJFRAK-43" d="M299 585Q333 609 384 634T470 672L505 685Q506 685 513 662T531 613T548 580Q553 576 563 576Q575 576 605 585Q607 585 607 575V564Q537 532 496 527Q475 542 456 567T427 610T415 627Q410 627 398 618T382 603Q373 588 373 558T386 475T400 399Q400 337 366 303Q343 281 309 266T254 247T226 242L214 257Q214 258 223 260T251 272T287 299Q304 316 304 360Q304 396 289 451T274 532Q274 553 277 561V564H269Q205 558 172 501T139 358Q139 207 226 127T443 46Q448 46 457 46T470 47L485 48L601 106Q602 106 602 93V80Q551 48 517 25T474 -4T460 -13T443 -19Q409 -24 367 -24Q360 -24 351 -24T335 -23T326 -22Q190 -2 125 87T59 319V328Q62 412 96 487L101 500L118 512Q189 563 245 591L266 601L299 585Z"></path>
<path stroke-width="10" id="E1-MJFRAK-44" d="M346 611Q300 611 261 604T194 584T144 555T107 519T82 481T65 443T55 410T50 383T48 367L37 372L27 378V393Q33 524 115 603Q160 648 230 666T365 685Q423 685 434 684Q745 653 745 405Q745 281 694 151L687 133L657 103Q524 -27 470 -27Q456 -27 331 18T157 64Q122 64 84 28Q67 9 57 -6L50 -16L43 -8L35 0Q35 3 46 22T83 74T141 133H154Q208 136 253 161T299 230Q299 259 277 290T232 348T209 392Q209 434 254 479T358 556L368 561L382 550Q382 549 381 548T377 545T371 541Q353 527 326 496T298 444Q298 430 343 365T389 277Q389 240 353 202T267 136L252 127Q304 118 400 83T513 47Q548 47 582 79T635 145Q671 208 671 323Q671 390 651 441T599 524T523 576T436 603T346 611Z"></path>
<path stroke-width="10" id="E1-MJFRAK-45" d="M301 564Q240 564 203 507T165 361Q165 280 190 218T260 119T358 64T474 46Q491 46 499 47L511 48L628 106V80L499 -5Q498 -6 497 -7T494 -10T490 -12T485 -15T478 -17T468 -19T456 -21T439 -22T418 -23T392 -24Q252 -20 169 67T86 315Q86 409 124 491Q128 500 139 508Q211 560 272 591L293 601L325 585L338 594Q374 617 422 639T502 674L532 685Q533 685 540 663T557 614T574 581Q580 575 591 575Q600 575 616 580T634 585V564L623 559Q572 535 532 529L522 527Q491 547 442 627Q442 628 440 627T435 624T428 620Q410 610 405 597T399 559V553Q399 534 409 487Q419 431 427 369L476 400Q526 431 526 432Q531 426 537 420Q565 382 602 359Q611 353 610 352Q609 351 575 332T537 312Q536 312 505 335T463 358Q451 358 439 352T425 337Q394 243 263 223L251 221L243 229L235 236L245 239Q274 247 303 266Q320 277 325 290T330 336Q330 394 315 451T300 531Q300 549 303 561Q303 564 301 564Z"></path>
<path stroke-width="10" id="E1-MJFRAK-46" d="M198 617Q177 617 159 609T128 587T106 557T91 524T82 494T76 472L75 463Q74 463 67 468T59 474Q59 488 63 510T80 564T114 622T170 667T253 686Q272 686 295 680Q330 672 384 645T468 598Q498 580 524 580Q549 580 595 626L612 643V616L599 599Q522 500 482 500Q466 500 435 514L420 521Q388 516 349 486T309 415Q309 396 323 366T352 315T367 294Q367 293 375 301T398 322T429 352L490 410Q537 355 542 332Q542 330 531 315T510 286L499 273Q479 313 449 313Q437 313 419 303T390 282L378 271L394 250Q444 183 470 129Q484 96 484 71Q484 -19 402 -86T223 -153H220Q175 -153 137 -120Q103 -89 103 -8Q103 12 106 40T109 96Q109 132 103 146T72 161Q46 161 16 143L14 154L11 165Q88 219 143 219Q163 219 177 197T192 127Q192 102 186 65T179 4Q179 -60 210 -88T272 -117Q319 -117 362 -75T405 33Q405 72 363 139T278 271T235 368Q235 385 243 404T264 439T292 472T324 500T353 522T374 538L382 543Q382 544 351 562T274 598T198 617Z"></path>
<path stroke-width="10" id="E1-MJFRAK-61" d="M86 363Q86 365 128 391T212 444L255 470Q256 470 263 465T283 453T308 442Q338 431 346 431Q350 431 358 436L414 465L421 459L418 434Q404 339 404 262Q404 147 408 119L425 97Q443 74 444 74L467 86L491 97Q492 97 497 83L436 28Q377 -26 374 -26L331 46L329 91L155 -35Q152 -35 114 10T68 65L67 86Q66 100 66 156Q66 177 66 198T68 236T71 268T74 296T77 320T80 338T83 351T86 360V363ZM314 365Q285 367 255 374T206 386L187 392Q181 392 172 376T154 311T145 197Q145 124 151 118Q156 110 187 78L208 56H214Q221 57 253 76L308 109L329 123V136Q328 143 328 257V365H314Z"></path>
<path stroke-width="10" id="E1-MJFRAK-62" d="M177 427Q177 364 181 364Q184 364 192 370T223 395T271 433Q317 469 323 469Q325 469 338 462T377 440T432 413L440 409L441 396Q441 394 441 372T442 334Q442 203 425 108L423 97L400 83Q347 49 296 21T222 -19T196 -31Q192 -29 149 12T87 71L89 89Q100 155 100 319Q100 500 94 627Q94 632 94 638T94 648T94 656T93 662V664Q93 668 97 669T106 670H110Q114 653 118 633L127 596Q127 595 132 597Q136 599 195 642L255 685L272 673Q269 670 256 659T233 637T211 609T190 565T179 508Q177 494 177 427ZM295 377L274 385Q273 385 264 381T242 370T223 361Q213 355 188 340L178 333V123L198 103Q259 42 285 42Q299 42 314 55T339 85Q363 132 363 232Q363 310 358 343V349L345 355Q330 363 295 377Z"></path>
<path stroke-width="10" id="E1-MJFRAK-63" d="M72 208Q72 323 84 361Q84 363 167 414Q248 466 250 466Q255 465 260 465Q283 460 307 450T344 430L357 422L306 343L301 342L296 340Q267 362 247 372T216 384T177 390Q154 349 154 238Q154 220 156 158V145L168 132Q179 121 208 93T244 59Q245 58 246 58Q255 58 302 83T350 108L352 104Q355 100 356 96L358 92Q358 91 274 32T187 -29L177 -20Q160 -6 120 36T77 84Q77 87 75 118T72 208Z"></path>
<path stroke-width="10" id="E1-MJFRAK-64" d="M13 542Q13 544 77 576T147 609Q154 609 185 598T283 551T414 464L427 454V440Q427 436 427 412T428 372Q428 315 426 270T418 197T409 152T400 121T394 103L304 35Q285 21 261 2T225 -25L214 -33Q149 7 97 59L76 80L75 91V171Q75 221 76 254T79 299T80 313Q80 315 78 321Q78 323 78 326L77 330Q79 336 132 384T211 447L219 445Q221 445 224 444L228 443Q229 443 228 441T221 432T206 415L191 395Q175 378 162 339Q152 306 152 250Q152 217 159 140V134L171 121Q194 99 235 74T284 48Q296 48 310 75T337 156T349 267Q349 346 336 400L315 420Q246 489 176 525Q127 545 94 545H73L27 527L13 542Z"></path>
<path stroke-width="10" id="E1-MJFRAK-65" d="M353 103Q353 97 358 87L337 71Q293 38 247 6Q191 -30 189 -30Q188 -30 173 -16T130 26T76 85L74 99Q70 139 70 190Q70 228 73 271T79 338T84 365L94 372Q105 378 126 392T166 417L246 467Q283 417 349 369L364 358L355 349Q249 249 169 180L151 166L152 152V139L165 126Q186 105 215 84T260 62Q267 62 309 82L353 103ZM267 323Q246 337 230 350T204 371T189 385T179 394T174 397Q149 381 149 219V211Q151 211 171 223T220 258T268 299L282 313L267 323Z"></path>
<path stroke-width="10" id="E1-MJFRAK-66" d="M128 387Q128 391 112 456T92 546V555L101 568Q133 617 183 670L193 681L204 673Q238 648 262 648Q276 648 292 656L302 661L308 653Q308 652 278 618L249 585H234Q194 587 159 595Q158 595 156 596H153L150 597Q151 593 152 581T154 564T157 547T164 524T176 494Q199 436 203 400V392H207L323 386Q323 384 309 368L296 351H203V176Q201 -9 198 -32Q194 -61 166 -114Q158 -129 153 -138Q114 -214 110 -221Q105 -221 98 -220L87 -219V-216Q88 -215 106 -150T124 -82Q128 -73 129 155V351H30L64 386H96Q128 386 128 387Z"></path>
<path stroke-width="10" id="E1-MJFRAK-31" d="M123 459Q145 459 170 460T217 462T256 464T284 466L295 467Q296 467 296 467T297 468Q299 468 302 466T307 462L309 459Q307 454 304 424T299 341T297 235Q297 139 298 101T302 55T313 44Q316 43 367 43L460 46Q460 35 459 22V-1H450Q402 2 281 6Q222 6 171 4T91 1T56 -1L47 -2V43H121H170Q195 43 201 45T209 56Q212 69 212 214Q212 333 209 365T194 409Q183 417 161 423T121 430L104 432Q103 432 103 446V459H123Z"></path>
<path stroke-width="10" id="E1-MJFRAK-32" d="M104 384Q115 394 133 409T199 449T281 474Q321 474 351 447T385 378Q385 328 333 255T228 127T176 72Q176 67 183 65Q184 65 203 65T260 67T331 69L475 73L484 67Q484 64 472 33L460 1H60V17L107 61Q210 159 249 208Q309 283 309 331Q309 363 285 389T228 415Q212 415 184 403T134 379L114 367L104 384Z"></path>
<path stroke-width="10" id="E1-MJFRAK-33" d="M305 328Q305 372 279 396T214 421H211Q172 421 128 384L107 398L116 405Q151 437 191 455T251 473H260Q314 473 341 455T382 394Q384 386 384 367T382 338Q362 263 271 217L256 210L257 206L259 202Q260 202 272 201T296 198T324 192T355 179T384 157T410 123T427 75Q429 64 429 41Q429 -59 353 -120T183 -182L88 -164Q81 -162 69 -157T48 -147T39 -141Q39 -139 46 -127L53 -114L69 -122Q129 -149 171 -149Q218 -149 253 -131T305 -83T330 -26T338 29Q338 41 336 55T328 89T308 127T273 153Q228 171 162 171Q158 171 152 171T142 170H127V204H134Q232 214 275 257Q305 292 305 328Z"></path>
<path stroke-width="10" id="E1-MJFRAK-34" d="M299 -179Q306 -156 306 -48V0H11V7Q10 10 10 18Q10 23 154 236L298 449Q298 450 339 463L379 476Q385 473 384 470V466Q384 463 384 457T384 444T383 427T383 408Q381 328 381 248Q381 46 384 40H387Q422 40 460 44Q465 44 470 44T478 44L481 45Q481 43 478 24T473 1Q473 -1 464 -1Q462 -1 451 -1T430 0H387V-76L389 -156V-161L311 -191Q299 -181 299 -179ZM299 364H287L277 352Q234 297 186 224T112 104T79 43Q79 42 192 42H306V115Q306 300 299 359V364Z"></path>
<path stroke-width="10" id="E1-MJFRAK-35" d="M334 25Q334 99 296 134T207 169Q154 169 107 123L98 114L89 120L80 125V458H420Q420 456 409 418L397 379Q397 378 264 378H131Q130 377 128 376T125 374T124 371T122 368T122 363T121 356T121 345V279V190L130 186L140 190Q196 214 260 214Q311 214 348 197T404 153T431 99T440 42T433 -16T406 -76T356 -130T276 -169T163 -184H156Q110 -184 57 -163L47 -159L53 -147L58 -134Q61 -134 74 -139T110 -148T156 -153Q206 -153 243 -135T299 -87T326 -30T334 25Z"></path>
<path stroke-width="10" id="E1-MJFRAK-36" d="M45 240Q45 328 73 406T143 536T235 626T327 681T399 699Q400 699 404 699T411 700Q424 700 441 696T459 689Q459 671 451 637Q451 633 447 632L444 629L434 633Q413 640 384 640H377Q299 640 222 565Q182 531 156 463T129 315V306H136L149 315Q229 376 316 376H318Q393 376 432 326T471 213Q471 129 402 58T237 -13T93 59T45 240ZM391 172Q391 231 354 272T258 314Q230 314 200 302T154 279T133 262L134 249Q154 32 266 32Q315 32 353 64T391 172Z"></path>
</defs>
<g stroke="currentColor" fill="currentColor" stroke-width="0" transform="matrix(1 0 0 -1 0 0)">
 <use xlink:href="#E1-MJFRAK-41" x="0" y="0"></use>
 <use xlink:href="#E1-MJFRAK-42" x="723" y="0"></use>
 <use xlink:href="#E1-MJFRAK-43" x="1612" y="0"></use>
 <use xlink:href="#E1-MJFRAK-44" x="2230" y="0"></use>
 <use xlink:href="#E1-MJFRAK-45" x="3067" y="0"></use>
 <use xlink:href="#E1-MJFRAK-46" x="3735" y="0"></use>
 <use xlink:href="#E1-MJFRAK-61" x="4602" y="0"></use>
 <use xlink:href="#E1-MJFRAK-62" x="5107" y="0"></use>
 <use xlink:href="#E1-MJFRAK-63" x="5625" y="0"></use>
 <use xlink:href="#E1-MJFRAK-64" x="6019" y="0"></use>
 <use xlink:href="#E1-MJFRAK-65" x="6523" y="0"></use>
 <use xlink:href="#E1-MJFRAK-66" x="6929" y="0"></use>
<g transform="translate(7510,0)">
 <use xlink:href="#E1-MJFRAK-31"></use>
 <use xlink:href="#E1-MJFRAK-32" x="507" y="0"></use>
 <use xlink:href="#E1-MJFRAK-33" x="1014" y="0"></use>
 <use xlink:href="#E1-MJFRAK-34" x="1521" y="0"></use>
 <use xlink:href="#E1-MJFRAK-35" x="2028" y="0"></use>
 <use xlink:href="#E1-MJFRAK-36" x="2535" y="0"></use>
</g>
</g>
</svg>