<?xml version="1.0" standalone="no"?>
<!DOCTYPE svg PUBLIC "-//W3C//DTD SVG 1.1//EN" "http://www.w3.org/Graphics/SVG/1.1/DTD/svg11.dtd">
<svg xmlns:xlink="http://www.w3.org/1999/xlink" width="1.86ex" height="2.176ex" style="vertical-align: -0.338ex;" viewBox="0 -791.3 801 936.9" xmlns="http://www.w3.org/2000/svg">
<defs>
<path stroke-width="10" id="E1-MJCAL-4F" d="M308 428Q289 428 289 438Q289 457 318 508T378 593Q417 638 475 671T599 705Q688 705 732 643T777 483Q777 380 733 285T620 123T464 18T293 -22Q188 -22 123 51T58 245Q58 327 87 403T159 533T249 626T333 685T388 705Q404 705 404 693Q404 674 363 649Q333 632 304 606T239 537T181 429T158 290Q158 179 214 114T364 48Q489 48 583 165T677 438Q677 473 670 505T648 568T601 617T528 636Q518 636 513 635Q486 629 460 600T419 544T392 490Q383 470 372 459Q341 430 308 428Z"></path>
</defs>
<g stroke="currentColor" fill="currentColor" stroke-width="0" transform="matrix(1 0 0 -1 0 0)">
 <use xlink:href="#E1-MJCAL-4F" x="0" y="0"></use>
</g>
</svg>