<?xml version="1.0" standalone="no"?>
<!DOCTYPE svg PUBLIC "-//W3C//DTD SVG 1.1//EN" "http://www.w3.org/Graphics/SVG/1.1/DTD/svg11.dtd">
<svg xmlns:xlink="http://www.w3.org/1999/xlink" width="2.721ex" height="1.843ex" style="vertical-align: -0.338ex;" viewBox="0 -647.8 1171.7 793.3" xmlns="http://www.w3.org/2000/svg">
<defs>
<path stroke-width="10" id="E1-MJMAIN-21D4" d="M308 524Q318 526 323 526Q340 526 340 514Q340 507 336 499Q326 476 314 454T292 417T274 391T260 374L255 368Q255 367 500 367Q744 367 744 368L739 374Q734 379 726 390T707 416T685 453T663 499Q658 511 658 515Q658 525 680 525Q687 524 690 523T695 519T701 507Q766 359 902 287Q921 276 939 269T961 259T966 250Q966 246 965 244T960 240T949 236T930 228T902 213Q763 137 701 -7Q697 -16 695 -19T690 -23T680 -25Q658 -25 658 -15Q658 -11 663 1Q673 24 685 46T707 83T725 109T739 126L744 132Q744 133 500 133Q255 133 255 132L260 126Q265 121 273 110T292 84T314 47T336 1Q341 -11 341 -15Q341 -25 319 -25Q312 -24 309 -23T304 -19T298 -7Q233 141 97 213Q83 221 70 227T51 235T41 239T35 243T34 250T35 256T40 261T51 265T70 273T97 287Q235 363 299 509Q305 522 308 524ZM792 319L783 327H216Q183 294 120 256L110 250L120 244Q173 212 207 181L216 173H783L792 181Q826 212 879 244L889 250L879 256Q826 288 792 319Z"></path>
</defs>
<g stroke="currentColor" fill="currentColor" stroke-width="0" transform="matrix(1 0 0 -1 0 0)">
 <use xlink:href="#E1-MJMAIN-21D4" x="0" y="0"></use>
</g>
</svg>