<?xml version="1.0" standalone="no"?>
<!DOCTYPE svg PUBLIC "-//W3C//DTD SVG 1.1//EN" "http://www.w3.org/Graphics/SVG/1.1/DTD/svg11.dtd">
<svg xmlns:xlink="http://www.w3.org/1999/xlink" width="1.935ex" height="1.676ex" style="vertical-align: -0.338ex;" viewBox="0 -576.1 833 721.6" xmlns="http://www.w3.org/2000/svg">
<defs>
<path stroke-width="10" id="E1-MJMATHI-3D6" d="M206 -10Q158 -10 136 24T114 110Q114 233 199 349L205 358H184Q144 358 121 347Q108 340 95 330T75 312T61 295T53 285Q51 284 38 284Q19 284 19 294Q19 300 38 329T93 391T164 429Q171 431 532 431Q799 431 803 430Q823 423 823 402Q823 377 801 364Q790 358 766 358Q748 358 748 357Q748 355 749 348T752 327T754 297Q754 258 738 207T693 107T618 24T520 -10Q488 -10 466 2T432 36T416 77T411 120Q411 128 410 128T404 122Q373 71 323 31T206 -10ZM714 296Q714 316 707 358H251Q250 357 244 348T230 328T212 301T193 267T176 229T164 187T159 144Q159 62 222 62Q290 62 349 127T432 285Q433 286 434 288T435 291T437 293T440 294T444 294T452 294H466Q472 288 472 286Q472 285 464 244T456 170Q456 62 534 62Q604 62 659 139T714 296Z"></path>
</defs>
<g stroke="currentColor" fill="currentColor" stroke-width="0" transform="matrix(1 0 0 -1 0 0)">
 <use xlink:href="#E1-MJMATHI-3D6" x="0" y="0"></use>
</g>
</svg>