<?xml version="1.0" standalone="no"?>
<!DOCTYPE svg PUBLIC "-//W3C//DTD SVG 1.1//EN" "http://www.w3.org/Graphics/SVG/1.1/DTD/svg11.dtd">
<svg xmlns:xlink="http://www.w3.org/1999/xlink" width="10.005ex" height="2.176ex" style="vertical-align: -0.338ex;" viewBox="0 -791.3 4307.7 936.9" xmlns="http://www.w3.org/2000/svg">
<defs>
<path stroke-width="10" id="E1-MJAMS-41" d="M130 -1H63Q34 -1 26 2T17 17Q17 24 22 29T35 35Q49 35 64 44T88 66Q101 93 210 383Q331 693 335 697T346 701T357 697Q358 696 493 399Q621 104 633 83Q656 35 686 35Q693 35 698 30T703 17Q703 5 693 2T643 -1H541Q388 -1 386 1Q378 6 378 16Q378 24 383 29T397 35Q412 35 434 45T456 65Q456 93 428 170L419 197H197L195 179Q184 134 184 97Q184 82 186 71T190 55T198 45T205 39T214 36L219 35Q241 31 241 17Q241 5 233 2T196 -1H130ZM493 68Q493 51 481 35H619Q604 56 515 256Q486 321 468 361L348 637Q347 637 330 592T313 543Q313 538 358 436T448 219T493 68ZM404 235Q404 239 355 355T295 488L275 430Q241 348 208 232H306Q404 232 404 235ZM155 48Q151 55 148 88V117L135 86Q118 47 117 46L110 37L135 35H159Q157 41 155 48Z"></path>
<path stroke-width="10" id="E1-MJAMS-42" d="M11 665Q11 672 22 683H213Q407 681 431 677Q582 649 582 515Q582 488 573 468Q554 413 484 372L474 366H475Q620 317 620 178Q620 115 568 69T420 6Q393 1 207 -1H22Q11 10 11 18Q11 35 51 35Q79 37 88 39T102 52Q107 70 107 341T102 630Q97 640 88 643T51 648H46Q11 648 11 665ZM142 341Q142 129 141 88T134 37Q133 36 133 35H240L233 48L229 61V623L233 635L240 648H133L138 639Q142 621 142 341ZM284 370Q365 378 391 411T417 508Q417 551 406 581T378 624T347 643T320 648Q298 648 278 635Q267 628 266 611T264 492V370H284ZM546 515Q546 551 531 577T494 617T454 635T422 641L411 643L420 630Q439 604 445 579T452 510V504Q452 481 451 467T441 430T415 383Q420 383 439 391T483 413T527 455T546 515ZM585 185Q585 221 570 249T534 294T490 320T453 334T436 337L435 336L440 330Q445 325 452 315T467 288T479 246T484 188Q484 145 474 110T454 62T442 48Q442 47 444 47Q450 47 470 54T517 75T564 119T585 185ZM449 184Q449 316 358 332Q355 332 335 333T302 335H264V199Q266 68 270 57Q275 50 289 43Q300 37 324 37Q449 37 449 184Z"></path>
<path stroke-width="10" id="E1-MJAMS-43" d="M684 131Q684 125 672 109T633 71T573 29T489 -5T386 -19Q330 -19 276 -3T174 46T91 134T44 261Q39 283 39 341T44 421Q66 538 143 611T341 699Q344 699 364 700T395 701Q449 698 503 677T585 655Q603 655 611 662T620 678T625 694T639 702Q650 702 657 690V481L653 474Q640 467 628 472Q624 476 618 496T595 541Q562 587 507 625T390 663H381Q337 663 299 625Q212 547 212 336Q212 249 233 179Q274 30 405 30Q533 30 641 130Q658 147 666 147Q671 147 677 143T684 131ZM250 625Q264 643 261 643Q238 635 214 620T161 579T110 510T79 414Q74 384 74 341T79 268Q89 213 113 169T164 101T217 61T260 39L277 34Q270 41 264 48Q199 111 181 254Q178 281 178 344T181 434Q200 559 250 625ZM621 565V625Q617 623 613 623Q603 619 590 619H575L588 605Q608 583 610 579L621 565Z"></path>
<path stroke-width="10" id="E1-MJAMS-44" d="M16 666Q16 675 28 683H193Q329 683 364 682T430 672Q534 650 600 585T686 423Q688 406 688 352Q688 274 673 226Q641 130 565 72T381 1Q368 -1 195 -1H28Q16 5 16 16Q16 35 53 35Q68 36 75 37T87 42T95 52Q98 61 98 341T95 630Q91 640 83 643T53 648Q16 648 16 666ZM237 646Q237 648 184 648H128Q128 647 133 632Q136 620 136 341Q136 64 133 50L128 35H237L230 48L226 61V343Q228 620 231 633Q232 636 237 646ZM264 61Q278 40 310 35Q363 35 401 55T461 112T496 193T513 295Q515 333 515 349Q515 411 504 459Q481 598 373 641Q351 648 321 648Q304 648 292 643T277 635T264 621V61ZM461 628Q462 627 471 616T489 594T509 559T529 509T544 441T550 352Q550 165 479 75L468 59Q474 61 484 65T522 87T573 128T618 195T650 290Q654 322 654 354Q654 418 638 464T581 552Q559 576 529 595T480 621L461 628Z"></path>
<path stroke-width="10" id="E1-MJAMS-45" d="M12 666Q12 675 24 683H582Q590 680 593 672V588Q593 514 591 502T575 490Q567 490 563 495T555 517Q552 556 517 590Q486 623 445 634T340 648H282Q266 636 264 620T260 492V370H277Q329 375 358 391T404 439Q420 480 420 506Q420 529 436 529Q445 529 451 521Q455 517 455 361Q455 333 455 298T456 253Q456 217 453 207T437 197Q420 196 420 217Q420 240 406 270Q377 328 284 335H260V201Q261 174 261 134Q262 73 264 61T278 38Q281 36 282 35H331Q400 35 449 50Q571 93 602 179Q605 203 622 203Q629 203 634 197T640 183Q638 181 624 95T604 3L600 -1H24Q12 5 12 16Q12 35 51 35Q92 38 97 52Q102 60 102 341T97 632Q91 645 51 648Q12 648 12 666ZM137 341Q137 131 136 89T130 37Q129 36 129 35H235Q233 41 231 48L226 61V623L231 635L235 648H129Q132 641 133 638T135 603T137 517T137 341ZM557 603V648H504Q504 646 515 639Q527 634 542 619L557 603ZM420 317V397L406 383Q394 370 380 363L366 355Q373 350 382 346Q400 333 409 328L420 317ZM582 61L586 88Q585 88 582 83Q557 61 526 46L511 37L542 35H577Q577 36 578 39T580 49T582 61Z"></path>
<path stroke-width="10" id="E1-MJAMS-46" d="M584 499Q569 490 566 490Q558 490 552 497T546 515Q546 535 533 559Q526 574 506 593T469 621Q415 648 326 648Q293 648 287 647T275 641Q264 630 263 617Q262 609 260 492V370L275 372Q323 376 350 392T393 441Q409 473 409 506Q409 529 427 529Q437 529 442 519Q444 511 444 362Q444 212 442 206Q436 197 426 197Q409 197 409 217Q409 265 375 299Q346 328 280 335H260V206Q260 70 262 63Q265 46 276 41T326 35Q362 35 366 28Q377 17 366 3L360 -1H24Q12 5 12 16Q12 35 51 35Q92 38 97 52Q102 60 102 341T97 632Q91 645 51 648Q12 648 12 666Q12 675 24 683H573Q576 678 584 670V499ZM137 341Q137 131 136 89T130 37Q129 36 129 35H182Q233 35 233 39Q226 54 225 92T224 346L226 623L231 635L235 648H129Q132 641 133 638T135 603T137 517T137 341ZM549 603V648H495L506 641Q531 621 533 619L549 603ZM409 317V395L400 386Q390 376 375 366L357 355L373 346Q394 331 397 328L409 317Z"></path>
</defs>
<g stroke="currentColor" fill="currentColor" stroke-width="0" transform="matrix(1 0 0 -1 0 0)">
 <use xlink:href="#E1-MJAMS-41" x="0" y="0"></use>
 <use xlink:href="#E1-MJAMS-42" x="727" y="0"></use>
 <use xlink:href="#E1-MJAMS-43" x="1399" y="0"></use>
 <use xlink:href="#E1-MJAMS-44" x="2126" y="0"></use>
 <use xlink:href="#E1-MJAMS-45" x="2853" y="0"></use>
 <use xlink:href="#E1-MJAMS-46" x="3525" y="0"></use>
</g>
</svg>