<?xml version="1.0" standalone="no"?>
<!DOCTYPE svg PUBLIC "-//W3C//DTD SVG 1.1//EN" "http://www.w3.org/Graphics/SVG/1.1/DTD/svg11.dtd">
<svg xmlns:xlink="http://www.w3.org/1999/xlink" width="2.206ex" height="3.176ex" style="vertical-align: -1.005ex;" viewBox="0 -934.9 949.7 1367.4" xmlns="http://www.w3.org/2000/svg">
<defs>
<path stroke-width="10" id="E1-MJAMS-2288" d="M146 -283Q146 -282 174 -213T202 -143H115Q102 -127 102 -123T115 -103H220L291 68L278 73Q203 101 153 157T86 288Q83 309 83 344Q83 380 86 399Q107 480 160 539Q222 601 298 621Q328 630 345 631T435 635L526 637L560 715Q587 778 593 789T609 801Q616 801 622 795T629 781Q629 780 625 771T614 742T600 706L571 637Q571 635 626 635H680Q693 620 693 613T689 601L682 597L618 595H553L449 346Q425 288 399 223T359 127T346 95H356Q365 95 381 95T417 94T463 93T515 93H682Q693 82 693 74T680 53H511Q420 55 335 55L329 57L262 -103H680Q682 -105 684 -108T688 -113T691 -118T693 -124Q693 -134 682 -141L464 -143H246L213 -219Q182 -292 178 -299Q172 -303 166 -303T153 -297T146 -283ZM509 590Q509 595 438 595Q354 595 318 586Q246 567 195 516T126 395Q123 378 123 344T126 293Q141 229 184 181T291 110L306 104L406 346L509 590Z"></path>
</defs>
<g stroke="currentColor" fill="currentColor" stroke-width="0" transform="matrix(1 0 0 -1 0 0)">
 <use xlink:href="#E1-MJAMS-2288" x="0" y="0"></use>
</g>
</svg>