<?xml version="1.0" standalone="no"?>
<!DOCTYPE svg PUBLIC "-//W3C//DTD SVG 1.1//EN" "http://www.w3.org/Graphics/SVG/1.1/DTD/svg11.dtd">
<svg xmlns:xlink="http://www.w3.org/1999/xlink" width="2.721ex" height="1.343ex" style="vertical-align: -0.171ex;" viewBox="0 -504.3 1171.7 578.1" xmlns="http://www.w3.org/2000/svg">
<defs>
<path stroke-width="10" id="E1-MJMAIN-2323" d="M923 378Q944 378 944 358Q944 345 912 311T859 259Q710 134 500 134Q288 134 140 259Q55 336 55 358Q55 366 61 372T75 378Q78 378 84 376Q86 376 101 356T147 310T221 257T339 212T500 193Q628 193 734 236Q841 282 903 363Q914 378 923 378Z"></path>
</defs>
<g stroke="currentColor" fill="currentColor" stroke-width="0" transform="matrix(1 0 0 -1 0 0)">
 <use xlink:href="#E1-MJMAIN-2323" x="0" y="0"></use>
</g>
</svg>