<?xml version="1.0" encoding="UTF-8" standalone="no"?>
<!DOCTYPE svg PUBLIC "-//W3C//DTD SVG 1.0//EN" "http://www.w3.org/TR/2001/PR-SVG-20010719/DTD/svg10.dtd">
<svg width="87cm" height="31cm" viewBox="-216 -436 1737 615" xmlns="http://www.w3.org/2000/svg" xmlns:xlink="http://www.w3.org/1999/xlink">
  <defs/>
  <g id="Background">
    <g>
      <path style="fill: #c0c0c0; fill-opacity: 1; stroke-opacity: 1; stroke-width: 2; stroke: #000000" fill-rule="evenodd" d="M 1225.87 -218.19 C 1225.89,-215.352 1417.16,-207.364 1498.4,-208.46 C 1507.6,-208.584 1524.13,-224.336 1516.05,-224.064 C 1434.8,-221.314 1225.85,-221.03 1225.87,-218.19z"/>
      <path style="fill: #c0c0c0; fill-opacity: 1; stroke-opacity: 1; stroke-width: 2; stroke: #000000" fill-rule="evenodd" d="M 1223.68 -217.21 C 1369.54,-207.836 1501.36,-208.476 1500.48,-208.352 C 1499.61,-208.226 1506.42,-196.586 1497.42,-197.711 C 1438.29,-199.901 1272.85,-208.162 1221.62,-212.518 C 1221.73,-217.102 1220.68,-217.402 1223.68,-217.21z"/>
      <path style="fill: #c0c0c0; fill-opacity: 1; stroke-opacity: 1; stroke-width: 2; stroke: #000000" fill-rule="evenodd" d="M 1500.92 -207.21 C 1500.23,-206.484 1500.79,-200.46 1500.79,-198.211 C 1500.79,-195.961 1519,-213.554 1519.12,-214.68 C 1519.25,-215.804 1518.44,-221.476 1518.51,-222.056 C 1515.89,-217.932 1503.17,-209.584 1500.92,-207.21z"/>
      <path style="fill: #ffffff; fill-opacity: 1; stroke-opacity: 1; stroke-width: 2; stroke: #000000" fill-rule="evenodd" d="M 1496.27 -219.612 C 1511.63,-219.384 1499.94,-212.736 1487.33,-213.422 C 1474.73,-214.11 1480.91,-219.842 1496.27,-219.612z"/>
    </g>
    <ellipse style="fill: #ffffff; fill-opacity: 1; stroke-opacity: 1; stroke-width: 8; stroke: #000000" cx="1114.25" cy="-236.948" rx="296.886" ry="26.5224"/>
    <g>
      <ellipse style="fill: #f8f8f8; fill-opacity: 1; stroke-opacity: 1; stroke-width: 2; stroke: #000000" cx="259" cy="-121" rx="299" ry="299"/>
      <text font-size="12.8" style="fill: #000000; fill-opacity: 1; stroke: none;text-anchor:middle;font-family:sans-serif;font-style:normal;font-weight:normal" x="259" y="-117.119">
        <tspan x="259" y="-117.119"/>
      </text>
      <ellipse style="fill: none; stroke-opacity: 1; stroke-width: 2; stroke-dasharray: 20; stroke: #c0c0c0" cx="259" cy="-121" rx="179" ry="179"/>
      <text font-size="12.8" style="fill: #000000; fill-opacity: 1; stroke: none;text-anchor:middle;font-family:sans-serif;font-style:normal;font-weight:normal" x="259" y="-117.119">
        <tspan x="259" y="-117.119"/>
      </text>
      <ellipse style="fill: #ffffff; fill-opacity: 1; stroke-opacity: 1; stroke-width: 2; stroke: #000000" cx="259" cy="-121" rx="99" ry="99"/>
      <text font-size="12.8" style="fill: #000000; fill-opacity: 1; stroke: none;text-anchor:middle;font-family:sans-serif;font-style:normal;font-weight:normal" x="259" y="-117.119">
        <tspan x="259" y="-117.119"/>
      </text>
      <ellipse style="fill: none; stroke-opacity: 1; stroke-width: 2; stroke-dasharray: 20; stroke: #c0c0c0" cx="259" cy="-120" rx="139" ry="140"/>
      <text font-size="12.8" style="fill: #000000; fill-opacity: 1; stroke: none;text-anchor:middle;font-family:sans-serif;font-style:normal;font-weight:normal" x="259" y="-116.119">
        <tspan x="259" y="-116.119"/>
      </text>
      <ellipse style="fill: none; stroke-opacity: 1; stroke-width: 2; stroke-dasharray: 20; stroke: #c0c0c0" cx="258" cy="-122" rx="258" ry="258"/>
      <text font-size="12.8" style="fill: #000000; fill-opacity: 1; stroke: none;text-anchor:middle;font-family:sans-serif;font-style:normal;font-weight:normal" x="258" y="-118.119">
        <tspan x="258" y="-118.119"/>
      </text>
      <ellipse style="fill: none; stroke-opacity: 1; stroke-width: 2; stroke-dasharray: 20; stroke: #c0c0c0" cx="259" cy="-121" rx="219" ry="219"/>
      <text font-size="12.8" style="fill: #000000; fill-opacity: 1; stroke: none;text-anchor:middle;font-family:sans-serif;font-style:normal;font-weight:normal" x="259" y="-117.119">
        <tspan x="259" y="-117.119"/>
      </text>
    </g>
    <g>
      <path style="fill: none; stroke-opacity: 1; stroke-width: 2; stroke: #000000" d="M 179.214,-273.61 A 60.1658,60.1658 0 0 0 148.46,-316.839"/>
      <polygon style="fill: #000000; fill-opacity: 1; stroke-opacity: 1; stroke-width: 2; stroke: #000000" fill-rule="evenodd" points="179.997,-266.236 174.984,-276.229 179.987,-273.736 184.984,-276.243 "/>
      <polygon style="fill: #000000; fill-opacity: 1; stroke-opacity: 1; stroke-width: 2; stroke: #000000" fill-rule="evenodd" points="141.75,-319.996 152.839,-321.426 148.832,-317.527 149.547,-311.983 "/>
    </g>
    <path style="fill: #c0c0c0; fill-opacity: 1; stroke-opacity: 1; stroke-width: 4; stroke: #000000" fill-rule="evenodd" d="M 220 -256 C 232,-252 -36,-108 -84,-84 C -132,-60 -124,-60 -144,-100 C -164,-140 -176,-136 -132,-152 C -88,-168 208,-260 220,-256z"/>
    <path style="fill: none; stroke-opacity: 1; stroke-width: 2; stroke-dasharray: 4; stroke: #000000" d="M 148 -356 C 160,-352 -44,-116 -80,-88 C -116,-60 -104,-56 -136,-96 C -168,-136 -168,-124 -136,-148 C -104,-172 136,-360 148,-356"/>
    <g>
      <ellipse style="fill: #ffffff; fill-opacity: 1; stroke-opacity: 1; stroke-width: 4; stroke: #000000" cx="-100.983" cy="-121.431" rx="19.0169" ry="18.569"/>
      <text font-size="12.8" style="fill: #000000; fill-opacity: 1; stroke: none;text-anchor:middle;font-family:sans-serif;font-style:normal;font-weight:normal" x="-100.983" y="-117.55">
        <tspan x="-100.983" y="-117.55"/>
      </text>
    </g>
    <line style="fill: none; stroke-opacity: 1; stroke-width: 2; stroke: #ff0000" x1="595.928" y1="-259.844" x2="697.882" y2="-259.966"/>
    <g>
      <line style="fill: none; stroke-opacity: 1; stroke-width: 2; stroke: #ff0000" x1="596" y1="-261" x2="554.144" y2="-209.552"/>
      <polygon style="fill: #ff0000; fill-opacity: 1; stroke-opacity: 1; stroke-width: 2; stroke: #ff0000" fill-rule="evenodd" points="549.411,-203.735 551.843,-214.647 554.144,-209.552 559.601,-208.336 "/>
    </g>
    <text font-size="27.0933" style="fill: #ff0000; fill-opacity: 1; stroke: none;text-anchor:start;font-family:sans-serif;font-style:normal;font-weight:normal" x="601.832" y="-270.508">
      <tspan x="601.832" y="-270.508">platter</tspan>
    </text>
    <line style="fill: none; stroke-opacity: 1; stroke-width: 2; stroke: #ff0000" x1="-214.564" y1="-266.238" x2="-24.2638" y2="-266.056"/>
    <g>
      <line style="fill: none; stroke-opacity: 1; stroke-width: 2; stroke: #ff0000" x1="-24.8158" y1="-265.766" x2="37.699" y2="-216.647"/>
      <polygon style="fill: #ff0000; fill-opacity: 1; stroke-opacity: 1; stroke-width: 2; stroke: #ff0000" fill-rule="evenodd" points="43.5963,-212.013 32.6441,-214.26 37.699,-216.647 38.8223,-222.123 "/>
    </g>
    <text font-size="27.0933" style="fill: #ff0000; fill-opacity: 1; stroke: none;text-anchor:start;font-family:sans-serif;font-style:normal;font-weight:normal" x="-209.328" y="-273.886">
      <tspan x="-209.328" y="-273.886">actuator arm</tspan>
    </text>
    <line style="fill: none; stroke-opacity: 1; stroke-width: 2; stroke: #ff0000" x1="488.696" y1="-368.092" x2="568" y2="-368"/>
    <g>
      <line style="fill: none; stroke-opacity: 1; stroke-width: 2; stroke: #ff0000" x1="488.43" y1="-368.046" x2="443.509" y2="-311.087"/>
      <polygon style="fill: #ff0000; fill-opacity: 1; stroke-opacity: 1; stroke-width: 2; stroke: #ff0000" fill-rule="evenodd" points="438.865,-305.198 441.131,-316.146 443.509,-311.087 448.983,-309.953 "/>
    </g>
    <text font-size="27.0933" style="fill: #ff0000; fill-opacity: 1; stroke: none;text-anchor:start;font-family:sans-serif;font-style:normal;font-weight:normal" x="495.586" y="-375.202">
      <tspan x="495.586" y="-375.202">track</tspan>
    </text>
    <line style="fill: none; stroke-opacity: 1; stroke-width: 2; stroke: #ff0000" x1="592.248" y1="27.9838" x2="688" y2="28"/>
    <g>
      <line style="fill: none; stroke-opacity: 1; stroke-width: 2; stroke: #ff0000" x1="591.268" y1="28.0224" x2="471.763" y2="35.5092"/>
      <polygon style="fill: #ff0000; fill-opacity: 1; stroke-opacity: 1; stroke-width: 2; stroke: #ff0000" fill-rule="evenodd" points="464.278,35.9782 473.945,30.3627 471.763,35.5092 474.571,40.3431 "/>
    </g>
    <text font-size="27.0933" style="fill: #ff0000; fill-opacity: 1; stroke: none;text-anchor:start;font-family:sans-serif;font-style:normal;font-weight:normal" x="597.44" y="21.263">
      <tspan x="597.44" y="21.263">sector</tspan>
    </text>
    <g>
      <line style="fill: none; stroke-opacity: 1; stroke-width: 2; stroke: #ff0000" x1="489.144" y1="-368.986" x2="441.343" y2="-258.401"/>
      <polygon style="fill: #ff0000; fill-opacity: 1; stroke-opacity: 1; stroke-width: 2; stroke: #ff0000" fill-rule="evenodd" points="438.367,-251.517 437.745,-262.68 441.343,-258.401 446.925,-258.712 "/>
    </g>
    <g>
      <line style="fill: none; stroke-opacity: 1; stroke-width: 2; stroke: #ff0000" x1="593.872" y1="28.1772" x2="493.62" y2="5.29783"/>
      <polygon style="fill: #ff0000; fill-opacity: 1; stroke-opacity: 1; stroke-width: 2; stroke: #ff0000" fill-rule="evenodd" points="486.308,3.6291 497.17,0.979413 493.62,5.29783 494.945,10.7287 "/>
    </g>
    <g>
      <line style="fill: none; stroke-opacity: 1; stroke-width: 2; stroke: #ff0000" x1="591.518" y1="27.2724" x2="508.09" y2="-27.2545"/>
      <polygon style="fill: #ff0000; fill-opacity: 1; stroke-opacity: 1; stroke-width: 2; stroke: #ff0000" fill-rule="evenodd" points="501.812,-31.3577 512.918,-30.0721 508.09,-27.2545 507.447,-21.7014 "/>
    </g>
    <g>
      <line style="fill: none; stroke-opacity: 1; stroke-width: 2; stroke: #000000" x1="258.216" y1="-124.162" x2="258.216" y2="-114.162"/>
      <line style="fill: none; stroke-opacity: 1; stroke-width: 2; stroke: #000000" x1="253.416" y1="-119.362" x2="263.416" y2="-119.362"/>
    </g>
    <ellipse style="fill: #ffffff; fill-opacity: 1; stroke-opacity: 1; stroke-width: 2; stroke: #000000" cx="1113.93" cy="-241.607" rx="299.597" ry="29.0105"/>
    <ellipse style="fill: none; stroke-opacity: 1; stroke-width: 2; stroke-dasharray: 20; stroke: #c0c0c0" cx="1110.5" cy="-243.182" rx="270.503" ry="16.8177"/>
    <ellipse style="fill: #ffffff; fill-opacity: 1; stroke-opacity: 1; stroke-width: 2; stroke: #000000" cx="1106.77" cy="-243.803" rx="62.4775" ry="8.40885"/>
    <g>
      <polygon style="fill: #000000; fill-opacity: 1; stroke-opacity: 1; stroke-width: 2; stroke: #000000" fill-rule="evenodd" points="1219.82,-274.262 1230.41,-273.04 1224.69,-261.95 "/>
      <path style="fill: #c0c0c0; fill-opacity: 1; stroke-opacity: 1; stroke-width: 2; stroke: #000000" fill-rule="evenodd" d="M 1223.55 -281.438 C 1223.57,-278.6 1414.84,-270.612 1496.08,-271.708 C 1505.28,-271.832 1521.81,-287.586 1513.73,-287.312 C 1432.49,-284.562 1223.53,-284.278 1223.55,-281.438z"/>
      <path style="fill: #c0c0c0; fill-opacity: 1; stroke-opacity: 1; stroke-width: 2; stroke: #000000" fill-rule="evenodd" d="M 1221.36 -280.458 C 1367.22,-271.084 1499.04,-271.726 1498.16,-271.6 C 1497.29,-271.476 1504.1,-259.834 1495.1,-260.96 C 1435.97,-263.15 1270.53,-271.41 1219.3,-275.766 C 1219.42,-280.35 1218.37,-280.65 1221.36,-280.458z"/>
      <path style="fill: #c0c0c0; fill-opacity: 1; stroke-opacity: 1; stroke-width: 2; stroke: #000000" fill-rule="evenodd" d="M 1498.6 -270.458 C 1497.91,-269.732 1498.47,-263.71 1498.47,-261.46 C 1498.47,-259.21 1516.68,-276.802 1516.8,-277.928 C 1516.93,-279.052 1516.12,-284.726 1516.19,-285.306 C 1513.57,-281.18 1500.85,-272.834 1498.6,-270.458z"/>
      <path style="fill: #ffffff; fill-opacity: 1; stroke-opacity: 1; stroke-width: 2; stroke: #000000" fill-rule="evenodd" d="M 1493.95 -282.86 C 1509.31,-282.632 1497.62,-275.984 1485.01,-276.672 C 1472.41,-277.358 1478.6,-283.09 1493.95,-282.86z"/>
    </g>
    <g>
      <path style="fill: #c0c0c0; fill-opacity: 1; stroke-opacity: 1; stroke-width: 2; stroke: #000000" fill-rule="evenodd" d="M 1226.59 -92.0876 C 1226.61,-89.2486 1417.89,-81.261 1499.12,-82.3578 C 1508.32,-82.4818 1524.85,-98.2342 1516.77,-97.961 C 1435.53,-95.211 1226.57,-94.9268 1226.59,-92.0876z"/>
      <path style="fill: #c0c0c0; fill-opacity: 1; stroke-opacity: 1; stroke-width: 2; stroke: #000000" fill-rule="evenodd" d="M 1224.4 -91.1068 C 1370.26,-81.7328 1502.08,-82.3744 1501.2,-82.2494 C 1500.33,-82.1244 1507.14,-70.484 1498.14,-71.6088 C 1439.01,-73.7986 1273.57,-82.06 1222.34,-86.4152 C 1222.46,-90.9996 1221.41,-91.2992 1224.4,-91.1068z"/>
      <path style="fill: #c0c0c0; fill-opacity: 1; stroke-opacity: 1; stroke-width: 2; stroke: #000000" fill-rule="evenodd" d="M 1501.64 -81.1078 C 1500.95,-80.382 1501.51,-74.3586 1501.51,-72.1088 C 1501.51,-69.859 1519.72,-87.4518 1519.84,-88.5768 C 1519.97,-89.7016 1519.16,-95.3742 1519.23,-95.9546 C 1516.61,-91.83 1503.89,-83.4826 1501.64,-81.1078z"/>
      <path style="fill: #ffffff; fill-opacity: 1; stroke-opacity: 1; stroke-width: 2; stroke: #000000" fill-rule="evenodd" d="M 1497 -93.5098 C 1512.35,-93.2806 1500.66,-86.6328 1488.06,-87.3204 C 1475.45,-88.0082 1481.64,-93.739 1497,-93.5098z"/>
    </g>
    <ellipse style="fill: #ffffff; fill-opacity: 1; stroke-opacity: 1; stroke-width: 8; stroke: #000000" cx="1116.02" cy="-110.257" rx="296.886" ry="26.5224"/>
    <ellipse style="fill: #ffffff; fill-opacity: 1; stroke-opacity: 1; stroke-width: 2; stroke: #000000" cx="1115.7" cy="-114.916" rx="299.597" ry="29.0105"/>
    <ellipse style="fill: none; stroke-opacity: 1; stroke-width: 2; stroke-dasharray: 20; stroke: #c0c0c0" cx="1112.27" cy="-116.492" rx="270.503" ry="16.8177"/>
    <ellipse style="fill: #ffffff; fill-opacity: 1; stroke-opacity: 1; stroke-width: 2; stroke: #000000" cx="1108.54" cy="-117.113" rx="62.4775" ry="8.40885"/>
    <g>
      <polygon style="fill: #000000; fill-opacity: 1; stroke-opacity: 1; stroke-width: 2; stroke: #000000" fill-rule="evenodd" points="1221.04,-149.753 1231.64,-148.53 1225.91,-137.44 "/>
      <path style="fill: #c0c0c0; fill-opacity: 1; stroke-opacity: 1; stroke-width: 2; stroke: #000000" fill-rule="evenodd" d="M 1224.77 -156.929 C 1224.79,-154.09 1416.07,-146.102 1497.3,-147.199 C 1506.5,-147.323 1523.03,-163.075 1514.96,-162.802 C 1433.71,-160.052 1224.76,-159.768 1224.77,-156.929z"/>
      <path style="fill: #c0c0c0; fill-opacity: 1; stroke-opacity: 1; stroke-width: 2; stroke: #000000" fill-rule="evenodd" d="M 1222.58 -155.948 C 1368.44,-146.574 1500.26,-147.215 1499.38,-147.09 C 1498.51,-146.965 1505.32,-135.325 1496.32,-136.45 C 1437.2,-138.64 1271.76,-146.901 1220.52,-151.256 C 1220.64,-155.841 1219.59,-156.14 1222.58,-155.948z"/>
      <path style="fill: #c0c0c0; fill-opacity: 1; stroke-opacity: 1; stroke-width: 2; stroke: #000000" fill-rule="evenodd" d="M 1499.82 -145.949 C 1499.13,-145.223 1499.7,-139.2 1499.7,-136.95 C 1499.7,-134.7 1517.9,-152.293 1518.03,-153.418 C 1518.15,-154.543 1517.35,-160.215 1517.42,-160.796 C 1514.79,-156.671 1502.07,-148.324 1499.82,-145.949z"/>
      <path style="fill: #ffffff; fill-opacity: 1; stroke-opacity: 1; stroke-width: 2; stroke: #000000" fill-rule="evenodd" d="M 1495.18 -158.351 C 1510.54,-158.122 1498.85,-151.474 1486.24,-152.162 C 1473.63,-152.849 1479.82,-158.58 1495.18,-158.351z"/>
    </g>
    <g>
      <line style="fill: none; stroke-opacity: 1; stroke-width: 2; stroke: #000000" x1="1096.74" y1="-318.046" x2="1119.2" y2="-318.2"/>
      <polygon style="fill: #000000; fill-opacity: 1; stroke-opacity: 1; stroke-width: 2; stroke: #000000" fill-rule="evenodd" points="1092.24,-318.015 1098.22,-321.056 1096.74,-318.046 1098.26,-315.056 "/>
      <path style="fill: none; stroke-opacity: 1; stroke-width: 2; stroke: #000000" d="M 1092.4,-308.2 A 90.346,90.346 0 0 0 1119.2,-308.2"/>
      <path style="fill: none; stroke-opacity: 1; stroke-width: 2; stroke: #000000" d="M 1118.8 -318.2 C 1133.2,-315 1133.2,-310.6 1118.8,-308.2"/>
      <path style="fill: none; stroke-opacity: 1; stroke-width: 2; stroke: #000000" d="M 1088 -317 C 1075.6,-314.2 1079.6,-310.2 1092.8,-308.2"/>
    </g>
    <g>
      <path style="fill: none; stroke-opacity: 1; stroke-width: 2; stroke: #000000" d="M 1483.93 -310.108 C 1501.19,-310.108 1505.19,-322.108 1495.72,-324.474"/>
      <polygon style="fill: #000000; fill-opacity: 1; stroke-opacity: 1; stroke-width: 2; stroke: #000000" fill-rule="evenodd" points="1479.43,-310.108 1485.43,-313.108 1483.93,-310.108 1485.43,-307.108 "/>
      <polygon style="fill: #000000; fill-opacity: 1; stroke-opacity: 1; stroke-width: 2; stroke: #000000" fill-rule="evenodd" points="1491.36,-325.566 1497.91,-327.021 1495.72,-324.474 1496.45,-321.2 "/>
    </g>
    <text font-size="27.0933" style="fill: #ff0000; fill-opacity: 1; stroke: none;text-anchor:start;font-family:sans-serif;font-style:normal;font-weight:normal" x="1116.55" y="-171.3">
      <tspan x="1116.55" y="-171.3">head</tspan>
    </text>
    <g>
      <line style="fill: none; stroke-opacity: 1; stroke-width: 2; stroke: #ff0000" x1="1217.68" y1="-247.226" x2="1191.45" y2="-160.847"/>
      <polygon style="fill: #ff0000; fill-opacity: 1; stroke-opacity: 1; stroke-width: 2; stroke: #ff0000" fill-rule="evenodd" points="1218.99,-251.532 1220.12,-244.92 1217.68,-247.226 1214.37,-246.663 "/>
    </g>
    <g>
      <line style="fill: none; stroke-opacity: 1; stroke-width: 2; stroke: #ff0000" x1="1214.42" y1="-143.427" x2="1192.05" y2="-161.442"/>
      <polygon style="fill: #ff0000; fill-opacity: 1; stroke-opacity: 1; stroke-width: 2; stroke: #ff0000" fill-rule="evenodd" points="1217.93,-140.605 1211.37,-142.031 1214.42,-143.427 1215.13,-146.705 "/>
    </g>
    <line style="fill: none; stroke-opacity: 1; stroke-width: 2; stroke: #ff0000" x1="1192.78" y1="-160.922" x2="1114.78" y2="-160.922"/>
    <line style="fill: none; stroke-opacity: 1; stroke-width: 2; stroke: #000000" x1="1106.92" y1="-342.04" x2="1106.98" y2="-362.134"/>
    <line style="fill: none; stroke-opacity: 1; stroke-width: 2; stroke: #000000" x1="1106.92" y1="-334.818" x2="1106.9" y2="-336.806"/>
    <line style="fill: none; stroke-opacity: 1; stroke-width: 2; stroke: #000000" x1="1106.91" y1="-327.612" x2="1106.88" y2="-329.6"/>
    <line style="fill: none; stroke-opacity: 1; stroke-width: 2; stroke: #000000" x1="1106.99" y1="-302.524" x2="1107.04" y2="-322.616"/>
    <line style="fill: none; stroke-opacity: 1; stroke-width: 2; stroke: #000000" x1="1106.91" y1="-294.944" x2="1106.88" y2="-296.932"/>
    <line style="fill: none; stroke-opacity: 1; stroke-width: 2; stroke: #000000" x1="1106.91" y1="-287.952" x2="1106.88" y2="-289.94"/>
    <line style="fill: none; stroke-opacity: 1; stroke-width: 2; stroke: #000000" x1="1106.76" y1="-262.72" x2="1106.81" y2="-282.814"/>
    <line style="fill: none; stroke-opacity: 1; stroke-width: 2; stroke: #000000" x1="1106.79" y1="-255.686" x2="1106.77" y2="-257.674"/>
    <line style="fill: none; stroke-opacity: 1; stroke-width: 2; stroke: #000000" x1="1106.91" y1="-248.35" x2="1106.88" y2="-250.338"/>
    <line style="fill: none; stroke-opacity: 1; stroke-width: 2; stroke: #000000" x1="1106.77" y1="-235.394" x2="1106.81" y2="-243.126"/>
    <line style="fill: none; stroke-opacity: 1; stroke-width: 2; stroke: #000000" x1="1106.87" y1="-183.143" x2="1106.93" y2="-203.236"/>
    <line style="fill: none; stroke-opacity: 1; stroke-width: 2; stroke: #000000" x1="1106.79" y1="-176.108" x2="1106.77" y2="-178.096"/>
    <line style="fill: none; stroke-opacity: 1; stroke-width: 2; stroke: #000000" x1="1106.91" y1="-168.973" x2="1106.88" y2="-170.96"/>
    <line style="fill: none; stroke-opacity: 1; stroke-width: 2; stroke: #000000" x1="1106.99" y1="-143.741" x2="1107.04" y2="-163.834"/>
    <line style="fill: none; stroke-opacity: 1; stroke-width: 2; stroke: #000000" x1="1107.02" y1="-136.506" x2="1107" y2="-138.493"/>
    <line style="fill: none; stroke-opacity: 1; stroke-width: 2; stroke: #000000" x1="1107.02" y1="-129.6" x2="1107" y2="-131.587"/>
    <line style="fill: none; stroke-opacity: 1; stroke-width: 2; stroke: #000000" x1="1107.04" y1="-109.067" x2="1107.04" y2="-124.031"/>
    <line style="fill: none; stroke-opacity: 1; stroke-width: 2; stroke: #000000" x1="1106.87" y1="-64.478" x2="1106.93" y2="-84.5716"/>
    <line style="fill: none; stroke-opacity: 1; stroke-width: 2; stroke: #000000" x1="1106.68" y1="-57.3006" x2="1106.65" y2="-59.2878"/>
    <line style="fill: none; stroke-opacity: 1; stroke-width: 2; stroke: #000000" x1="1106.99" y1="-24.6748" x2="1107.04" y2="-44.7684"/>
    <line style="fill: none; stroke-opacity: 1; stroke-width: 2; stroke: #000000" x1="1106.79" y1="-49.9934" x2="1106.77" y2="-51.9806"/>
    <line style="fill: none; stroke-opacity: 1; stroke-width: 2; stroke: #000000" x1="1490.87" y1="-346.728" x2="1490.86" y2="-361.962"/>
    <line style="fill: none; stroke-opacity: 1; stroke-width: 2; stroke: #000000" x1="1490.88" y1="-338.538" x2="1490.86" y2="-340.524"/>
    <line style="fill: none; stroke-opacity: 1; stroke-width: 2; stroke: #000000" x1="1490.72" y1="-331.756" x2="1490.76" y2="-333.724"/>
    <line style="fill: none; stroke-opacity: 1; stroke-width: 2; stroke: #000000" x1="1490.7" y1="-305.594" x2="1490.76" y2="-325.688"/>
    <line style="fill: none; stroke-opacity: 1; stroke-width: 2; stroke: #000000" x1="1490.62" y1="-298.582" x2="1490.6" y2="-300.57"/>
    <line style="fill: none; stroke-opacity: 1; stroke-width: 2; stroke: #000000" x1="1490.62" y1="-291.186" x2="1490.6" y2="-293.172"/>
    <line style="fill: none; stroke-opacity: 1; stroke-width: 2; stroke: #000000" x1="1490.72" y1="-276.924" x2="1490.64" y2="-286.084"/>
    <line style="fill: none; stroke-opacity: 1; stroke-width: 2; stroke: #000000" x1="1490.59" y1="-258.838" x2="1490.56" y2="-260.824"/>
    <line style="fill: none; stroke-opacity: 1; stroke-width: 2; stroke: #000000" x1="1490.46" y1="-251.664" x2="1490.43" y2="-253.65"/>
    <line style="fill: none; stroke-opacity: 1; stroke-width: 2; stroke: #000000" x1="1490.48" y1="-226.41" x2="1490.45" y2="-245.79"/>
    <line style="fill: none; stroke-opacity: 1; stroke-width: 2; stroke: #000000" x1="1490.88" y1="-186.168" x2="1490.87" y2="-198.973"/>
    <line style="fill: none; stroke-opacity: 1; stroke-width: 2; stroke: #000000" x1="1490.83" y1="-179.017" x2="1490.8" y2="-181.004"/>
    <line style="fill: none; stroke-opacity: 1; stroke-width: 2; stroke: #000000" x1="1490.86" y1="-171.557" x2="1490.84" y2="-173.544"/>
    <line style="fill: none; stroke-opacity: 1; stroke-width: 2; stroke: #000000" x1="1490.56" y1="-152.897" x2="1490.68" y2="-166.58"/>
    <line style="fill: none; stroke-opacity: 1; stroke-width: 2; stroke: #000000" x1="1490.81" y1="-99.1318" x2="1490.79" y2="-101.119"/>
    <line style="fill: none; stroke-opacity: 1; stroke-width: 2; stroke: #000000" x1="1490.73" y1="-131.94" x2="1490.71" y2="-133.928"/>
    <line style="fill: none; stroke-opacity: 1; stroke-width: 2; stroke: #000000" x1="1490.72" y1="-106.496" x2="1490.68" y2="-126.453"/>
    <line style="fill: none; stroke-opacity: 1; stroke-width: 2; stroke: #000000" x1="1490.64" y1="-66.497" x2="1490.72" y2="-71.0358"/>
    <line style="fill: none; stroke-opacity: 1; stroke-width: 2; stroke: #000000" x1="1490.71" y1="-59.7224" x2="1490.69" y2="-61.7096"/>
    <line style="fill: none; stroke-opacity: 1; stroke-width: 2; stroke: #000000" x1="1490.54" y1="-26.4484" x2="1490.6" y2="-46.5418"/>
    <line style="fill: none; stroke-opacity: 1; stroke-width: 2; stroke: #000000" x1="1490.75" y1="-52.091" x2="1490.72" y2="-54.0782"/>
    <line style="fill: none; stroke-opacity: 1; stroke-width: 2; stroke: #000000" x1="1490.81" y1="-219.272" x2="1490.79" y2="-221.26"/>
    <line style="fill: none; stroke-opacity: 1; stroke-width: 2; stroke: #000000" x1="1491.01" y1="-212.798" x2="1490.99" y2="-214.784"/>
    <g>
      <path style="fill: none; stroke-opacity: 1; stroke-width: 2; stroke: #000000" d="M 364.229,-415.895 A 183.382,183.382 0 0 0 284.688,-434.13"/>
      <polygon style="fill: #000000; fill-opacity: 1; stroke-opacity: 1; stroke-width: 2; stroke: #000000" fill-rule="evenodd" points="370.913,-412.513 359.741,-412.951 364.341,-416.127 364.559,-421.713 "/>
    </g>
  </g>
</svg>