<?xml version="1.0" encoding="UTF-8" standalone="no"?>
<!DOCTYPE svg PUBLIC "-//W3C//DTD SVG 1.0//EN" "http://www.w3.org/TR/2001/PR-SVG-20010719/DTD/svg10.dtd">
<svg width="50cm" height="31cm" viewBox="782 -403 986 616" xmlns="http://www.w3.org/2000/svg" xmlns:xlink="http://www.w3.org/1999/xlink">
  <defs/>
  <g id="Background">
    <g>
      <path style="fill: none; stroke-opacity: 1; stroke-width: 2; stroke: #ff0000" d="M 1020.25,-300.733 A 316.018,316.018 0 1 0 1549.47,-246.022"/>
      <polygon style="fill: #ff0000; fill-opacity: 1; stroke-opacity: 1; stroke-width: 2; stroke: #ff0000" fill-rule="evenodd" points="1024.98,-306.544 1022.32,-295.685 1020.13,-300.827 1014.7,-302.158 "/>
    </g>
    <text font-size="27.0933" style="fill: #ff0000; fill-opacity: 1; stroke: none;text-anchor:start;font-family:sans-serif;font-style:normal;font-weight:normal" x="855.296" y="191.616">
      <tspan x="855.296" y="191.616">Rotational latency</tspan>
    </text>
    <line style="fill: none; stroke-opacity: 1; stroke-width: 2; stroke: #ff0000" x1="1536.78" y1="-258.934" x2="1767.13" y2="-258.944"/>
    <text font-size="27.0933" style="fill: #ff0000; fill-opacity: 1; stroke: none;text-anchor:start;font-family:sans-serif;font-style:normal;font-weight:normal" x="1540.26" y="-264.13">
      <tspan x="1540.26" y="-264.13">Sector to access</tspan>
    </text>
    <g>
      <ellipse style="fill: #f8f8f8; fill-opacity: 1; stroke-opacity: 1; stroke-width: 2; stroke: #000000" cx="1266.91" cy="-102.4" rx="299" ry="299"/>
      <text font-size="12.8" style="fill: #000000; fill-opacity: 1; stroke: none;text-anchor:middle;font-family:sans-serif;font-style:normal;font-weight:normal" x="1266.91" y="-98.5187">
        <tspan x="1266.91" y="-98.5187"/>
      </text>
      <ellipse style="fill: #ffffff; fill-opacity: 1; stroke-opacity: 1; stroke-width: 2; stroke: #000000" cx="1266.91" cy="-102.4" rx="99" ry="99"/>
      <text font-size="12.8" style="fill: #000000; fill-opacity: 1; stroke: none;text-anchor:middle;font-family:sans-serif;font-style:normal;font-weight:normal" x="1266.91" y="-98.5187">
        <tspan x="1266.91" y="-98.5187"/>
      </text>
      <ellipse style="fill: none; stroke-opacity: 1; stroke-width: 2; stroke: #c0c0c0" cx="1266.91" cy="-101.4" rx="139" ry="140"/>
      <text font-size="12.8" style="fill: #000000; fill-opacity: 1; stroke: none;text-anchor:middle;font-family:sans-serif;font-style:normal;font-weight:normal" x="1266.91" y="-97.5187">
        <tspan x="1266.91" y="-97.5187"/>
      </text>
      <ellipse style="fill: none; stroke-opacity: 1; stroke-width: 2; stroke: #c0c0c0" cx="1266.91" cy="-102.4" rx="179" ry="179"/>
      <text font-size="12.8" style="fill: #000000; fill-opacity: 1; stroke: none;text-anchor:middle;font-family:sans-serif;font-style:normal;font-weight:normal" x="1266.91" y="-98.5187">
        <tspan x="1266.91" y="-98.5187"/>
      </text>
      <ellipse style="fill: none; stroke-opacity: 1; stroke-width: 2; stroke: #c0c0c0" cx="1265.91" cy="-103.4" rx="258" ry="258"/>
      <text font-size="12.8" style="fill: #000000; fill-opacity: 1; stroke: none;text-anchor:middle;font-family:sans-serif;font-style:normal;font-weight:normal" x="1265.91" y="-99.5187">
        <tspan x="1265.91" y="-99.5187"/>
      </text>
      <ellipse style="fill: none; stroke-opacity: 1; stroke-width: 2; stroke: #c0c0c0" cx="1266.91" cy="-102.4" rx="219" ry="219"/>
      <text font-size="12.8" style="fill: #000000; fill-opacity: 1; stroke: none;text-anchor:middle;font-family:sans-serif;font-style:normal;font-weight:normal" x="1266.91" y="-98.5187">
        <tspan x="1266.91" y="-98.5187"/>
      </text>
      <line style="fill: none; stroke-opacity: 1; stroke-width: 2; stroke: #c0c0c0" x1="1365.91" y1="-102.4" x2="1565.91" y2="-102.4"/>
      <line style="fill: none; stroke-opacity: 1; stroke-width: 2; stroke: #c0c0c0" x1="1266.91" y1="-401.4" x2="1266.91" y2="-201.4"/>
      <line style="fill: none; stroke-opacity: 1; stroke-width: 2; stroke: #c0c0c0" x1="1266.91" y1="196.6" x2="1266.91" y2="-3.4"/>
      <line style="fill: none; stroke-opacity: 1; stroke-width: 2; stroke: #c0c0c0" x1="1304.8" y1="-193.864" x2="1381.33" y2="-378.64"/>
      <line style="fill: none; stroke-opacity: 1; stroke-width: 2; stroke: #c0c0c0" x1="1167.91" y1="-102.4" x2="967.912" y2="-102.4"/>
      <line style="fill: none; stroke-opacity: 1; stroke-width: 2; stroke: #c0c0c0" x1="1336.92" y1="-172.404" x2="1478.34" y2="-313.824"/>
      <line style="fill: none; stroke-opacity: 1; stroke-width: 2; stroke: #c0c0c0" x1="1358.38" y1="-140.286" x2="1543.15" y2="-216.822"/>
      <line style="fill: none; stroke-opacity: 1; stroke-width: 2; stroke: #c0c0c0" x1="1358.38" y1="-64.514" x2="1543.15" y2="12.022"/>
      <line style="fill: none; stroke-opacity: 1; stroke-width: 2; stroke: #c0c0c0" x1="1336.92" y1="-32.396" x2="1478.34" y2="109.024"/>
      <line style="fill: none; stroke-opacity: 1; stroke-width: 2; stroke: #c0c0c0" x1="1304.8" y1="-10.936" x2="1381.33" y2="173.84"/>
      <line style="fill: none; stroke-opacity: 1; stroke-width: 2; stroke: #c0c0c0" x1="1229.03" y1="-10.936" x2="1152.49" y2="173.84"/>
      <line style="fill: none; stroke-opacity: 1; stroke-width: 2; stroke: #c0c0c0" x1="1175.45" y1="-64.514" x2="990.672" y2="12.022"/>
      <line style="fill: none; stroke-opacity: 1; stroke-width: 2; stroke: #c0c0c0" x1="1196.91" y1="-32.396" x2="1055.49" y2="109.024"/>
      <line style="fill: none; stroke-opacity: 1; stroke-width: 2; stroke: #c0c0c0" x1="990.672" y1="-216.822" x2="1175.45" y2="-140.286"/>
      <line style="fill: none; stroke-opacity: 1; stroke-width: 2; stroke: #c0c0c0" x1="1055.49" y1="-313.824" x2="1196.91" y2="-172.404"/>
      <line style="fill: none; stroke-opacity: 1; stroke-width: 2; stroke: #c0c0c0" x1="1152.49" y1="-378.64" x2="1229.03" y2="-193.864"/>
      <line style="fill: none; stroke-opacity: 1; stroke-width: 2; stroke: #c0c0c0" x1="1481.49" y1="-145.498" x2="1560.27" y2="-161.7"/>
      <line style="fill: none; stroke-opacity: 1; stroke-width: 2; stroke: #c0c0c0" x1="1449.68" y1="-224.28" x2="1514.49" y2="-268.576"/>
      <line style="fill: none; stroke-opacity: 1; stroke-width: 2; stroke: #c0c0c0" x1="1385.91" y1="-286.116" x2="1435.71" y2="-348.25"/>
      <line style="fill: none; stroke-opacity: 1; stroke-width: 2; stroke: #c0c0c0" x1="1307.72" y1="-318.372" x2="1323.78" y2="-395.37"/>
      <line style="fill: none; stroke-opacity: 1; stroke-width: 2; stroke: #c0c0c0" x1="1223.58" y1="-316.44" x2="1208.72" y2="-394.626"/>
      <line style="fill: none; stroke-opacity: 1; stroke-width: 2; stroke: #c0c0c0" x1="1141.72" y1="-281.508" x2="1100.1" y2="-350.33"/>
      <line style="fill: none; stroke-opacity: 1; stroke-width: 2; stroke: #c0c0c0" x1="1083" y1="-223.09" x2="1019.98" y2="-269.616"/>
      <line style="fill: none; stroke-opacity: 1; stroke-width: 2; stroke: #c0c0c0" x1="1050.6" y1="-140.74" x2="973.778" y2="-159.29"/>
      <line style="fill: none; stroke-opacity: 1; stroke-width: 2; stroke: #c0c0c0" x1="1051.19" y1="-60.472" x2="973.004" y2="-48.284"/>
      <line style="fill: none; stroke-opacity: 1; stroke-width: 2; stroke: #c0c0c0" x1="1084.49" y1="20.242" x2="1018.19" y2="62.308"/>
      <line style="fill: none; stroke-opacity: 1; stroke-width: 2; stroke: #c0c0c0" x1="1145.14" y1="80.592" x2="1099.2" y2="144.956"/>
      <line style="fill: none; stroke-opacity: 1; stroke-width: 2; stroke: #c0c0c0" x1="1224.66" y1="112.848" x2="1210.24" y2="190.44"/>
      <line style="fill: none; stroke-opacity: 1; stroke-width: 2; stroke: #c0c0c0" x1="1311" y1="112.848" x2="1325.71" y2="190.44"/>
      <line style="fill: none; stroke-opacity: 1; stroke-width: 2; stroke: #c0c0c0" x1="1389.33" y1="79.106" x2="1431.7" y2="146.442"/>
      <line style="fill: none; stroke-opacity: 1; stroke-width: 2; stroke: #c0c0c0" x1="1450.67" y1="17.716" x2="1514.29" y2="64.836"/>
      <line style="fill: none; stroke-opacity: 1; stroke-width: 2; stroke: #c0c0c0" x1="1482.19" y1="-60.026" x2="1559.78" y2="-41.892"/>
    </g>
    <g>
      <line style="fill: none; stroke-opacity: 1; stroke-width: 2; stroke: #000000" x1="1267.91" y1="-106.4" x2="1267.91" y2="-96.4"/>
      <line style="fill: none; stroke-opacity: 1; stroke-width: 2; stroke: #000000" x1="1262.91" y1="-101.4" x2="1272.91" y2="-101.4"/>
    </g>
    <g>
      <path style="fill: none; stroke-opacity: 1; stroke-width: 2; stroke: #ff0000" d="M 1161.32,-172.661 A 75.0405,75.0405 0 0 0 1138.47,-222.145"/>
      <polygon style="fill: #ff0000; fill-opacity: 1; stroke-opacity: 1; stroke-width: 2; stroke: #ff0000" fill-rule="evenodd" points="1132.88,-227.061 1143.89,-225.129 1138.9,-222.598 1137.94,-217.092 "/>
    </g>
    <text font-size="27.0933" style="fill: #ff0000; fill-opacity: 1; stroke: none;text-anchor:start;font-family:sans-serif;font-style:normal;font-weight:normal" x="1159.54" y="-209.432">
      <tspan x="1159.54" y="-209.432">Seek time</tspan>
    </text>
    <g>
      <ellipse style="fill: #000000; fill-opacity: 1; stroke-opacity: 1; stroke-width: 2.35099e-37; stroke: #000000" cx="1433.22" cy="-210.588" rx="10.6987" ry="9.97428"/>
      <text font-size="1.6" style="fill: #000000; fill-opacity: 1; stroke: none;text-anchor:middle;font-family:sans-serif;font-style:normal;font-weight:normal" x="1433.22" y="-210.103">
        <tspan x="1433.22" y="-210.103"/>
      </text>
    </g>
    <g>
      <line style="fill: none; stroke-opacity: 1; stroke-width: 2; stroke: #ff0000" x1="1449.18" y1="-217.324" x2="1537.09" y2="-259.618"/>
      <polygon style="fill: #ff0000; fill-opacity: 1; stroke-opacity: 1; stroke-width: 2; stroke: #ff0000" fill-rule="evenodd" points="1445.12,-215.373 1449.23,-220.678 1449.18,-217.324 1451.83,-215.271 "/>
    </g>
    <g>
      <path style="fill: none; stroke-opacity: 1; stroke-width: 4; stroke-dasharray: 8; stroke: #000000" d="M 1108.57,-219.135 A 197.658,197.658 0 1 0 1437.32,-201.372"/>
      <polygon style="fill: #000000; fill-opacity: 1; stroke-opacity: 1; stroke-width: 4; stroke: #000000" fill-rule="evenodd" points="1113.12,-225.083 1110.49,-214.216 1108.28,-219.352 1102.84,-220.667 "/>
    </g>
    <path style="fill: #c0c0c0; fill-opacity: 1; stroke-opacity: 1; stroke-width: 4; stroke: #000000" fill-rule="evenodd" d="M 1169.91 -164.273 C 1181.91,-160.273 913.912,-16.2734 865.912,7.7266 C 817.912,31.7266 825.912,31.7266 805.912,-8.2734 C 785.912,-48.2734 773.912,-44.2734 817.912,-60.2734 C 861.912,-76.2734 1157.91,-168.273 1169.91,-164.273z"/>
    <g>
      <ellipse style="fill: #ffffff; fill-opacity: 1; stroke-opacity: 1; stroke-width: 4; stroke: #000000" cx="838.017" cy="-24.431" rx="19.0169" ry="18.569"/>
      <text font-size="12.8" style="fill: #000000; fill-opacity: 1; stroke: none;text-anchor:middle;font-family:sans-serif;font-style:normal;font-weight:normal" x="838.017" y="-20.5498">
        <tspan x="838.017" y="-20.5498"/>
      </text>
    </g>
    <path style="fill: none; stroke-opacity: 1; stroke-width: 2; stroke-dasharray: 4; stroke: #000000" d="M 1125.89 -236 C 1137.89,-232 900,-22 864,6 C 828,34 840,38 808,-2 C 776,-42 776,-30 808,-54 C 840,-78 1113.89,-240 1125.89,-236"/>
  </g>
</svg>