<?xml version="1.0" encoding="UTF-8" standalone="no"?>
<!-- Created with Inkscape (http://www.inkscape.org/) -->

<svg
   xmlns:osb="http://www.openswatchbook.org/uri/2009/osb"
   xmlns:dc="http://purl.org/dc/elements/1.1/"
   xmlns:cc="http://creativecommons.org/ns#"
   xmlns:rdf="http://www.w3.org/1999/02/22-rdf-syntax-ns#"
   xmlns:svg="http://www.w3.org/2000/svg"
   xmlns="http://www.w3.org/2000/svg"
   xmlns:sodipodi="http://sodipodi.sourceforge.net/DTD/sodipodi-0.dtd"
   xmlns:inkscape="http://www.inkscape.org/namespaces/inkscape"
   width="26.414833mm"
   height="26.414833mm"
   viewBox="0 0 26.414833 26.414833"
   version="1.1"
   id="svg8"
   inkscape:version="0.92.4 (5da689c313, 2019-01-14)"
   sodipodi:docname="b6plus-logo.svg">
  <defs
     id="defs2">
    <linearGradient
       id="linearGradient2393"
       osb:paint="solid">
      <stop
         style="stop-color:#000000;stop-opacity:1;"
         offset="0"
         id="stop2391" />
    </linearGradient>
  </defs>
  <sodipodi:namedview
     id="base"
     pagecolor="#ffffff"
     bordercolor="#666666"
     borderopacity="1.0"
     inkscape:pageopacity="0.0"
     inkscape:pageshadow="2"
     inkscape:zoom="2.49"
     inkscape:cx="53.256726"
     inkscape:cy="43.476656"
     inkscape:document-units="mm"
     inkscape:current-layer="layer1"
     showgrid="false"
     fit-margin-top="0"
     fit-margin-left="0"
     fit-margin-right="0"
     fit-margin-bottom="0"
     inkscape:window-width="1600"
     inkscape:window-height="1176"
     inkscape:window-x="1600"
     inkscape:window-y="0"
     inkscape:window-maximized="1" />
  <metadata
     id="metadata5">
    <rdf:RDF>
      <cc:Work
         rdf:about="">
        <dc:format>image/svg+xml</dc:format>
        <dc:type
           rdf:resource="http://purl.org/dc/dcmitype/StillImage" />
        <dc:title></dc:title>
      </cc:Work>
    </rdf:RDF>
  </metadata>
  <g
     inkscape:label="Layer 1"
     inkscape:groupmode="layer"
     id="layer1"
     transform="translate(-16.690501,-116.8405)">
    <circle
       style="opacity:1;fill:#919191;fill-opacity:1;fill-rule:nonzero;stroke:#000000;stroke-width:1.54400003;stroke-miterlimit:7.66129017;stroke-dasharray:none;stroke-dashoffset:0;stroke-opacity:1"
       id="path857"
       cx="29.897917"
       cy="130.04791"
       r="12.435416" />
    <g
       id="g849"
       transform="translate(-29.244725,-33.298525)">
      <g
         aria-label="b"
         style="font-style:normal;font-variant:normal;font-weight:normal;font-stretch:condensed;font-size:16.93333244px;line-height:125%;font-family:'Arial Narrow';-inkscape-font-specification:'Arial Narrow, Condensed';font-variant-ligatures:normal;font-variant-caps:normal;font-variant-numeric:normal;font-feature-settings:normal;text-align:start;letter-spacing:0px;word-spacing:0px;writing-mode:lr-tb;text-anchor:start;fill:#000000;fill-opacity:1;stroke:none;stroke-width:0.26458332px;stroke-linecap:butt;stroke-linejoin:miter;stroke-opacity:1"
         id="text817">
        <path
           d="m 54.178161,169.30783 h -1.132747 v -12.12122 h 1.215429 v 4.32428 q 0.388607,-0.59531 0.876433,-0.8847 0.496093,-0.29766 1.099674,-0.29766 0.843359,0 1.529622,0.50437 0.694531,0.50436 1.107943,1.52962 0.413411,1.02526 0.413411,2.48874 0,2.23242 -0.934309,3.44785 -0.93431,1.20716 -2.182813,1.20716 -0.628385,0 -1.132747,-0.32246 -0.496094,-0.33073 -0.859896,-0.97565 z m -0.01654,-4.45657 q 0,1.36425 0.248046,2.04225 0.248047,0.67799 0.7028,1.03353 0.454752,0.35553 1.008724,0.35553 0.752409,0 1.331185,-0.84336 0.587044,-0.85163 0.587044,-2.53835 0,-1.72805 -0.56224,-2.53834 -0.562239,-0.81029 -1.380794,-0.81029 -0.752409,0 -1.347721,0.85163 -0.587044,0.84336 -0.587044,2.4474 z"
           style="font-style:normal;font-variant:normal;font-weight:normal;font-stretch:condensed;font-size:16.93333244px;font-family:'Arial Narrow';-inkscape-font-specification:'Arial Narrow, Condensed';font-variant-ligatures:normal;font-variant-caps:normal;font-variant-numeric:normal;font-feature-settings:normal;text-align:start;writing-mode:lr-tb;text-anchor:start;stroke-width:0.26458332px"
           id="path2421"
           inkscape:connector-curvature="0" />
      </g>
      <g
         aria-label="6"
         style="font-style:normal;font-variant:normal;font-weight:bold;font-stretch:condensed;font-size:8.46666622px;line-height:125%;font-family:'Arial Narrow';-inkscape-font-specification:'Arial Narrow, Bold Condensed';font-variant-ligatures:normal;font-variant-caps:normal;font-variant-numeric:normal;font-feature-settings:normal;text-align:start;letter-spacing:0px;word-spacing:0px;writing-mode:lr-tb;text-anchor:start;fill:#ffffff;fill-opacity:1;stroke:none;stroke-width:0.26458332px;stroke-linecap:butt;stroke-linejoin:miter;stroke-opacity:1"
         id="text821">
        <path
           d="m 65.066237,158.69555 -0.921907,0.12403 q -0.06615,-0.678 -0.541569,-0.678 -0.310059,0 -0.516764,0.339 -0.202572,0.339 -0.256315,1.36839 0.177767,-0.25631 0.396875,-0.38447 0.219108,-0.12816 0.483691,-0.12816 0.58291,0 1.016992,0.5457 0.434082,0.54157 0.434082,1.44281 0,0.95912 -0.458887,1.50482 -0.458886,0.5457 -1.136881,0.5457 -0.744141,0 -1.2361,-0.70693 -0.487826,-0.71107 -0.487826,-2.35231 0,-1.66605 0.508496,-2.39779 0.508496,-0.73174 1.30638,-0.73174 0.549838,0 0.926042,0.37621 0.380339,0.37207 0.483691,1.13274 z m -2.153873,2.53422 q 0,0.57464 0.21084,0.88056 0.214974,0.30179 0.487825,0.30179 0.264584,0 0.438216,-0.25218 0.177767,-0.25218 0.177767,-0.82682 0,-0.59531 -0.190169,-0.86817 -0.190169,-0.27285 -0.471289,-0.27285 -0.272852,0 -0.463021,0.26045 -0.190169,0.26045 -0.190169,0.77722 z"
           style="font-style:normal;font-variant:normal;font-weight:bold;font-stretch:condensed;font-size:8.46666622px;font-family:'Arial Narrow';-inkscape-font-specification:'Arial Narrow, Bold Condensed';font-variant-ligatures:normal;font-variant-caps:normal;font-variant-numeric:normal;font-feature-settings:normal;text-align:start;writing-mode:lr-tb;text-anchor:start;fill:#ffffff;fill-opacity:1;stroke-width:0.26458332px"
           id="path2424"
           inkscape:connector-curvature="0" />
      </g>
      <g
         aria-label="+"
         style="font-style:normal;font-variant:normal;font-weight:bold;font-stretch:condensed;font-size:8.46666622px;line-height:125%;font-family:'Arial Narrow';-inkscape-font-specification:'Arial Narrow, Bold Condensed';font-variant-ligatures:normal;font-variant-caps:normal;font-variant-numeric:normal;font-feature-settings:normal;text-align:start;letter-spacing:0px;word-spacing:0px;writing-mode:lr-tb;text-anchor:start;fill:#ffffff;fill-opacity:1;stroke:none;stroke-width:0.26458332px;stroke-linecap:butt;stroke-linejoin:miter;stroke-opacity:1"
         id="text825">
        <path
           d="m 63.065325,169.50627 v -1.5751 h -1.302246 v -1.08727 h 1.302246 v -1.57509 h 0.868164 v 1.57509 h 1.30638 v 1.08727 h -1.30638 v 1.5751 z"
           style="font-style:normal;font-variant:normal;font-weight:bold;font-stretch:condensed;font-size:8.46666622px;font-family:'Arial Narrow';-inkscape-font-specification:'Arial Narrow, Bold Condensed';font-variant-ligatures:normal;font-variant-caps:normal;font-variant-numeric:normal;font-feature-settings:normal;text-align:start;writing-mode:lr-tb;text-anchor:start;fill:#ffffff;fill-opacity:1;stroke-width:0.26458332px"
           id="path2427"
           inkscape:connector-curvature="0" />
      </g>
    </g>
  </g>
</svg>
