<?xml version="1.0" standalone="no"?>
<!DOCTYPE svg PUBLIC "-//W3C//DTD SVG 1.1//EN" "http://www.w3.org/Graphics/SVG/1.1/DTD/svg11.dtd">
<svg xmlns:xlink="http://www.w3.org/1999/xlink" width="1.233ex" height="2.009ex" style="vertical-align: -0.671ex; margin-left: -0.063ex;" viewBox="-27 -576.1 530.7 865.1" xmlns="http://www.w3.org/2000/svg">
<defs>
<path stroke-width="10" id="E1-MJMAINI-237" d="M75 284T75 287T81 305T101 343T133 389T180 426T240 442Q273 440 300 420T327 350V332L278 134Q267 92 253 37T233 -45T225 -73Q208 -123 162 -163T54 -204Q8 -204 -15 -181Q-32 -164 -32 -140Q-32 -112 -14 -96T27 -79Q48 -79 57 -91T67 -114Q67 -146 39 -166L44 -167H59H60Q112 -167 145 -74Q148 -65 198 134T251 347Q252 353 252 370Q252 382 251 388T245 399T230 405Q204 405 175 378Q157 360 145 337T126 298T117 280T98 278H81Q75 284 75 287Z"></path>
</defs>
<g stroke="currentColor" fill="currentColor" stroke-width="0" transform="matrix(1 0 0 -1 0 0)">
 <use xlink:href="#E1-MJMAINI-237" x="0" y="0"></use>
</g>
</svg>