<?xml version="1.0" standalone="no"?>
<!DOCTYPE svg PUBLIC "-//W3C//DTD SVG 1.1//EN" "http://www.w3.org/Graphics/SVG/1.1/DTD/svg11.dtd">
<svg xmlns:xlink="http://www.w3.org/1999/xlink" width="2.206ex" height="2.509ex" style="vertical-align: -0.671ex;" viewBox="0 -791.3 949.7 1080.4" xmlns="http://www.w3.org/2000/svg">
<defs>
<path stroke-width="10" id="E1-MJMAIN-2287" d="M83 616Q83 628 98 636H251Q267 636 297 636T343 637Q427 637 488 621T605 551Q693 470 693 346Q693 261 650 195T545 96T415 57Q407 56 251 56H98Q83 64 83 76Q83 86 96 96H255H308H337Q412 96 439 100T512 124Q533 135 553 150T599 192T639 259T654 346Q654 437 592 507Q557 545 512 568Q468 587 439 591T335 596H306H255L96 597Q83 607 83 616ZM84 -131T84 -118T98 -98H659Q674 -106 674 -118T659 -138H98Q84 -131 84 -118Z"></path>
</defs>
<g stroke="currentColor" fill="currentColor" stroke-width="0" transform="matrix(1 0 0 -1 0 0)">
 <use xlink:href="#E1-MJMAIN-2287" x="0" y="0"></use>
</g>
</svg>