<?xml version="1.0" standalone="no"?>
<!DOCTYPE svg PUBLIC "-//W3C//DTD SVG 1.1//EN" "http://www.w3.org/Graphics/SVG/1.1/DTD/svg11.dtd">
<svg xmlns:xlink="http://www.w3.org/1999/xlink" width="2.206ex" height="2.509ex" style="vertical-align: -0.671ex;" viewBox="0 -791.3 949.7 1080.4" xmlns="http://www.w3.org/2000/svg">
<defs>
<path stroke-width="10" id="E1-MJMAIN-2AB0" d="M84 614Q84 636 102 636Q115 636 119 626T125 600T137 556T171 501Q277 372 640 366H661Q694 366 694 346T661 326H640Q578 325 526 321T415 307T309 280T222 237T156 172T124 83Q122 66 118 62T103 57Q100 57 98 57T95 58T93 59T90 62T85 67Q83 71 83 80Q88 126 105 164T151 229T208 275T277 309T342 330T404 346Q401 347 380 351T345 360T302 373T245 396Q125 455 92 565Q84 599 84 614ZM84 -131T84 -118T98 -98H679Q694 -106 694 -118T679 -138H98Q84 -131 84 -118Z"></path>
</defs>
<g stroke="currentColor" fill="currentColor" stroke-width="0" transform="matrix(1 0 0 -1 0 0)">
 <use xlink:href="#E1-MJMAIN-2AB0" x="0" y="0"></use>
</g>
</svg>