<?xml version="1.0" standalone="no"?>
<!DOCTYPE svg PUBLIC "-//W3C//DTD SVG 1.1//EN" "http://www.w3.org/Graphics/SVG/1.1/DTD/svg11.dtd">
<svg xmlns:xlink="http://www.w3.org/1999/xlink" width="1.771ex" height="2.176ex" style="vertical-align: -0.338ex;" viewBox="0 -791.3 762.7 936.9" xmlns="http://www.w3.org/2000/svg">
<defs>
<path stroke-width="10" id="E1-MJMATHI-3D1" d="M537 500Q537 474 533 439T524 383L521 362Q558 355 561 351Q563 349 563 345Q563 321 552 318Q542 318 521 323L510 326Q496 261 459 187T362 51T241 -11Q100 -11 100 105Q100 139 127 242T154 366Q154 405 128 405Q107 405 92 377T68 316T57 280Q55 278 41 278H27Q21 284 21 287Q21 291 27 313T47 368T79 418Q103 442 134 442Q169 442 201 419T233 344Q232 330 206 228T180 98Q180 26 247 26Q292 26 332 90T404 260L427 349Q422 349 398 359T339 392T289 440Q265 476 265 520Q265 590 312 647T417 705Q463 705 491 670T528 592T537 500ZM464 564Q464 668 413 668Q373 668 339 622T304 522Q304 494 317 470T349 431T388 406T421 391T435 387H436L443 415Q450 443 457 485T464 564Z"></path>
</defs>
<g stroke="currentColor" fill="currentColor" stroke-width="0" transform="matrix(1 0 0 -1 0 0)">
 <use xlink:href="#E1-MJMATHI-3D1" x="0" y="0"></use>
</g>
</svg>