<?xml version="1.0" standalone="no"?>
<!DOCTYPE svg PUBLIC "-//W3C//DTD SVG 1.1//EN" "http://www.w3.org/Graphics/SVG/1.1/DTD/svg11.dtd">
<svg xmlns:xlink="http://www.w3.org/1999/xlink" width="3.43ex" height="5.843ex" style="vertical-align: -2.338ex;" viewBox="0 -1508.9 1477 2515.6" xmlns="http://www.w3.org/2000/svg">
<defs>
<path stroke-width="10" id="E1-MJSZ2-222C" d="M114 -798Q132 -824 165 -824H167Q195 -824 223 -764T275 -600T320 -391T362 -164Q365 -143 367 -133Q439 292 523 655T645 1127Q651 1145 655 1157T672 1201T699 1257T733 1306T777 1346T828 1360Q884 1360 912 1325T944 1245Q944 1220 932 1205T909 1186T887 1183Q866 1183 849 1198T832 1239Q832 1287 885 1296L882 1300Q879 1303 874 1307T866 1313Q851 1323 833 1323Q819 1323 807 1311T775 1255T736 1139T689 936T633 628Q574 293 510 -5T410 -437T355 -629Q278 -862 165 -862Q125 -862 92 -831T55 -746Q55 -711 74 -698T112 -685Q133 -685 150 -700T167 -741Q167 -789 114 -798ZM642 -798Q660 -824 693 -824H695Q723 -824 751 -764T803 -600T848 -391T890 -164Q893 -143 895 -133Q967 292 1051 655T1173 1127Q1179 1145 1183 1157T1200 1201T1227 1257T1261 1306T1305 1346T1356 1360Q1412 1360 1440 1325T1472 1245Q1472 1220 1460 1205T1437 1186T1415 1183Q1394 1183 1377 1198T1360 1239Q1360 1287 1413 1296L1410 1300Q1407 1303 1402 1307T1394 1313Q1379 1323 1361 1323Q1347 1323 1335 1311T1303 1255T1264 1139T1217 936T1161 628Q1102 293 1038 -5T938 -437T883 -629Q806 -862 693 -862Q653 -862 620 -831T583 -746Q583 -711 602 -698T640 -685Q661 -685 678 -700T695 -741Q695 -789 642 -798Z"></path>
</defs>
<g stroke="currentColor" fill="currentColor" stroke-width="0" transform="matrix(1 0 0 -1 0 0)">
 <use xlink:href="#E1-MJSZ2-222C" x="0" y="0"></use>
</g>
</svg>