<?xml version="1.0" standalone="no"?>
<!DOCTYPE svg PUBLIC "-//W3C//DTD SVG 1.1//EN" "http://www.w3.org/Graphics/SVG/1.1/DTD/svg11.dtd">
<svg xmlns:xlink="http://www.w3.org/1999/xlink" width="28.834ex" height="2.176ex" style="vertical-align: -0.338ex;" viewBox="0 -791.3 12414.7 936.9" xmlns="http://www.w3.org/2000/svg">
<defs>
<path stroke-width="10" id="E1-MJMAINB-41" d="M296 0Q278 3 164 3Q58 3 49 0H40V62H92Q144 62 144 64Q388 682 397 689Q403 698 434 698Q463 698 471 689Q475 686 538 530T663 218L724 64Q724 62 776 62H828V0H817Q796 3 658 3Q509 3 485 0H472V62H517Q561 62 561 63L517 175H262L240 120Q218 65 217 64Q217 62 261 62H306V0H296ZM390 237L492 238L440 365Q390 491 388 491Q287 239 287 237H390Z"></path>
<path stroke-width="10" id="E1-MJMAINB-42" d="M720 510Q720 476 704 448T665 404T619 377T580 362L564 359L583 356Q602 353 632 342T690 312Q712 292 725 276Q752 235 752 189V183Q752 160 741 125Q698 18 547 2Q543 1 288 0H39V62H147V624H39V686H264H409Q502 686 542 681T624 655Q720 607 720 510ZM563 513Q563 553 548 578T518 611T486 622Q479 624 385 624H293V382H375Q458 383 467 385Q563 405 563 513ZM590 192Q590 307 505 329Q504 330 503 330L398 331H293V62H391H400H444Q496 62 528 75T580 131Q590 155 590 192Z"></path>
<path stroke-width="10" id="E1-MJMAINB-43" d="M64 343Q64 502 174 599T468 697Q502 697 533 691T586 674T623 655T647 639T657 632L694 663Q703 670 711 677T723 687T730 692T735 695T740 696T746 697Q759 697 762 692T766 668V627V489V449Q766 428 762 424T742 419H732H720Q699 419 697 436Q690 498 657 545Q611 618 532 632Q522 634 496 634Q356 634 286 553Q232 488 232 343T286 133Q355 52 497 52Q597 52 650 112T704 237Q704 248 709 251T729 254H735Q750 254 755 253T763 248T766 234Q766 136 680 63T469 -11Q285 -11 175 86T64 343Z"></path>
<path stroke-width="10" id="E1-MJMAINB-44" d="M39 624V686H270H310H408Q500 686 545 680T638 649Q768 584 805 438Q817 388 817 338Q817 171 702 75Q628 17 515 2Q504 1 270 0H39V62H147V624H39ZM655 337Q655 370 655 390T650 442T639 494T616 540T580 580T526 607T451 623Q443 624 368 624H298V62H377H387H407Q445 62 472 65T540 83T606 129Q629 156 640 195T653 262T655 337Z"></path>
<path stroke-width="10" id="E1-MJMAINB-45" d="M723 286Q721 284 700 145T677 3V0H39V62H147V618H39V680H660V676Q662 670 675 552T691 428V424H629V428Q629 429 627 448T618 494T601 541Q574 593 527 605T382 618H374H304V384H336Q338 384 347 384T361 384T376 386T392 390T407 397T421 407T432 423Q442 444 443 482V501H505V205H443V224Q442 258 435 278T411 307T380 318T336 322H304V62H375H394Q429 62 449 62T497 66T541 76T577 95T609 126T632 170T651 232Q661 287 661 289H723V286Z"></path>
<path stroke-width="10" id="E1-MJMAINB-46" d="M425 0L228 3Q63 3 51 0H39V62H147V618H39V680H644V676Q647 670 659 552T675 428V424H613Q613 433 605 477Q599 511 589 535T562 574T530 599T488 612T441 617T387 618H368H304V371H333Q389 373 411 390T437 468V488H499V192H437V212Q436 244 430 263T408 292T378 305T333 309H304V62H439V0H425Z"></path>
<path stroke-width="10" id="E1-MJMAINB-61" d="M64 349Q64 399 107 426T255 453Q346 453 402 423T473 341Q478 327 478 310T479 196V77Q493 63 529 62Q549 62 553 57T558 31Q558 9 552 5T514 0H497H481Q375 0 367 56L356 46Q300 -6 210 -6Q130 -6 81 30T32 121Q32 188 111 226T332 272H350V292Q350 313 348 327T337 361T306 391T248 402T194 399H189Q204 376 204 354Q204 327 187 306T134 284Q97 284 81 305T64 349ZM164 121Q164 89 186 67T238 45Q274 45 307 63T346 108L350 117V226H347Q248 218 206 189T164 121Z"></path>
<path stroke-width="10" id="E1-MJMAINB-62" d="M32 686L123 690Q214 694 215 694H221V409Q289 450 378 450Q479 450 539 387T600 221Q600 122 535 58T358 -6H355Q272 -6 203 53L160 1L129 0H98V301Q98 362 98 435T99 525Q99 591 97 604T83 620Q69 624 42 624H29V686H32ZM227 105L232 99Q237 93 242 87T258 73T280 59T306 49T339 45Q380 45 411 66T451 131Q457 160 457 230Q457 264 456 284T448 329T430 367T396 389T343 398Q282 398 235 355L227 348V105Z"></path>
<path stroke-width="10" id="E1-MJMAINB-63" d="M447 131H458Q478 131 478 117Q478 112 471 95T439 51T377 9Q330 -6 286 -6Q196 -6 135 35Q39 96 39 222Q39 324 101 384Q169 453 286 453Q359 453 411 431T464 353Q464 319 445 302T395 284Q360 284 343 305T325 353Q325 380 338 396H333Q317 398 295 398H292Q280 398 271 397T245 390T218 373T197 338T183 283Q182 275 182 231Q182 199 184 180T193 132T220 85T270 57Q289 50 317 50H326Q385 50 414 115Q419 127 423 129T447 131Z"></path>
<path stroke-width="10" id="E1-MJMAINB-64" d="M351 686L442 690Q533 694 534 694H540V389Q540 327 540 253T539 163Q539 97 541 83T555 66Q569 62 596 62H609V31Q609 0 608 0Q588 0 510 -3T412 -6Q411 -6 411 16V38L401 31Q337 -6 265 -6Q159 -6 99 58T38 224Q38 265 51 303T92 375T165 429T272 449Q359 449 417 412V507V555Q417 597 415 607T402 620Q388 624 361 624H348V686H351ZM411 350Q362 399 291 399Q278 399 256 392T218 371Q195 351 189 320T182 238V221Q182 179 183 159T191 115T212 74Q241 46 288 46Q358 46 404 100L411 109V350Z"></path>
<path stroke-width="10" id="E1-MJMAINB-65" d="M32 225Q32 332 102 392T272 452H283Q382 452 436 401Q494 343 494 243Q494 226 486 222T440 217Q431 217 394 217T327 218H175V209Q175 177 179 154T196 107T236 69T306 50Q312 49 323 49Q376 49 410 85Q421 99 427 111T434 127T442 133T463 135H468Q494 135 494 117Q494 110 489 97T468 66T431 32T373 5T292 -6Q181 -6 107 55T32 225ZM383 276Q377 346 348 374T280 402Q253 402 230 390T195 357Q179 331 176 279V266H383V276Z"></path>
<path stroke-width="10" id="E1-MJMAINB-66" d="M308 0Q290 3 172 3Q58 3 49 0H40V62H109V382H42V444H109V503L110 562L112 572Q127 625 178 658T316 699Q318 699 330 699T348 700Q381 698 404 687T436 658T449 629T452 606Q452 576 432 557T383 537Q355 537 335 555T314 605Q314 635 328 649H325Q311 649 293 644T253 618T227 560Q226 555 226 498V444H340V382H232V62H318V0H308Z"></path>
<path stroke-width="10" id="E1-MJMAINB-31" d="M481 0L294 3Q136 3 109 0H96V62H227V304Q227 546 225 546Q169 529 97 529H80V591H97Q231 591 308 647L319 655H333Q355 655 359 644Q361 640 361 351V62H494V0H481Z"></path>
<path stroke-width="10" id="E1-MJMAINB-32" d="M175 580Q175 578 185 572T205 551T215 510Q215 467 191 449T137 430Q107 430 83 448T58 511Q58 558 91 592T168 640T259 654Q328 654 383 637Q451 610 484 563T517 459Q517 401 482 360T368 262Q340 243 265 184L210 140H274Q416 140 429 145Q439 148 447 186T455 237H517V233Q516 230 501 119Q489 9 486 4V0H57V25Q57 51 58 54Q60 57 109 106T215 214T288 291Q364 377 364 458Q364 515 328 553T231 592Q214 592 201 589T181 584T175 580Z"></path>
<path stroke-width="10" id="E1-MJMAINB-33" d="M80 503Q80 565 133 610T274 655Q366 655 421 623T491 538Q493 528 493 510Q493 446 453 407T361 348L376 344Q452 324 489 281T526 184Q526 152 514 121T474 58T392 8T265 -11Q175 -11 111 34T48 152Q50 187 72 209T132 232Q171 232 193 208T216 147Q216 136 214 126T207 108T197 94T187 84T178 77T170 72L168 71Q168 70 179 65T215 54T266 48H270Q331 48 350 105Q358 128 358 185Q358 239 348 268T309 313Q292 321 242 322Q205 322 198 324T191 341V348Q191 366 196 369T232 375Q239 375 247 376T260 377T268 378Q284 383 297 393T326 436T341 517Q341 536 339 547T331 573T308 593T266 600Q248 600 241 599Q214 593 183 576Q234 556 234 503Q234 462 210 444T157 426Q126 426 103 446T80 503Z"></path>
<path stroke-width="10" id="E1-MJMAINB-34" d="M531 0Q510 3 381 3Q238 3 214 0H201V62H313V155H32V217L205 434Q342 606 362 630T387 655L391 656Q395 656 401 656T414 656H427Q447 656 451 645Q453 641 453 429V217H542V155H453V62H542V0H531ZM324 217V494L103 218L213 217H324Z"></path>
<path stroke-width="10" id="E1-MJMAINB-35" d="M100 565V605Q100 637 102 646T113 655Q116 655 139 647T202 631T286 623Q332 623 372 631T434 647T459 655Q466 655 469 651T472 643T472 629Q472 613 463 601Q370 487 219 487Q195 487 183 488T169 490T168 433V376Q169 376 174 379T188 387T211 397T244 405T288 409Q390 409 453 352T517 201Q517 106 445 48T253 -11Q169 -11 113 37T57 154Q57 187 79 208T131 229T183 209T206 154Q206 99 155 83Q152 82 157 78Q196 47 253 47Q347 47 358 135Q358 137 358 138Q360 158 360 209Q360 277 355 301T337 338Q315 358 282 358Q202 358 160 303Q153 294 149 292T130 290Q107 290 102 301Q100 304 100 474V565Z"></path>
<path stroke-width="10" id="E1-MJMAINB-36" d="M48 318Q48 395 68 456T120 553T193 613T273 646T350 655Q425 655 461 616T497 524Q497 485 475 468T428 451Q399 451 378 470T357 521Q357 565 403 588Q375 601 351 601Q313 601 282 584Q242 565 222 526Q199 473 199 367Q201 369 210 380T227 396T246 410T275 422T312 426Q438 426 494 332Q526 285 526 208V199Q526 112 465 53Q428 17 388 3T285 -11Q236 -11 195 7T135 43T104 80Q48 165 48 318ZM375 231V244V268Q375 295 373 310T364 342T341 366T299 374H297Q231 374 208 287Q200 257 200 196Q201 120 209 100Q231 47 288 47Q351 47 368 90Q375 112 375 231Z"></path>
</defs>
<g stroke="currentColor" fill="currentColor" stroke-width="0" transform="matrix(1 0 0 -1 0 0)">
 <use xlink:href="#E1-MJMAINB-41" x="0" y="0"></use>
 <use xlink:href="#E1-MJMAINB-42" x="874" y="0"></use>
 <use xlink:href="#E1-MJMAINB-43" x="1697" y="0"></use>
 <use xlink:href="#E1-MJMAINB-44" x="2533" y="0"></use>
 <use xlink:href="#E1-MJMAINB-45" x="3420" y="0"></use>
 <use xlink:href="#E1-MJMAINB-46" x="4181" y="0"></use>
 <use xlink:href="#E1-MJMAINB-61" x="5160" y="0"></use>
 <use xlink:href="#E1-MJMAINB-62" x="5724" y="0"></use>
 <use xlink:href="#E1-MJMAINB-63" x="6368" y="0"></use>
 <use xlink:href="#E1-MJMAINB-64" x="6884" y="0"></use>
 <use xlink:href="#E1-MJMAINB-65" x="7528" y="0"></use>
 <use xlink:href="#E1-MJMAINB-66" x="8060" y="0"></use>
<g transform="translate(8768,0)">
 <use xlink:href="#E1-MJMAINB-31"></use>
 <use xlink:href="#E1-MJMAINB-32" x="580" y="0"></use>
 <use xlink:href="#E1-MJMAINB-33" x="1160" y="0"></use>
 <use xlink:href="#E1-MJMAINB-34" x="1740" y="0"></use>
 <use xlink:href="#E1-MJMAINB-35" x="2320" y="0"></use>
 <use xlink:href="#E1-MJMAINB-36" x="2900" y="0"></use>
</g>
</g>
</svg>