<?xml version="1.0" standalone="no"?>
<!DOCTYPE svg PUBLIC "-//W3C//DTD SVG 1.1//EN" "http://www.w3.org/Graphics/SVG/1.1/DTD/svg11.dtd">
<svg xmlns:xlink="http://www.w3.org/1999/xlink" width="40.04ex" height="3.009ex" style="vertical-align: -0.671ex;" viewBox="0 -1006.6 17239.3 1295.7" xmlns="http://www.w3.org/2000/svg">
<defs>
<path stroke-width="10" id="E1-MJMAIN-35" d="M164 157Q164 133 148 117T109 101H102Q148 22 224 22Q294 22 326 82Q345 115 345 210Q345 313 318 349Q292 382 260 382H254Q176 382 136 314Q132 307 129 306T114 304Q97 304 95 310Q93 314 93 485V614Q93 664 98 664Q100 666 102 666Q103 666 123 658T178 642T253 634Q324 634 389 662Q397 666 402 666Q410 666 410 648V635Q328 538 205 538Q174 538 149 544L139 546V374Q158 388 169 396T205 412T256 420Q337 420 393 355T449 201Q449 109 385 44T229 -22Q148 -22 99 32T50 154Q50 178 61 192T84 210T107 214Q132 214 148 197T164 157Z"></path>
<path stroke-width="10" id="E1-MJMAIN-30" d="M96 585Q152 666 249 666Q297 666 345 640T423 548Q460 465 460 320Q460 165 417 83Q397 41 362 16T301 -15T250 -22Q224 -22 198 -16T137 16T82 83Q39 165 39 320Q39 494 96 585ZM321 597Q291 629 250 629Q208 629 178 597Q153 571 145 525T137 333Q137 175 145 125T181 46Q209 16 250 16Q290 16 318 46Q347 76 354 130T362 333Q362 478 354 524T321 597Z"></path>
<path stroke-width="10" id="E1-MJMAIN-61" d="M137 305T115 305T78 320T63 359Q63 394 97 421T218 448Q291 448 336 416T396 340Q401 326 401 309T402 194V124Q402 76 407 58T428 40Q443 40 448 56T453 109V145H493V106Q492 66 490 59Q481 29 455 12T400 -6T353 12T329 54V58L327 55Q325 52 322 49T314 40T302 29T287 17T269 6T247 -2T221 -8T190 -11Q130 -11 82 20T34 107Q34 128 41 147T68 188T116 225T194 253T304 268H318V290Q318 324 312 340Q290 411 215 411Q197 411 181 410T156 406T148 403Q170 388 170 359Q170 334 154 320ZM126 106Q126 75 150 51T209 26Q247 26 276 49T315 109Q317 116 318 175Q318 233 317 233Q309 233 296 232T251 223T193 203T147 166T126 106Z"></path>
<path stroke-width="10" id="E1-MJMAIN-70" d="M36 -148H50Q89 -148 97 -134V-126Q97 -119 97 -107T97 -77T98 -38T98 6T98 55T98 106Q98 140 98 177T98 243T98 296T97 335T97 351Q94 370 83 376T38 385H20V408Q20 431 22 431L32 432Q42 433 61 434T98 436Q115 437 135 438T165 441T176 442H179V416L180 390L188 397Q247 441 326 441Q407 441 464 377T522 216Q522 115 457 52T310 -11Q242 -11 190 33L182 40V-45V-101Q182 -128 184 -134T195 -145Q216 -148 244 -148H260V-194H252L228 -193Q205 -192 178 -192T140 -191Q37 -191 28 -194H20V-148H36ZM424 218Q424 292 390 347T305 402Q234 402 182 337V98Q222 26 294 26Q345 26 384 80T424 218Z"></path>
<path stroke-width="10" id="E1-MJMAIN-6C" d="M42 46H56Q95 46 103 60V68Q103 77 103 91T103 124T104 167T104 217T104 272T104 329Q104 366 104 407T104 482T104 542T103 586T103 603Q100 622 89 628T44 637H26V660Q26 683 28 683L38 684Q48 685 67 686T104 688Q121 689 141 690T171 693T182 694H185V379Q185 62 186 60Q190 52 198 49Q219 46 247 46H263V0H255L232 1Q209 2 183 2T145 3T107 3T57 1L34 0H26V46H42Z"></path>
<path stroke-width="10" id="E1-MJMAIN-65" d="M28 218Q28 273 48 318T98 391T163 433T229 448Q282 448 320 430T378 380T406 316T415 245Q415 238 408 231H126V216Q126 68 226 36Q246 30 270 30Q312 30 342 62Q359 79 369 104L379 128Q382 131 395 131H398Q415 131 415 121Q415 117 412 108Q393 53 349 21T250 -11Q155 -11 92 58T28 218ZM333 275Q322 403 238 411H236Q228 411 220 410T195 402T166 381T143 340T127 274V267H333V275Z"></path>
<path stroke-width="10" id="E1-MJMAIN-73" d="M295 316Q295 356 268 385T190 414Q154 414 128 401Q98 382 98 349Q97 344 98 336T114 312T157 287Q175 282 201 278T245 269T277 256Q294 248 310 236T342 195T359 133Q359 71 321 31T198 -10H190Q138 -10 94 26L86 19L77 10Q71 4 65 -1L54 -11H46H42Q39 -11 33 -5V74V132Q33 153 35 157T45 162H54Q66 162 70 158T75 146T82 119T101 77Q136 26 198 26Q295 26 295 104Q295 133 277 151Q257 175 194 187T111 210Q75 227 54 256T33 318Q33 357 50 384T93 424T143 442T187 447H198Q238 447 268 432L283 424L292 431Q302 440 314 448H322H326Q329 448 335 442V310L329 304H301Q295 310 295 316Z"></path>
<path stroke-width="10" id="E1-MJMAIN-D7" d="M630 29Q630 9 609 9Q604 9 587 25T493 118L389 222L284 117Q178 13 175 11Q171 9 168 9Q160 9 154 15T147 29Q147 36 161 51T255 146L359 250L255 354Q174 435 161 449T147 471Q147 480 153 485T168 490Q173 490 175 489Q178 487 284 383L389 278L493 382Q570 459 587 475T609 491Q630 491 630 471Q630 464 620 453T522 355L418 250L522 145Q606 61 618 48T630 29Z"></path>
<path stroke-width="10" id="E1-MJMAIN-31" d="M213 578L200 573Q186 568 160 563T102 556H83V602H102Q149 604 189 617T245 641T273 663Q275 666 285 666Q294 666 302 660V361L303 61Q310 54 315 52T339 48T401 46H427V0H416Q395 3 257 3Q121 3 100 0H88V46H114Q136 46 152 46T177 47T193 50T201 52T207 57T213 61V578Z"></path>
<path stroke-width="10" id="E1-MJMAINB-61" d="M64 349Q64 399 107 426T255 453Q346 453 402 423T473 341Q478 327 478 310T479 196V77Q493 63 529 62Q549 62 553 57T558 31Q558 9 552 5T514 0H497H481Q375 0 367 56L356 46Q300 -6 210 -6Q130 -6 81 30T32 121Q32 188 111 226T332 272H350V292Q350 313 348 327T337 361T306 391T248 402T194 399H189Q204 376 204 354Q204 327 187 306T134 284Q97 284 81 305T64 349ZM164 121Q164 89 186 67T238 45Q274 45 307 63T346 108L350 117V226H347Q248 218 206 189T164 121Z"></path>
<path stroke-width="10" id="E1-MJMAINB-70" d="M32 442L123 446Q214 450 215 450H221V409Q222 409 229 413T251 423T284 436T328 446T382 450Q480 450 540 388T600 223Q600 128 539 61T361 -6H354Q292 -6 236 28L227 34V-132H296V-194H287Q269 -191 163 -191Q56 -191 38 -194H29V-132H98V113V284Q98 330 97 348T93 370T83 376Q69 380 42 380H29V442H32ZM457 224Q457 303 427 349T350 395Q282 395 235 352L227 345V104L233 97Q274 45 337 45Q383 45 420 86T457 224Z"></path>
<path stroke-width="10" id="E1-MJMAINB-6C" d="M43 686L134 690Q225 694 226 694H232V62H301V0H292Q274 3 170 3Q67 3 49 0H40V62H109V332Q109 387 109 453T110 534Q110 593 108 605T94 620Q80 624 53 624H40V686H43Z"></path>
<path stroke-width="10" id="E1-MJMAINB-65" d="M32 225Q32 332 102 392T272 452H283Q382 452 436 401Q494 343 494 243Q494 226 486 222T440 217Q431 217 394 217T327 218H175V209Q175 177 179 154T196 107T236 69T306 50Q312 49 323 49Q376 49 410 85Q421 99 427 111T434 127T442 133T463 135H468Q494 135 494 117Q494 110 489 97T468 66T431 32T373 5T292 -6Q181 -6 107 55T32 225ZM383 276Q377 346 348 374T280 402Q253 402 230 390T195 357Q179 331 176 279V266H383V276Z"></path>
<path stroke-width="10" id="E1-MJMAINB-73" d="M38 315Q38 339 45 360T70 404T127 440T223 453Q273 453 320 436L338 445L357 453H366Q380 453 383 447T386 403V387V355Q386 331 383 326T365 321H355H349Q333 321 329 324T324 341Q317 406 224 406H216Q123 406 123 353Q123 334 143 321T188 304T244 294T285 286Q305 281 325 273T373 237T412 172Q414 162 414 142Q414 -6 230 -6Q154 -6 117 22L68 -6H58Q44 -6 41 0T38 42V73Q38 85 38 101T37 122Q37 144 42 148T68 153H75Q87 153 91 151T97 147T103 132Q131 46 220 46H230Q257 46 265 47Q330 58 330 108Q330 127 316 142Q300 156 284 162Q271 168 212 178T122 202Q38 243 38 315Z"></path>
<path stroke-width="10" id="E1-MJMAIN-3D" d="M56 347Q56 360 70 367H707Q722 359 722 347Q722 336 708 328L390 327H72Q56 332 56 347ZM56 153Q56 168 72 173H708Q722 163 722 153Q722 140 707 133H70Q56 140 56 153Z"></path>
<path stroke-width="10" id="E1-MJMAINI-6C" d="M162 61Q162 26 183 26Q211 26 239 131Q245 151 249 152Q252 153 261 153H266H271Q288 153 288 144Q288 143 286 129Q276 91 266 65T232 14T179 -11Q144 -11 116 12T87 81Q87 96 88 102L216 616Q216 629 209 632T170 637H149Q143 643 143 645T145 664Q150 683 158 683Q163 683 223 688T300 694Q312 694 312 686Q312 676 240 389L164 86Q162 74 162 61Z"></path>
<path stroke-width="10" id="E1-MJMAINI-6F" d="M103 155Q103 266 185 354T366 442Q435 442 476 394T517 275Q517 169 436 79T255 -11Q194 -11 149 32T103 155ZM187 119Q187 67 209 47T260 26Q290 26 321 47Q354 68 380 113T426 260Q432 291 432 315Q432 361 408 385Q388 405 358 405Q319 405 283 374T227 294Q217 271 202 213T187 119Z"></path>
<path stroke-width="10" id="E1-MJMAINI-74" d="M94 385Q87 392 87 395Q87 399 90 411T95 425Q97 430 103 430T149 431H196L215 511Q218 521 222 539T228 565T234 585T242 603T251 615T264 623T281 626Q311 626 315 597Q315 591 296 513T275 433Q275 431 320 431H366Q373 424 373 420Q373 398 360 385H263L189 86Q188 80 188 61V54Q188 29 201 27Q213 23 229 30Q253 37 276 66T316 138Q321 149 324 151T342 153H347Q364 153 364 146T360 130Q331 63 290 26T202 -11Q158 -11 135 18T111 81Q111 93 129 168T166 314L184 383Q184 385 139 385H94Z"></path>
<path stroke-width="10" id="E1-MJMAINI-73" d="M153 285Q153 349 197 395T311 442Q355 442 386 420T418 356Q418 321 401 308T365 294Q336 294 331 326Q331 336 334 345T343 359T353 368T362 374L366 376Q365 379 362 383T344 396T308 404Q265 404 246 377T226 325T244 289T287 275T339 258T383 212Q395 188 395 163Q395 132 379 95T333 32Q279 -11 207 -11Q154 -11 115 13T76 86Q76 108 83 123T102 145T121 153T135 156Q154 156 164 145T175 117Q175 82 142 66L132 62Q131 62 131 61Q131 57 139 49T166 34T210 26Q250 26 277 44T312 83T321 123Q321 153 301 166T248 185T204 198Q176 211 162 241Q153 258 153 285Z"></path>
<path stroke-width="10" id="E1-MJMAINI-66" d="M351 608Q351 642 389 661Q368 668 365 668Q358 668 352 664Q349 663 347 661T342 654T337 647T333 637T330 627T327 614T324 601T321 587T318 571L291 432Q291 431 343 431H394Q400 426 400 423T398 404Q394 390 389 386L335 385H282L255 246Q212 20 189 -51Q136 -199 58 -204Q22 -204 0 -185T-23 -134Q-23 -100 -3 -85T37 -69Q54 -69 65 -80T76 -108Q76 -115 75 -119Q70 -134 61 -144T46 -158L39 -161Q39 -162 42 -163T50 -166T61 -168Q77 -168 91 -145Q98 -128 105 -95L125 -1Q145 90 146 98Q149 109 163 180T189 317T202 384T158 385H114Q108 390 108 393T110 412Q113 424 120 431H165Q211 431 211 433Q213 435 219 473T237 561T266 639Q282 667 310 686T367 705Q402 705 426 686T450 635Q450 600 430 585T390 569Q373 569 362 580T351 608Z"></path>
<path stroke-width="10" id="E1-MJMAINI-61" d="M418 53Q418 26 438 26Q466 26 494 131Q500 151 504 152Q507 153 516 153H521Q531 153 534 153T540 150T543 144Q543 141 540 126T529 88T509 43T477 5T434 -11Q404 -11 383 3T354 30T347 48H346Q345 47 342 45T337 40Q282 -11 228 -11Q172 -11 137 34T101 146Q101 260 177 351T333 442Q343 442 352 441T369 437T382 431T393 425T402 417T409 410T414 402T419 396Q423 406 436 414T461 422Q475 422 484 413T494 395Q494 384 459 244T420 88Q418 80 418 58V53ZM397 323Q397 344 382 374T333 405Q302 405 271 372Q249 349 235 316T203 215Q184 135 184 108V100V94Q184 54 207 35Q218 26 235 26Q279 26 330 91Q343 109 346 118T372 217Q397 317 397 323Z"></path>
<path stroke-width="10" id="E1-MJMAINI-70" d="M81 278Q75 284 75 287Q93 379 131 417Q154 442 189 442Q222 440 243 423T272 382L280 390Q335 442 389 442Q446 442 482 398T518 284Q518 212 480 137T375 19Q321 -10 291 -10H282H278Q237 -10 204 28L202 32L181 -51Q160 -135 160 -139Q160 -147 205 -148H230Q236 -155 236 -157T233 -175Q230 -187 227 -190T214 -194Q211 -194 202 -194T169 -193T108 -192Q40 -192 21 -194H13Q6 -187 6 -183T9 -167Q13 -153 16 -151T39 -148Q73 -147 78 -136Q82 -128 139 104Q199 337 199 347Q202 362 202 372Q202 406 182 406Q169 406 159 391Q145 374 132 328T117 280T98 278H81ZM221 111Q234 26 286 26Q307 26 336 47T385 116Q398 147 416 217T435 332Q435 354 433 361Q420 405 383 405Q333 405 279 326L273 317L221 111Z"></path>
<path stroke-width="10" id="E1-MJMAINI-65" d="M107 166Q107 230 131 283T193 369T270 420T345 441Q346 441 352 441T361 442H364Q409 442 439 418T470 355Q470 270 366 239Q308 223 218 223H205Q189 164 189 125Q189 83 206 55T261 27Q309 27 353 50T426 109Q436 121 440 121T453 111T466 97Q469 92 455 77Q424 41 372 16T258 -10Q184 -10 146 41T107 166ZM416 333T416 354T401 390T360 405Q322 405 292 384T246 336T223 288T215 261Q215 260 240 260Q262 261 276 262T314 266T353 275T384 291T408 317Z"></path>
<path stroke-width="10" id="E1-MJMAIN-32" d="M109 429Q82 429 66 447T50 491Q50 562 103 614T235 666Q326 666 387 610T449 465Q449 422 429 383T381 315T301 241Q265 210 201 149L142 93L218 92Q375 92 385 97Q392 99 409 186V189H449V186Q448 183 436 95T421 3V0H50V19V31Q50 38 56 46T86 81Q115 113 136 137Q145 147 170 174T204 211T233 244T261 278T284 308T305 340T320 369T333 401T340 431T343 464Q343 527 309 573T212 619Q179 619 154 602T119 569T109 550Q109 549 114 549Q132 549 151 535T170 489Q170 464 154 447T109 429Z"></path>
</defs>
<g stroke="currentColor" fill="currentColor" stroke-width="0" transform="matrix(1 0 0 -1 0 0)">
 <use xlink:href="#E1-MJMAIN-35"></use>
 <use xlink:href="#E1-MJMAIN-30" x="505" y="0"></use>
<g transform="translate(1287,0)">
 <use xlink:href="#E1-MJMAIN-61"></use>
 <use xlink:href="#E1-MJMAIN-70" x="505" y="0"></use>
 <use xlink:href="#E1-MJMAIN-70" x="1066" y="0"></use>
 <use xlink:href="#E1-MJMAIN-6C" x="1627" y="0"></use>
 <use xlink:href="#E1-MJMAIN-65" x="1910" y="0"></use>
 <use xlink:href="#E1-MJMAIN-73" x="2359" y="0"></use>
</g>
 <use xlink:href="#E1-MJMAIN-D7" x="4268" y="0"></use>
<g transform="translate(5273,0)">
 <use xlink:href="#E1-MJMAIN-31"></use>
 <use xlink:href="#E1-MJMAIN-30" x="505" y="0"></use>
 <use xlink:href="#E1-MJMAIN-30" x="1010" y="0"></use>
</g>
<g transform="translate(7066,0)">
 <use xlink:href="#E1-MJMAINB-61"></use>
 <use xlink:href="#E1-MJMAINB-70" x="564" y="0"></use>
 <use xlink:href="#E1-MJMAINB-70" x="1208" y="0"></use>
 <use xlink:href="#E1-MJMAINB-6C" x="1852" y="0"></use>
 <use xlink:href="#E1-MJMAINB-65" x="2176" y="0"></use>
 <use xlink:href="#E1-MJMAINB-73" x="2708" y="0"></use>
</g>
 <use xlink:href="#E1-MJMAIN-3D" x="10510" y="0"></use>
<g transform="translate(11571,0)">
 <use xlink:href="#E1-MJMAINI-6C"></use>
 <use xlink:href="#E1-MJMAINI-6F" x="261" y="0"></use>
 <use xlink:href="#E1-MJMAINI-74" x="777" y="0"></use>
 <use xlink:href="#E1-MJMAINI-73" x="1114" y="0"></use>
 <use xlink:href="#E1-MJMAINI-6F" x="1528" y="0"></use>
 <use xlink:href="#E1-MJMAINI-66" x="2044" y="0"></use>
 <use xlink:href="#E1-MJMAINI-61" x="2356" y="0"></use>
 <use xlink:href="#E1-MJMAINI-70" x="2872" y="0"></use>
 <use xlink:href="#E1-MJMAINI-70" x="3388" y="0"></use>
 <use xlink:href="#E1-MJMAINI-6C" x="3904" y="0"></use>
 <use xlink:href="#E1-MJMAINI-65" x="4165" y="0"></use>
 <use xlink:href="#E1-MJMAINI-73" x="4630" y="0"></use>
 <use transform="scale(0.707)" xlink:href="#E1-MJMAIN-32" x="7133" y="625"></use>
</g>
</g>
</svg>