<?xml version="1.0" standalone="no"?>
<!DOCTYPE svg PUBLIC "-//W3C//DTD SVG 1.1//EN" "http://www.w3.org/Graphics/SVG/1.1/DTD/svg11.dtd">
<svg xmlns:xlink="http://www.w3.org/1999/xlink" width="2.801ex" height="2.176ex" style="vertical-align: -0.338ex;" viewBox="0 -791.3 1206 936.9" xmlns="http://www.w3.org/2000/svg">
<defs>
<path stroke-width="10" id="E1-MJCAL-4D" d="M28 9Q28 37 43 63T73 90Q77 90 83 84T103 70T141 57H146Q162 57 178 79T222 167Q266 279 295 371T334 513T349 598T358 651T371 677Q397 705 432 705Q442 705 445 699T452 666Q453 661 453 659Q475 538 509 405T568 207L574 192Q581 178 587 164T594 150Q596 150 635 189T693 248Q765 324 863 438T1024 626T1089 701Q1093 705 1100 705Q1111 705 1111 682Q1111 675 1108 660T1099 611T1086 540Q1041 277 1041 144Q1041 98 1044 75T1050 48T1059 42Q1064 41 1075 46Q1102 61 1121 61Q1137 61 1137 50Q1137 28 1087 0T1000 -29Q983 -29 972 -23T955 -9T945 16T942 45T941 83V96Q941 158 952 256T974 422L985 489Q984 489 939 436T821 300T698 164Q665 128 620 85T568 37Q564 34 558 34Q550 34 546 37T535 54Q512 91 496 127T450 259T389 498L384 518Q349 367 294 223T198 15Q155 -50 117 -50Q87 -50 61 -35T30 -6Q28 2 28 9Z"></path>
</defs>
<g stroke="currentColor" fill="currentColor" stroke-width="0" transform="matrix(1 0 0 -1 0 0)">
 <use xlink:href="#E1-MJCAL-4D" x="0" y="0"></use>
</g>
</svg>