<?xml version="1.0" standalone="no"?>
<!DOCTYPE svg PUBLIC "-//W3C//DTD SVG 1.1//EN" "http://www.w3.org/Graphics/SVG/1.1/DTD/svg11.dtd">
<svg xmlns:xlink="http://www.w3.org/1999/xlink" width="2.592ex" height="3.843ex" style="vertical-align: -1.338ex;" viewBox="0 -1078.4 1116 1654.5" xmlns="http://www.w3.org/2000/svg">
<defs>
<path stroke-width="10" id="E1-MJSZ2-2A06" d="M56 911Q60 927 72 938T103 950Q120 950 134 939T152 911Q153 907 153 277V-352H957V277Q957 907 958 911Q962 928 975 939T1006 950T1036 939T1054 911V891Q1054 871 1054 836T1054 754T1054 647T1055 525T1055 390T1055 250T1055 111T1055 -24T1055 -147T1054 -253T1054 -335T1054 -391V-411Q1047 -442 1016 -449Q1011 -450 552 -450L94 -449Q63 -439 56 -411V-391Q56 -371 56 -336T56 -254T56 -147T55 -25T55 110T55 250T55 389T55 524T55 647T56 753T56 835T56 891V911Z"></path>
</defs>
<g stroke="currentColor" fill="currentColor" stroke-width="0" transform="matrix(1 0 0 -1 0 0)">
 <use xlink:href="#E1-MJSZ2-2A06" x="0" y="0"></use>
</g>
</svg>