<?xml version="1.0" standalone="no"?>
<!DOCTYPE svg PUBLIC "-//W3C//DTD SVG 1.1//EN" "http://www.w3.org/Graphics/SVG/1.1/DTD/svg11.dtd">
<svg xmlns:xlink="http://www.w3.org/1999/xlink" width="1.781ex" height="2.176ex" style="vertical-align: -0.338ex;" viewBox="0 -791.3 767 936.9" xmlns="http://www.w3.org/2000/svg">
<defs>
<path stroke-width="10" id="E1-MJCAL-4B" d="M194 618Q193 618 182 613T156 601T131 594Q113 594 113 605Q113 623 144 644Q154 650 205 676T267 703Q277 705 279 705Q295 705 295 691Q295 569 250 397Q225 306 197 217T151 81T128 25Q120 8 94 -7T47 -22Q32 -22 32 -10L64 76Q95 163 133 295T185 530Q198 611 194 618ZM331 429Q331 383 364 290T449 117T542 36Q574 36 607 51T652 103Q660 124 677 133T709 143Q727 143 727 128Q727 119 723 111Q704 56 639 17T497 -22H493Q463 -22 425 16Q401 40 382 71Q335 138 296 243T256 399Q256 434 288 473Q342 540 471 622T670 705Q691 704 703 696Q732 678 732 644Q732 613 714 600T677 586Q671 586 667 587T660 592T657 604V619Q657 647 629 647Q623 647 620 646Q576 635 495 583T365 482Q331 448 331 429Z"></path>
</defs>
<g stroke="currentColor" fill="currentColor" stroke-width="0" transform="matrix(1 0 0 -1 0 0)">
 <use xlink:href="#E1-MJCAL-4B" x="0" y="0"></use>
</g>
</svg>