<?xml version="1.0" standalone="no"?>
<!DOCTYPE svg PUBLIC "-//W3C//DTD SVG 1.1//EN" "http://www.w3.org/Graphics/SVG/1.1/DTD/svg11.dtd">
<svg xmlns:xlink="http://www.w3.org/1999/xlink" width="1.56ex" height="2.509ex" style="vertical-align: -0.505ex;" viewBox="0 -863.1 671.7 1080.4" xmlns="http://www.w3.org/2000/svg">
<defs>
<path stroke-width="10" id="E1-MJMAIN-2205" d="M331 696Q335 708 339 722T345 744T350 759T357 769T367 772Q374 772 381 767T388 754Q388 746 377 712L366 673L378 661Q460 575 460 344Q460 281 456 234T432 126T373 27Q319 -22 250 -22Q214 -22 180 -7Q168 -3 168 -4L159 -33Q148 -71 142 -75Q138 -78 132 -78Q124 -78 118 -72T111 -60Q111 -52 122 -18L133 21L125 29Q39 111 39 344Q39 596 137 675Q187 716 251 716Q265 716 278 714T296 710T315 703T331 696ZM276 676Q264 679 246 679Q196 679 159 631Q134 597 128 536T121 356Q121 234 127 174T151 80L234 366Q253 430 275 506T308 618L318 654Q318 656 294 669L276 676ZM181 42Q207 16 250 16Q291 16 324 47Q354 78 366 136T378 356Q378 470 372 528T349 616L348 613Q348 611 264 326L181 42Z"></path>
</defs>
<g stroke="currentColor" fill="currentColor" stroke-width="0" transform="matrix(1 0 0 -1 0 0)">
 <use xlink:href="#E1-MJMAIN-2205" x="0" y="0"></use>
</g>
</svg>