<?xml version="1.0" standalone="no"?>
<!DOCTYPE svg PUBLIC "-//W3C//DTD SVG 1.1//EN" "http://www.w3.org/Graphics/SVG/1.1/DTD/svg11.dtd">
<svg xmlns:xlink="http://www.w3.org/1999/xlink" width="3.521ex" height="3.843ex" style="vertical-align: -1.338ex;" viewBox="0 -1078.4 1516 1654.5" xmlns="http://www.w3.org/2000/svg">
<defs>
<path stroke-width="10" id="E1-MJSZ2-2A02" d="M668 944Q697 949 744 949Q803 949 814 948Q916 937 1006 902T1154 826T1262 730T1336 638T1380 563Q1454 415 1454 250Q1454 113 1402 -14T1258 -238T1036 -391T755 -449Q608 -449 477 -392T255 -240T110 -16T56 250Q56 387 105 510T239 723T434 871T668 944ZM1143 709Q1138 714 1129 722T1086 752T1017 791T925 826T809 850Q798 851 747 851H728Q659 851 571 823T408 741Q367 713 367 709L755 320L1143 709ZM297 639Q296 639 282 622T247 570T205 491T169 382T154 250T168 118T204 9T247 -70T282 -122L297 -139L685 250L297 639ZM1213 -139Q1214 -139 1228 -122T1263 -70T1305 9T1341 118T1356 250T1342 382T1306 491T1263 570T1228 622L1213 639L825 250L1213 -139ZM367 -209Q373 -215 384 -224T434 -258T514 -302T622 -336T755 -352T887 -338T996 -302T1075 -259T1126 -224L1143 -209L755 180Q754 180 561 -14T367 -209Z"></path>
</defs>
<g stroke="currentColor" fill="currentColor" stroke-width="0" transform="matrix(1 0 0 -1 0 0)">
 <use xlink:href="#E1-MJSZ2-2A02" x="0" y="0"></use>
</g>
</svg>