<?xml version="1.0" standalone="no"?>
<!DOCTYPE svg PUBLIC "-//W3C//DTD SVG 1.1//EN" "http://www.w3.org/Graphics/SVG/1.1/DTD/svg11.dtd">
<svg xmlns:xlink="http://www.w3.org/1999/xlink" width="2.592ex" height="3.843ex" style="vertical-align: -1.338ex;" viewBox="0 -1078.4 1116 1654.5" xmlns="http://www.w3.org/2000/svg">
<defs>
<path stroke-width="10" id="E1-MJSZ2-2A04" d="M56 911Q58 926 71 938T103 950Q120 950 134 939T152 911Q153 907 153 463Q153 16 154 6Q165 -143 279 -247T556 -352Q716 -352 830 -248T956 6Q957 16 957 463Q957 907 958 911Q962 928 975 939T1006 950T1037 939T1054 911Q1055 906 1055 451Q1054 -5 1053 -16Q1029 -207 889 -328T555 -449Q363 -449 226 -331T62 -45Q57 -16 57 25T55 451Q55 906 56 911ZM507 554Q511 570 523 581T554 593Q571 593 585 582T603 554Q604 551 604 443V338H709Q817 338 820 337Q835 334 847 321T859 290Q859 254 819 241Q816 240 709 240H604V134Q604 48 604 34T598 11Q583 -15 555 -15Q526 -15 512 11Q507 20 507 34T506 134V240H401H344Q292 240 278 246Q251 259 251 290Q251 309 264 321T290 337Q293 338 401 338H506V443Q506 551 507 554Z"></path>
</defs>
<g stroke="currentColor" fill="currentColor" stroke-width="0" transform="matrix(1 0 0 -1 0 0)">
 <use xlink:href="#E1-MJSZ2-2A04" x="0" y="-1"></use>
</g>
</svg>