<?xml version="1.0" standalone="no"?>
<!DOCTYPE svg PUBLIC "-//W3C//DTD SVG 1.1//EN" "http://www.w3.org/Graphics/SVG/1.1/DTD/svg11.dtd">
<svg xmlns:xlink="http://www.w3.org/1999/xlink" width="2.463ex" height="2.343ex" style="vertical-align: -0.838ex;" viewBox="0 -647.8 1060.7 1008.6" xmlns="http://www.w3.org/2000/svg">
<defs>
<path stroke-width="10" id="E1-MJMAIN-25BD" d="M59 480Q59 485 61 489T66 495T72 498L75 500H814Q828 493 828 480V474L644 132Q458 -210 455 -212Q451 -215 444 -215T433 -212Q429 -210 342 -49T164 282T64 466Q59 478 59 480ZM775 460H113Q113 459 278 153T444 -153T610 153T775 460Z"></path>
</defs>
<g stroke="currentColor" fill="currentColor" stroke-width="0" transform="matrix(1 0 0 -1 0 0)">
 <use xlink:href="#E1-MJMAIN-25BD" x="0" y="0"></use>
</g>
</svg>