<?xml version="1.0" standalone="no"?>
<!DOCTYPE svg PUBLIC "-//W3C//DTD SVG 1.1//EN" "http://www.w3.org/Graphics/SVG/1.1/DTD/svg11.dtd">
<svg xmlns:xlink="http://www.w3.org/1999/xlink" width="1.469ex" height="2.343ex" style="vertical-align: -0.338ex; margin-left: -0.039ex;" viewBox="-17 -863.1 632.7 1008.6" xmlns="http://www.w3.org/2000/svg">
<defs>
<path stroke-width="10" id="E1-MJAMS-2137" d="M56 750Q68 764 76 764Q88 764 97 743T125 717Q131 715 240 715T358 713Q421 691 421 640Q421 608 399 588T358 566Q353 566 352 565T351 557L356 526Q356 488 379 346T402 97Q400 21 385 -12Q366 -43 351 -43Q335 -43 329 -10Q316 40 316 64Q316 67 315 67Q313 67 269 26L222 -21H-9Q-22 -7 -22 -1Q-22 4 -14 14T42 73L107 137H311V564H211H164Q115 564 93 573T60 615Q56 630 56 690V750Z"></path>
</defs>
<g stroke="currentColor" fill="currentColor" stroke-width="0" transform="matrix(1 0 0 -1 0 0)">
 <use xlink:href="#E1-MJAMS-2137" x="0" y="0"></use>
</g>
</svg>