<?xml version="1.0" standalone="no"?>
<!DOCTYPE svg PUBLIC "-//W3C//DTD SVG 1.1//EN" "http://www.w3.org/Graphics/SVG/1.1/DTD/svg11.dtd">
<svg xmlns:xlink="http://www.w3.org/1999/xlink" width="1.599ex" height="2.009ex" style="vertical-align: -0.671ex;" viewBox="0 -576.1 688.7 865.1" xmlns="http://www.w3.org/2000/svg">
<defs>
<path stroke-width="10" id="E1-MJMATHI-3F1" d="M205 -174Q136 -174 102 -153T67 -76Q67 -25 91 85T127 234Q143 289 182 341Q252 427 341 441Q343 441 349 441T359 442Q432 442 471 394T510 276Q510 169 431 80T253 -10Q226 -10 204 -2T169 19T146 44T132 64L128 73Q128 72 124 53T116 5T112 -44Q112 -68 117 -78T150 -95T236 -102Q327 -102 356 -111T386 -154Q386 -166 384 -178Q381 -190 378 -192T361 -194H348Q342 -188 342 -179Q342 -169 315 -169Q294 -169 264 -171T205 -174ZM424 322Q424 359 407 382T357 405Q322 405 287 376T231 300Q221 276 204 217Q188 152 188 116Q188 68 210 47T259 26Q297 26 334 62Q367 92 389 158T418 266T424 322Z"></path>
</defs>
<g stroke="currentColor" fill="currentColor" stroke-width="0" transform="matrix(1 0 0 -1 0 0)">
 <use xlink:href="#E1-MJMATHI-3F1" x="0" y="0"></use>
</g>
</svg>