<?xml version="1.0" standalone="no"?>
<!DOCTYPE svg PUBLIC "-//W3C//DTD SVG 1.1//EN" "http://www.w3.org/Graphics/SVG/1.1/DTD/svg11.dtd">
<svg xmlns:xlink="http://www.w3.org/1999/xlink" width="1.818ex" height="2.176ex" style="vertical-align: -0.338ex;" viewBox="0 -791.3 782.7 936.9" xmlns="http://www.w3.org/2000/svg">
<defs>
<path stroke-width="10" id="E1-MJMAIN-22A3" d="M515 678Q515 679 516 681T518 684T521 688T525 691T530 693T537 694Q548 692 555 679V15Q548 2 537 0Q533 0 530 1T525 3T521 6T519 9T517 13T515 16V327H71Q70 327 67 329T59 336T55 347T59 358T66 365T71 367H515V678Z"></path>
</defs>
<g stroke="currentColor" fill="currentColor" stroke-width="0" transform="matrix(1 0 0 -1 0 0)">
 <use xlink:href="#E1-MJMAIN-22A3" x="0" y="0"></use>
</g>
</svg>