<?xml version="1.0" standalone="no"?>
<!DOCTYPE svg PUBLIC "-//W3C//DTD SVG 1.1//EN" "http://www.w3.org/Graphics/SVG/1.1/DTD/svg11.dtd">
<svg xmlns:xlink="http://www.w3.org/1999/xlink" width="5.261ex" height="3.176ex" style="vertical-align: -0.338ex;" viewBox="0 -1221.9 2265 1367.4" xmlns="http://www.w3.org/2000/svg">
<defs>
<path stroke-width="10" id="E1-MJMATHI-41" d="M208 74Q208 50 254 46Q272 46 272 35Q272 34 270 22Q267 8 264 4T251 0Q249 0 239 0T205 1T141 2Q70 2 50 0H42Q35 7 35 11Q37 38 48 46H62Q132 49 164 96Q170 102 345 401T523 704Q530 716 547 716H555H572Q578 707 578 706L606 383Q634 60 636 57Q641 46 701 46Q726 46 726 36Q726 34 723 22Q720 7 718 4T704 0Q701 0 690 0T651 1T578 2Q484 2 455 0H443Q437 6 437 9T439 27Q443 40 445 43L449 46H469Q523 49 533 63L521 213H283L249 155Q208 86 208 74ZM516 260Q516 271 504 416T490 562L463 519Q447 492 400 412L310 260L413 259Q516 259 516 260Z"></path>
<path stroke-width="10" id="E1-MJMAIN-7E" d="M179 251Q164 251 151 245T131 234T111 215L97 227L83 238Q83 239 95 253T121 283T142 304Q165 318 187 318T253 300T320 282Q335 282 348 288T368 299T388 318L402 306L416 295Q375 236 344 222Q330 215 313 215Q292 215 248 233T179 251Z"></path>
<path stroke-width="10" id="E1-MJSZ4-2DC" d="M1212 583Q1124 583 1048 603T923 647T799 691T635 711Q524 711 375 679T120 615L16 583Q14 584 12 587T9 592Q-2 650 2 659Q2 669 38 687Q54 696 146 723T309 767Q527 823 666 823Q759 823 837 803T964 759T1088 715T1252 695Q1363 695 1512 727T1764 791T1871 823Q1872 822 1874 819T1878 814Q1885 783 1885 753Q1885 748 1884 747Q1884 738 1849 719Q1836 712 1740 682T1484 617T1212 583Z"></path>
</defs>
<g stroke="currentColor" fill="currentColor" stroke-width="0" transform="matrix(1 0 0 -1 0 0)">
 <use xlink:href="#E1-MJMATHI-41" x="0" y="0"></use>
 <use xlink:href="#E1-MJMATHI-41" x="755" y="0"></use>
 <use xlink:href="#E1-MJMATHI-41" x="1510" y="0"></use>
 <use xlink:href="#E1-MJSZ4-2DC" x="185" y="261"></use>
</g>
</svg>