<?xml version="1.0" standalone="no"?>
<!DOCTYPE svg PUBLIC "-//W3C//DTD SVG 1.1//EN" "http://www.w3.org/Graphics/SVG/1.1/DTD/svg11.dtd">
<svg xmlns:xlink="http://www.w3.org/1999/xlink" width="1.685ex" height="2.176ex" style="vertical-align: -0.338ex;" viewBox="0 -791.3 725.7 936.9" xmlns="http://www.w3.org/2000/svg">
<defs>
<path stroke-width="10" id="E1-MJFRAK-49" d="M190 601Q161 601 137 587T97 553T71 512T55 477T48 463Q44 465 39 468L30 473L35 488Q73 594 106 636T199 685Q200 686 211 686Q250 686 326 652T417 617Q435 617 455 626T497 652T522 670Q532 660 532 654Q469 591 390 550L378 543L343 556Q223 601 190 601ZM378 208Q378 249 369 318T360 424Q360 430 360 439T361 451L362 462Q416 526 482 571L495 580L503 577L511 575L499 562Q442 502 442 465Q442 436 452 368T462 246Q462 169 442 128T385 56Q292 -26 195 -26Q150 -26 104 14L96 21L43 -16Q43 -15 43 -14T41 -10T38 0L48 13Q76 50 123 97L150 125Q154 131 159 131Q166 131 171 116T182 81T193 53Q199 43 216 33T261 22Q307 22 344 68Q378 113 378 208Z"></path>
</defs>
<g stroke="currentColor" fill="currentColor" stroke-width="0" transform="matrix(1 0 0 -1 0 0)">
 <use xlink:href="#E1-MJFRAK-49" x="0" y="0"></use>
</g>
</svg>