<?xml version="1.0" standalone="no"?>
<!DOCTYPE svg PUBLIC "-//W3C//DTD SVG 1.1//EN" "http://www.w3.org/Graphics/SVG/1.1/DTD/svg11.dtd">
<svg xmlns:xlink="http://www.w3.org/1999/xlink" width="10.165ex" height="2.343ex" style="vertical-align: -0.338ex;" viewBox="0 -863.1 4376.7 1008.6" xmlns="http://www.w3.org/2000/svg">
<defs>
<path stroke-width="10" id="E1-MJCAL-41" d="M576 668Q576 688 606 708T660 728Q676 728 675 712V571Q675 409 688 252Q696 122 720 57Q722 53 723 50T728 46T732 43T737 41T743 39L754 45Q788 61 803 61Q819 61 819 47Q818 43 814 35Q799 15 755 -7T675 -30Q659 -30 648 -25T630 -8T621 11T614 34Q603 77 599 106T594 146T591 160V163H460L329 164L316 145Q241 35 196 -7T119 -50T59 -24T30 43Q30 75 46 100T74 125Q81 125 83 120T88 104T96 84Q118 57 151 57Q189 57 277 182Q432 400 542 625L559 659H567Q574 659 575 660T576 668ZM584 249Q579 333 577 386T575 473T574 520V581L563 560Q497 426 412 290L372 228L370 224H371L383 228L393 232H586L584 249Z"></path>
<path stroke-width="10" id="E1-MJCAL-42" d="M304 342Q292 342 292 353Q292 372 323 391Q331 396 417 428T533 487Q563 512 563 555V562Q563 575 557 589T530 618T475 636Q429 636 396 613T330 539Q263 446 210 238Q196 183 173 120Q135 31 121 16Q108 1 85 -10T47 -22T32 -10Q32 -5 44 18T77 93T112 206Q135 296 154 395T182 550T191 615Q191 616 190 616Q188 616 179 611T157 601T131 594Q113 594 113 605Q113 623 144 644Q154 650 205 676T267 703Q277 705 279 705Q295 705 295 693Q295 686 288 635T278 575Q278 572 287 582Q336 635 402 669T540 704Q603 704 633 673T664 599Q664 559 638 523T580 462Q553 440 504 413L491 407L504 402Q566 381 596 338T627 244Q627 172 575 110T444 13T284 -22Q208 -22 158 28Q144 42 146 50Q150 67 178 85T230 103Q236 103 246 95T267 75T302 56T357 47Q436 47 486 93Q526 136 526 198V210Q526 228 518 249T491 292T436 330T350 345Q335 345 321 344T304 342Z"></path>
<path stroke-width="10" id="E1-MJCAL-43" d="M201 -25Q167 -25 136 -14T75 23T29 94T12 202Q12 290 50 394T161 574Q227 642 303 673T433 704Q435 705 457 705Q533 701 533 640Q533 606 507 548T464 474Q431 444 396 444Q381 444 381 453Q381 459 388 473T407 513T428 563Q433 580 433 594Q433 636 381 636Q314 636 260 594T175 489T128 363T112 247Q112 157 153 101T273 44Q347 44 398 121Q413 144 437 157T481 171Q496 171 496 160Q496 150 476 123Q426 56 350 16T201 -25Z"></path>
<path stroke-width="10" id="E1-MJCAL-44" d="M37 475Q19 475 19 487Q19 536 103 604T327 682H356Q386 683 408 683H419Q475 683 506 681T582 668T667 633Q766 571 766 450Q766 365 723 287T611 152T455 57T279 6Q248 1 160 0Q148 0 131 0T108 -1Q72 -1 72 11Q72 24 90 40T133 64L144 68L152 88Q247 328 272 587Q275 613 272 613Q272 613 269 613Q225 610 195 602T149 579T129 556T119 532Q118 530 116 525T113 518Q102 502 80 490T37 475ZM665 407Q665 596 412 613Q403 614 383 614Q370 614 370 612Q370 598 363 542T323 357T242 103L228 69H265Q391 73 481 119Q536 148 575 188T633 268T658 338T665 392V407Z"></path>
<path stroke-width="10" id="E1-MJCAL-45" d="M144 470Q144 556 240 630T451 705Q564 705 564 637Q564 611 540 573Q529 559 505 547T464 534Q448 534 448 545Q448 552 455 562Q463 577 463 591Q463 600 462 604T456 616T436 627T400 635Q396 635 390 635T380 636Q291 636 258 568Q245 544 245 516Q245 463 290 438T391 410Q415 410 415 398Q415 392 407 380T376 356T326 341Q288 340 260 327Q218 311 187 276T143 208T130 151Q130 113 156 88T211 55T268 47Q349 47 403 125Q415 144 439 157T483 171Q499 171 499 160Q499 148 475 120T413 59T315 3T197 -22Q124 -22 77 14T30 105Q30 126 39 154T66 216T122 288T209 354L223 362Q144 400 144 470Z"></path>
<path stroke-width="10" id="E1-MJCAL-46" d="M199 579Q181 579 181 590Q181 598 188 611T212 639T260 666T335 682Q336 682 349 682T383 682T431 682T493 683T561 683Q776 682 784 681Q826 673 829 647Q829 620 797 600T744 580Q728 580 728 595Q729 607 713 610Q698 613 598 614H500L499 610Q499 598 467 486T428 367Q428 365 551 365H674Q683 360 684 355Q687 346 677 329Q666 312 642 299T598 285Q586 285 582 296H402L394 277Q386 258 373 229T346 167T315 102T286 51Q265 22 225 -5T133 -32Q108 -32 87 -25T54 -7T33 15T21 35T18 47Q18 60 44 80T98 103Q108 103 111 101T119 88Q130 66 150 54T179 39T195 37Q199 37 203 43Q217 67 245 125T318 300T391 532Q393 543 398 564T406 598T409 613T339 614H269Q229 579 199 579Z"></path>
</defs>
<g stroke="currentColor" fill="currentColor" stroke-width="0" transform="matrix(1 0 0 -1 0 0)">
 <use xlink:href="#E1-MJCAL-41" x="0" y="0"></use>
 <use xlink:href="#E1-MJCAL-42" x="824" y="0"></use>
 <use xlink:href="#E1-MJCAL-43" x="1493" y="0"></use>
 <use xlink:href="#E1-MJCAL-44" x="2031" y="0"></use>
 <use xlink:href="#E1-MJCAL-45" x="2807" y="0"></use>
 <use xlink:href="#E1-MJCAL-46" x="3376" y="0"></use>
</g>
</svg>