<?xml version="1.0" standalone="no"?>
<!DOCTYPE svg PUBLIC "-//W3C//DTD SVG 1.1//EN" "http://www.w3.org/Graphics/SVG/1.1/DTD/svg11.dtd">
<svg xmlns:xlink="http://www.w3.org/1999/xlink" width="2.592ex" height="3.843ex" style="vertical-align: -1.338ex;" viewBox="0 -1078.4 1116 1654.5" xmlns="http://www.w3.org/2000/svg">
<defs>
<path stroke-width="10" id="E1-MJSZ2-22C0" d="M1055 -401Q1055 -419 1042 -434T1007 -450Q977 -450 963 -423Q959 -417 757 167L555 750L353 167Q151 -417 147 -423Q134 -450 104 -450Q84 -450 70 -436T55 -401Q55 -394 56 -390Q59 -381 284 270T512 925Q525 950 555 950Q583 950 597 926Q599 923 825 270T1054 -391Q1055 -394 1055 -401Z"></path>
</defs>
<g stroke="currentColor" fill="currentColor" stroke-width="0" transform="matrix(1 0 0 -1 0 0)">
 <use xlink:href="#E1-MJSZ2-22C0" x="0" y="0"></use>
</g>
</svg>