<?xml version="1.0" standalone="no"?>
<!DOCTYPE svg PUBLIC "-//W3C//DTD SVG 1.1//EN" "http://www.w3.org/Graphics/SVG/1.1/DTD/svg11.dtd">
<svg xmlns:xlink="http://www.w3.org/1999/xlink" width="1.948ex" height="2.009ex" style="vertical-align: -0.338ex;" viewBox="0 -719.6 838.7 865.1" xmlns="http://www.w3.org/2000/svg">
<defs>
<path stroke-width="10" id="E1-MJMAIN-228E" d="M591 598H592Q604 598 611 583V376Q611 345 611 296Q610 162 606 148Q605 146 605 145Q586 68 507 23T333 -22Q268 -22 209 -1T106 66T56 173Q55 180 55 384L56 585Q66 598 75 598Q85 598 95 585V378L96 172L98 162Q112 95 181 57T332 18Q415 18 487 58T570 175Q571 180 571 383V583Q579 598 591 598ZM313 406Q313 417 313 435T312 459Q312 483 316 493T333 503T349 494T353 461V406V325H515Q516 325 519 323T527 316T531 305T527 294T520 287T515 285H353V204V152Q353 127 350 117T333 107T316 117T312 152Q312 158 312 175T313 204V285H151Q150 285 147 287T139 294T135 305T139 316T146 323T151 325H313V406Z"></path>
</defs>
<g stroke="currentColor" fill="currentColor" stroke-width="0" transform="matrix(1 0 0 -1 0 0)">
 <use xlink:href="#E1-MJMAIN-228E" x="0" y="0"></use>
</g>
</svg>