<?xml version="1.0" standalone="no"?>
<!DOCTYPE svg PUBLIC "-//W3C//DTD SVG 1.1//EN" "http://www.w3.org/Graphics/SVG/1.1/DTD/svg11.dtd">
<svg xmlns:xlink="http://www.w3.org/1999/xlink" width="2.206ex" height="3.176ex" style="vertical-align: -1.005ex;" viewBox="0 -934.9 949.7 1367.4" xmlns="http://www.w3.org/2000/svg">
<defs>
<path stroke-width="10" id="E2-MJAMS-2289" d="M82 606T82 613T95 635H251H348Q408 635 435 632T502 615L515 608L520 617Q520 619 558 708Q584 774 591 787T609 801Q616 801 622 795T629 781Q629 775 562 615L551 590L569 577Q646 527 678 437Q691 398 691 344T678 250Q653 182 597 132T469 64Q427 53 366 53H326L295 -25L262 -103H660Q673 -118 673 -124Q673 -129 669 -136L662 -141L453 -143H246L213 -219Q182 -292 178 -299Q172 -303 166 -303T153 -297T146 -283Q146 -282 174 -213T202 -143H95Q82 -128 82 -123T95 -103H220L251 -25L284 53H189L93 55L86 59Q82 64 82 71T95 93H302L400 333Q498 569 498 573L444 590Q431 593 260 595L93 597L86 601Q82 606 82 613ZM652 344V354Q652 451 575 521Q571 526 557 538T537 551Q534 551 533 548Q533 543 438 319L344 95L371 93H386Q487 93 557 150T649 293Q652 309 652 344Z"></path>
</defs>
<g stroke="currentColor" fill="currentColor" stroke-width="0" transform="matrix(1 0 0 -1 0 0)">
 <use xlink:href="#E2-MJAMS-2289" x="0" y="0"></use>
</g>
</svg>