<?xml version="1.0" standalone="no"?>
<!DOCTYPE svg PUBLIC "-//W3C//DTD SVG 1.1//EN" "http://www.w3.org/Graphics/SVG/1.1/DTD/svg11.dtd">
<svg xmlns:xlink="http://www.w3.org/1999/xlink" width="2.076ex" height="2.343ex" style="vertical-align: -0.338ex;" viewBox="0 -863.1 893.7 1008.6" xmlns="http://www.w3.org/2000/svg">
<defs>
<path stroke-width="10" id="E1-MJAMS-2221" d="M71 0L68 2Q65 3 63 5T58 11T55 20Q55 22 57 28Q64 38 348 373T638 712Q644 714 646 714Q653 714 659 709T666 694V693Q666 687 633 647Q619 631 576 580Q528 524 495 485Q336 296 329 289Q328 288 348 264T395 182T433 54L434 40H651Q666 32 666 20T651 0H436Q431 -20 416 -20Q400 -20 396 -4V0H71ZM394 40Q394 51 389 76T366 149T319 234L302 256L119 41L256 40H394Z"></path>
</defs>
<g stroke="currentColor" fill="currentColor" stroke-width="0" transform="matrix(1 0 0 -1 0 0)">
 <use xlink:href="#E1-MJAMS-2221" x="0" y="0"></use>
</g>
</svg>