<?xml version="1.0" encoding="UTF-8" standalone="no"?>
<svg
   xmlns:dc="http://purl.org/dc/elements/1.1/"
   xmlns:cc="http://creativecommons.org/ns#"
   xmlns:rdf="http://www.w3.org/1999/02/22-rdf-syntax-ns#"
   xmlns:svg="http://www.w3.org/2000/svg"
   xmlns="http://www.w3.org/2000/svg"
   width="320"
   height="500"
   viewBox="0 0 84.666665 132.29167"
   version="1.1"
   id="svg8">
  <defs
     id="defs2" />
  <metadata
     id="metadata5">
    <rdf:RDF>
      <cc:Work
         rdf:about="">
        <dc:format>image/svg+xml</dc:format>
        <dc:type
           rdf:resource="http://purl.org/dc/dcmitype/StillImage" />
        <dc:title></dc:title>
      </cc:Work>
    </rdf:RDF>
  </metadata>
  <g
     id="layer1">
    <path
       id="rect847"
       style="fill:#da251d;fill-opacity:1;stroke-width:0.332602;stroke-linejoin:round"
       d="m 10.322455,16.107303 h 3.836739 v 46.523001 h -3.836739 z" />
    <path
       id="rect847-2"
       style="fill:#da251d;fill-opacity:1;stroke-width:0.332602;stroke-linejoin:round"
       d="m 63.364072,16.107303 h 3.836739 v 46.523001 h -3.836739 z" />
    <path
       id="rect847-0"
       style="fill:#da251d;fill-opacity:1;stroke-width:0.332602;stroke-linejoin:round"
       d="m 63.364072,69.178364 h 3.836739 v 46.523006 h -3.836739 z" />
    <path
       id="rect847-28"
       style="fill:#da251d;fill-opacity:1;stroke-width:0.332602;stroke-linejoin:round"
       d="m 10.322455,69.178364 h 3.836739 v 46.523006 h -3.836739 z" />
    <path
       id="rect847-8"
       style="fill:#da251d;fill-opacity:1;stroke-width:0.332602;stroke-linejoin:round"
       d="m 15.500126,14.777491 v -3.836739 h 46.523002 v 3.836739 z" />
    <path
       id="rect847-03"
       style="fill:#da251d;fill-opacity:1;stroke-width:0.332602;stroke-linejoin:round"
       d="m 36.843257,16.159716 h 3.836739 v 46.523002 h -3.836739 z" />
    <path
       id="rect847-83"
       style="fill:#da251d;fill-opacity:1;stroke-width:0.332602;stroke-linejoin:round"
       d="m 36.843257,68.825667 h 3.836739 v 46.523003 h -3.836739 z" />
    <path
       id="rect847-8-3"
       style="fill:#da251d;fill-opacity:1;stroke-width:0.332602;stroke-linejoin:round"
       d="m 15.500138,120.87195 v -3.83674 H 62.02314 v 3.83674 z" />
    <path
       id="rect847-8-9"
       style="fill:#da251d;fill-opacity:1;stroke-width:0.332602;stroke-linejoin:round"
       d="M 15.573939,67.82271 V 63.985971 H 35.428513 V 67.82271 Z" />
    <path
       id="rect847-8-9-0"
       style="fill:#da251d;fill-opacity:1;stroke-width:0.332602;stroke-linejoin:round"
       d="m 42.094754,67.822698 v -3.836739 h 19.854573 v 3.836739 z" />
    <path
       id="rect847-8-35"
       style="fill:#da251d;fill-opacity:1;stroke-width:0.332602;stroke-linejoin:round"
       d="m 16.075881,18.028973 3.625463,-1.255622 15.225233,43.961138 -3.625462,1.255623 z" />
    <path
       id="rect847-8-35-0"
       style="fill:#da251d;fill-opacity:1;stroke-width:0.332602;stroke-linejoin:round"
       d="M 61.447394,18.02896 57.821931,16.773351 42.596697,60.734489 46.22216,61.990112 Z" />
    <path
       id="rect847-8-35-5"
       style="fill:#da251d;fill-opacity:1;stroke-width:0.332602;stroke-linejoin:round"
       d="m 16.075871,113.78172 3.625463,1.25562 15.225233,-43.961152 -3.625462,-1.25561 z" />
    <path
       id="rect847-8-35-0-3"
       style="fill:#da251d;fill-opacity:1;stroke-width:0.332602;stroke-linejoin:round"
       d="m 61.44737,113.78172 -3.625463,1.25562 -15.225231,-43.961152 3.625464,-1.25561 z" />
    <path
       id="path1079"
       style="fill:#da251d;fill-opacity:1;stroke-width:0.332602;stroke-linejoin:round"
       d="m 76.804393,118.91733 a 2.0458535,2.0458535 0 0 1 -2.045851,2.04585 2.0458535,2.0458535 0 0 1 -2.045863,-2.04585 2.0458535,2.0458535 0 0 1 2.045863,-2.04585 2.0458535,2.0458535 0 0 1 2.045851,2.04585 z" />
    <g
       aria-label="dp"
       id="text1083"
       style="font-style:normal;font-weight:normal;font-size:4.13907px;line-height:1.25;font-family:sans-serif;fill:#000000;fill-opacity:1;stroke:none;stroke-width:0.103477"
       transform="matrix(1.2551077,0,0,1.2551077,-125.91301,-145.41286)">
      <path
         d="m 163.7955,207.97316 h -0.37995 v -0.23646 q -0.1637,0.14147 -0.34155,0.22029 -0.17785,0.0788 -0.38602,0.0788 -0.40421,0 -0.64269,-0.31124 -0.23646,-0.31124 -0.23646,-0.86298 0,-0.28698 0.0808,-0.51132 0.0829,-0.22433 0.22232,-0.38197 0.13743,-0.1536 0.31932,-0.23444 0.18391,-0.0808 0.37995,-0.0808 0.17785,0 0.31528,0.0384 0.13743,0.0364 0.28901,0.1152 v -0.97818 h 0.37995 z m -0.37995,-0.55578 v -1.29548 q -0.1536,-0.0687 -0.27486,-0.095 -0.12126,-0.0263 -0.26475,-0.0263 -0.31933,0 -0.49718,0.22232 -0.17785,0.22231 -0.17785,0.63056 0,0.40218 0.13743,0.61237 0.13743,0.20817 0.44059,0.20817 0.16168,0 0.3274,-0.0707 0.16573,-0.0728 0.30922,-0.18593 z"
         style="stroke-width:0.103477"
         id="path1324" />
      <path
         d="m 166.52996,206.81713 q 0,0.27486 -0.0788,0.50324 -0.0788,0.22635 -0.22231,0.38399 -0.13339,0.14956 -0.31529,0.23242 -0.17987,0.0808 -0.38197,0.0808 -0.17583,0 -0.31932,-0.0384 -0.14148,-0.0384 -0.28901,-0.11924 v 0.94584 h -0.37995 v -3.09015 h 0.37995 v 0.23646 q 0.15158,-0.12733 0.33953,-0.21221 0.18998,-0.0869 0.40421,-0.0869 0.40825,0 0.6346,0.30921 0.22838,0.3072 0.22838,0.8549 z m -0.39208,0.0101 q 0,-0.40825 -0.13945,-0.61036 -0.13945,-0.2021 -0.42846,-0.2021 -0.1637,0 -0.32943,0.0707 -0.16572,0.0707 -0.3173,0.18593 v 1.27931 q 0.16168,0.0728 0.27688,0.099 0.11722,0.0263 0.26476,0.0263 0.3173,0 0.49515,-0.21423 0.17785,-0.21423 0.17785,-0.6346 z"
         style="stroke-width:0.103477"
         id="path1326" />
    </g>
    <g
       aria-label="k"
       id="text1083-6"
       style="font-style:normal;font-weight:normal;font-size:4.13907px;line-height:1.25;font-family:sans-serif;fill:#000000;fill-opacity:1;stroke:none;stroke-width:0.103477"
       transform="matrix(1.2551077,0,0,1.2551077,-125.91301,-145.41286)">
      <path
         d="m 121.58565,204.7486 h -0.50122 l -0.90542,-0.98829 -0.24657,0.23444 v 0.75385 h -0.37995 v -3.14473 h 0.37995 v 2.01699 l 1.09742,-1.12975 h 0.47899 l -1.04892,1.04285 z"
         style="stroke-width:0.103477"
         id="path1329" />
    </g>
    <g
       aria-label="l"
       id="text1083-6-9"
       style="font-style:normal;font-weight:normal;font-size:4.13907px;line-height:1.25;font-family:sans-serif;fill:#000000;fill-opacity:1;stroke:none;stroke-width:0.103477"
       transform="matrix(1.2551077,0,0,1.2551077,-125.91301,-145.41286)">
      <path
         d="m 134.45601,204.7486 h -0.37996 v -3.14473 h 0.37996 z"
         style="stroke-width:0.103477"
         id="path1332" />
    </g>
    <g
       aria-label="m"
       id="text1083-6-6"
       style="font-style:normal;font-weight:normal;font-size:4.13907px;line-height:1.25;font-family:sans-serif;fill:#000000;fill-opacity:1;stroke:none;stroke-width:0.103477"
       transform="matrix(1.2551077,0,0,1.2551077,-125.91301,-145.41286)">
      <path
         d="m 143.58029,204.7486 h -0.37995 v -1.28538 q 0,-0.14551 -0.0142,-0.28092 -0.0121,-0.13541 -0.0546,-0.21625 -0.0465,-0.0869 -0.13339,-0.13137 -0.0869,-0.0445 -0.25061,-0.0445 -0.15966,0 -0.31932,0.0808 -0.15966,0.0788 -0.31933,0.2021 0.006,0.0465 0.0101,0.10914 0.004,0.0606 0.004,0.12126 v 1.44504 h -0.37995 v -1.28538 q 0,-0.14956 -0.0142,-0.28294 -0.0121,-0.13541 -0.0546,-0.21625 -0.0465,-0.0869 -0.13338,-0.12935 -0.0869,-0.0445 -0.25061,-0.0445 -0.15562,0 -0.31326,0.0768 -0.15562,0.0768 -0.31124,0.19604 v 1.68554 h -0.37995 v -2.25749 h 0.37995 v 0.2506 q 0.17785,-0.14753 0.35368,-0.23039 0.17785,-0.0829 0.37793,-0.0829 0.2304,0 0.39006,0.097 0.16168,0.097 0.2405,0.2688 0.2304,-0.19402 0.42038,-0.2789 0.18997,-0.0869 0.40622,-0.0869 0.37187,0 0.5477,0.22636 0.17785,0.22433 0.17785,0.62854 z"
         style="stroke-width:0.103477"
         id="path1335" />
    </g>
    <g
       aria-label="h"
       id="text1083-6-8"
       style="font-style:normal;font-weight:normal;font-size:4.13907px;line-height:1.25;font-family:sans-serif;fill:#000000;fill-opacity:1;stroke:none;stroke-width:0.103477"
       transform="matrix(1.2551077,0,0,1.2551077,-125.91301,-145.41286)">
      <path
         d="m 121.8241,136.7635 h -0.37995 v -1.28537 q 0,-0.15562 -0.0182,-0.29103 -0.0182,-0.13743 -0.0667,-0.21423 -0.0505,-0.0849 -0.14551,-0.1253 -0.095,-0.0424 -0.24657,-0.0424 -0.15561,0 -0.32538,0.0768 -0.16977,0.0768 -0.32539,0.19604 v 1.68554 h -0.37995 v -3.14472 h 0.37995 v 1.13784 q 0.17785,-0.14753 0.36783,-0.2304 0.18998,-0.0829 0.39006,-0.0829 0.36581,0 0.5578,0.22029 0.192,0.2203 0.192,0.63461 z"
         style="stroke-width:0.103477"
         id="path1338" />
    </g>
    <g
       aria-label="i"
       id="text1083-6-9-6"
       style="font-style:normal;font-weight:normal;font-size:4.13907px;line-height:1.25;font-family:sans-serif;fill:#000000;fill-opacity:1;stroke:none;stroke-width:0.103477"
       transform="matrix(1.2551077,0,0,1.2551077,-125.91301,-145.41286)">
      <path
         d="m 134.88041,134.12808 h -0.42846 v -0.3941 h 0.42846 z m -0.0243,2.63542 h -0.37995 v -2.25749 h 0.37995 z"
         style="stroke-width:0.103477"
         id="path1341" />
    </g>
    <g
       aria-label="j"
       id="text1083-6-6-1"
       style="font-style:normal;font-weight:normal;font-size:4.13907px;line-height:1.25;font-family:sans-serif;fill:#000000;fill-opacity:1;stroke:none;stroke-width:0.103477"
       transform="matrix(1.2551077,0,0,1.2551077,-125.91301,-145.41286)">
      <path
         d="m 143.09038,134.12808 h -0.42846 v -0.3941 h 0.42846 z m -0.0243,2.68999 q 0,0.39612 -0.20211,0.59823 -0.2021,0.2021 -0.54163,0.2021 -0.0809,0 -0.21423,-0.0162 -0.13137,-0.0162 -0.2203,-0.0404 v -0.36176 h 0.0202 q 0.0566,0.0222 0.15158,0.0505 0.097,0.0283 0.18796,0.0283 0.14551,0 0.23444,-0.0404 0.0889,-0.0404 0.13339,-0.12127 0.0445,-0.0808 0.0566,-0.19604 0.0142,-0.11317 0.0142,-0.27688 v -1.81892 h -0.4709 V 134.506 h 0.85086 z"
         style="stroke-width:0.103477"
         id="path1344" />
    </g>
    <g
       aria-label="g1"
       id="text1083-6-6-1-2"
       style="font-style:normal;font-weight:normal;font-size:4.13907px;line-height:1.25;font-family:sans-serif;fill:#000000;fill-opacity:1;stroke:none;stroke-width:0.103477"
       transform="matrix(1.2551077,0,0,1.2551077,-125.91301,-145.41286)">
      <path
         d="m 117.07849,164.84358 q 0,0.57397 -0.26072,0.84277 -0.26071,0.2688 -0.80235,0.2688 -0.17987,0 -0.35165,-0.0263 -0.16977,-0.0242 -0.3355,-0.0707 v -0.38804 h 0.0202 q 0.093,0.0364 0.29508,0.0889 0.2021,0.0546 0.4042,0.0546 0.19402,0 0.32135,-0.0465 0.12732,-0.0465 0.19806,-0.12935 0.0707,-0.0788 0.10105,-0.18997 0.0303,-0.11116 0.0303,-0.24859 v -0.20615 q -0.17178,0.13743 -0.32942,0.20615 -0.15562,0.0667 -0.39815,0.0667 -0.4042,0 -0.64269,-0.29103 -0.23646,-0.29305 -0.23646,-0.82458 0,-0.29102 0.0808,-0.50121 0.0829,-0.21221 0.22433,-0.36581 0.13137,-0.14349 0.31932,-0.22231 0.18796,-0.0808 0.37389,-0.0808 0.19604,0 0.32741,0.0404 0.13339,0.0384 0.28092,0.11924 l 0.0243,-0.097 h 0.3557 z m -0.37996,-0.36379 v -1.2308 q -0.15157,-0.0687 -0.28294,-0.097 -0.12935,-0.0303 -0.25869,-0.0303 -0.31326,0 -0.49313,0.21019 -0.17988,0.21019 -0.17988,0.61035 0,0.37995 0.13339,0.57599 0.13339,0.19604 0.44261,0.19604 0.16572,0 0.33145,-0.0626 0.16774,-0.0647 0.30719,-0.17179 z"
         style="stroke-width:0.103477"
         id="path1347" />
      <path
         d="m 119.64317,165.10025 h -1.62895 v -0.3072 h 0.62652 v -2.01698 h -0.62652 v -0.27486 q 0.12733,0 0.27284,-0.0202 0.14552,-0.0222 0.2203,-0.0626 0.093,-0.0505 0.14551,-0.12732 0.0546,-0.0788 0.0627,-0.21019 h 0.31326 v 2.71222 h 0.61439 z"
         style="stroke-width:0.103477"
         id="path1349" />
    </g>
    <g
       aria-label="g2"
       id="text1083-6-6-1-2-2"
       style="font-style:normal;font-weight:normal;font-size:4.13907px;line-height:1.25;font-family:sans-serif;fill:#000000;fill-opacity:1;stroke:none;stroke-width:0.103477"
       transform="matrix(1.2551077,0,0,1.2551077,-125.91301,-145.41286)">
      <path
         d="m 145.37357,164.84358 q 0,0.57397 -0.26071,0.84277 -0.26072,0.2688 -0.80235,0.2688 -0.17987,0 -0.35166,-0.0263 -0.16977,-0.0242 -0.33549,-0.0707 v -0.38804 h 0.0202 q 0.093,0.0364 0.29507,0.0889 0.2021,0.0546 0.4042,0.0546 0.19402,0 0.32135,-0.0465 0.12732,-0.0465 0.19806,-0.12935 0.0707,-0.0788 0.10105,-0.18997 0.0303,-0.11116 0.0303,-0.24859 v -0.20615 q -0.17179,0.13743 -0.32943,0.20615 -0.15562,0.0667 -0.39815,0.0667 -0.4042,0 -0.64268,-0.29103 -0.23646,-0.29305 -0.23646,-0.82458 0,-0.29102 0.0808,-0.50121 0.0829,-0.21221 0.22433,-0.36581 0.13137,-0.14349 0.31932,-0.22231 0.18796,-0.0808 0.3739,-0.0808 0.19604,0 0.3274,0.0404 0.13339,0.0384 0.28093,0.11924 l 0.0242,-0.097 h 0.3557 z m -0.37995,-0.36379 v -1.2308 q -0.15158,-0.0687 -0.28295,-0.097 -0.12934,-0.0303 -0.25869,-0.0303 -0.31326,0 -0.49313,0.21019 -0.17987,0.21019 -0.17987,0.61035 0,0.37995 0.13338,0.57599 0.13339,0.19604 0.44261,0.19604 0.16572,0 0.33145,-0.0626 0.16774,-0.0647 0.3072,-0.17179 z"
         style="stroke-width:0.103477"
         id="path1352" />
      <path
         d="m 148.11004,165.10025 h -2.03719 v -0.4224 q 0.2122,-0.18189 0.42441,-0.36378 0.21423,-0.18189 0.39814,-0.36176 0.38804,-0.37592 0.53154,-0.59621 0.14349,-0.22231 0.14349,-0.47898 0,-0.23444 -0.15562,-0.36581 -0.1536,-0.13339 -0.43048,-0.13339 -0.18391,0 -0.39814,0.0647 -0.21423,0.0647 -0.41836,0.19806 h -0.0202 v -0.42442 q 0.1435,-0.0707 0.38198,-0.12935 0.2405,-0.0586 0.46484,-0.0586 0.46281,0 0.72554,0.22434 0.26274,0.22231 0.26274,0.60429 0,0.17178 -0.0445,0.32134 -0.0425,0.14754 -0.12733,0.28092 -0.0788,0.12531 -0.18593,0.24657 -0.1051,0.12126 -0.25667,0.2688 -0.21625,0.2122 -0.44665,0.41229 -0.2304,0.19806 -0.43048,0.36782 h 1.61884 z"
         style="stroke-width:0.103477"
         id="path1354" />
    </g>
    <g
       aria-label="a"
       id="text1235"
       style="font-style:normal;font-weight:normal;font-size:8.81276px;line-height:1.25;font-family:sans-serif;fill:#000000;fill-opacity:1;stroke:none;stroke-width:0.220319"
       transform="matrix(1.2551077,0,0,1.2551077,-125.91301,-145.41286)">
      <path
         d="m 133.57861,122.7825 h -0.80468 v -0.51207 q -0.10758,0.0731 -0.29261,0.20655 -0.18073,0.12909 -0.35286,0.20655 -0.20224,0.099 -0.46473,0.16352 -0.26249,0.0688 -0.61535,0.0688 -0.64977,0 -1.10159,-0.43031 -0.45183,-0.43031 -0.45183,-1.0973 0,-0.54649 0.23237,-0.88213 0.23667,-0.33995 0.67128,-0.53359 0.43892,-0.19364 1.05427,-0.26249 0.61534,-0.0689 1.32105,-0.10327 v -0.12479 q 0,-0.2754 -0.099,-0.45613 -0.0947,-0.18073 -0.2754,-0.284 -0.17213,-0.099 -0.4131,-0.1334 -0.24097,-0.0344 -0.50346,-0.0344 -0.31843,0 -0.71002,0.0861 -0.39158,0.0818 -0.80898,0.24097 h -0.043 v -0.82189 q 0.23667,-0.0645 0.68419,-0.14201 0.44753,-0.0774 0.88214,-0.0774 0.50777,0 0.88214,0.0861 0.37867,0.0818 0.65407,0.28401 0.27109,0.19794 0.4131,0.51207 0.142,0.31412 0.142,0.77886 z m -0.80468,-1.18335 v -1.33827 q -0.37007,0.0215 -0.87353,0.0645 -0.49916,0.043 -0.79177,0.12479 -0.34855,0.099 -0.56371,0.30982 -0.21515,0.20655 -0.21515,0.57231 0,0.4131 0.24958,0.62395 0.24958,0.20655 0.76164,0.20655 0.42601,0 0.77887,-0.16351 0.35285,-0.16783 0.65407,-0.40019 z"
         style="stroke-width:0.220319"
         id="path1357" />
    </g>
    <g
       aria-label="f"
       id="text1235-8"
       style="font-style:normal;font-weight:normal;font-size:8.81276px;line-height:1.25;font-family:sans-serif;fill:#000000;fill-opacity:1;stroke:none;stroke-width:0.220319"
       transform="matrix(1.2551077,0,0,1.2551077,-125.91301,-145.41286)">
      <path
         d="m 106.83141,143.87185 h -0.043 q -0.13339,-0.0387 -0.34855,-0.0775 -0.21515,-0.043 -0.37867,-0.043 -0.52068,0 -0.75735,0.23237 -0.23237,0.22807 -0.23237,0.8305 v 0.16352 h 1.45876 v 0.67989 h -1.43294 v 4.12668 h -0.80898 v -4.12668 h -0.5465 v -0.67989 h 0.5465 v -0.15922 q 0,-0.85631 0.42601,-1.31244 0.426,-0.46044 1.23068,-0.46044 0.2711,0 0.48626,0.0258 0.21945,0.0258 0.40018,0.0602 z"
         style="stroke-width:0.220319"
         id="path1360" />
    </g>
    <g
       aria-label="b"
       id="text1235-1"
       style="font-style:normal;font-weight:normal;font-size:8.81276px;line-height:1.25;font-family:sans-serif;fill:#000000;fill-opacity:1;stroke:none;stroke-width:0.220319"
       transform="matrix(1.2551077,0,0,1.2551077,-125.91301,-145.41286)">
      <path
         d="m 160.20446,147.21106 q 0,0.60244 -0.17212,1.08439 -0.16782,0.48194 -0.45613,0.80898 -0.30552,0.33995 -0.67128,0.51207 -0.36577,0.16782 -0.80468,0.16782 -0.4088,0 -0.71432,-0.099 -0.30552,-0.0947 -0.60244,-0.25819 l -0.0516,0.22376 h -0.75735 v -6.69563 h 0.80898 v 2.39253 q 0.33995,-0.2797 0.72293,-0.45613 0.38297,-0.18073 0.86062,-0.18073 0.85201,0 1.34257,0.65407 0.49485,0.65407 0.49485,1.84603 z m -0.8348,0.0215 q 0,-0.86062 -0.284,-1.30384 -0.28401,-0.44752 -0.91657,-0.44752 -0.35285,0 -0.71431,0.15491 -0.36146,0.15061 -0.67129,0.39158 v 2.75399 q 0.34425,0.15491 0.58953,0.21515 0.24958,0.0602 0.56371,0.0602 0.67128,0 1.04995,-0.43892 0.38298,-0.44322 0.38298,-1.3856 z"
         style="stroke-width:0.220319"
         id="path1363" />
    </g>
    <g
       aria-label="c"
       id="text1235-2"
       style="font-style:normal;font-weight:normal;font-size:8.81276px;line-height:1.25;font-family:sans-serif;fill:#000000;fill-opacity:1;stroke:none;stroke-width:0.220319"
       transform="matrix(1.2551077,0,0,1.2551077,-125.91301,-145.41286)">
      <path
         d="m 160.03879,190.82641 q -0.40449,0.19364 -0.77025,0.30121 -0.36146,0.10758 -0.77026,0.10758 -0.52067,0 -0.95529,-0.15061 -0.43461,-0.15491 -0.74443,-0.46473 -0.31413,-0.30983 -0.48626,-0.78317 -0.17212,-0.47334 -0.17212,-1.1059 0,-1.17905 0.64547,-1.85033 0.64977,-0.67129 1.71263,-0.67129 0.4131,0 0.80899,0.11619 0.40019,0.11618 0.73152,0.284 v 0.89935 h -0.043 q -0.37006,-0.28831 -0.76595,-0.44322 -0.39158,-0.15491 -0.76595,-0.15491 -0.6885,0 -1.08869,0.46474 -0.39588,0.46043 -0.39588,1.35547 0,0.86923 0.38728,1.33827 0.39158,0.46474 1.09729,0.46474 0.24527,0 0.49916,-0.0646 0.25388,-0.0645 0.45613,-0.16782 0.17642,-0.0904 0.33134,-0.18934 0.15491,-0.10327 0.24527,-0.17643 h 0.043 z"
         style="stroke-width:0.220319"
         id="path1366" />
    </g>
    <g
       aria-label="e"
       id="text1235-3"
       style="font-style:normal;font-weight:normal;font-size:8.81276px;line-height:1.25;font-family:sans-serif;fill:#000000;fill-opacity:1;stroke:none;stroke-width:0.220319"
       transform="matrix(1.2551077,0,0,1.2551077,-125.91301,-145.41286)">
      <path
         d="m 107.46827,188.80395 h -3.54146 q 0,0.44322 0.1334,0.77456 0.13339,0.32703 0.36576,0.53788 0.22376,0.20655 0.52928,0.30983 0.30983,0.10327 0.67989,0.10327 0.49056,0 0.98541,-0.19364 0.49917,-0.19794 0.71002,-0.38728 h 0.043 v 0.88214 q -0.4088,0.17212 -0.8348,0.28831 -0.42601,0.11618 -0.89505,0.11618 -1.19626,0 -1.86755,-0.64546 -0.67128,-0.64977 -0.67128,-1.84173 0,-1.17905 0.64116,-1.87185 0.64547,-0.6928 1.69542,-0.6928 0.97251,0 1.49748,0.56801 0.52929,0.56801 0.52929,1.61366 z m -0.78747,-0.61965 q -0.004,-0.63686 -0.32273,-0.98541 -0.31413,-0.34855 -0.9596,-0.34855 -0.64977,0 -1.03705,0.38297 -0.38297,0.38298 -0.43461,0.95099 z"
         style="stroke-width:0.220319"
         id="path1369" />
    </g>
    <g
       aria-label="d"
       id="text1235-6"
       style="font-style:normal;font-weight:normal;font-size:8.81276px;line-height:1.25;font-family:sans-serif;fill:#000000;fill-opacity:1;stroke:none;stroke-width:0.220319"
       transform="matrix(1.2551077,0,0,1.2551077,-125.91301,-145.41286)">
      <path
         d="m 133.4681,219.35072 h -0.80899 v -0.50346 q -0.34855,0.30122 -0.72722,0.46904 -0.37868,0.16782 -0.8219,0.16782 -0.86062,0 -1.36838,-0.66268 -0.50347,-0.66268 -0.50347,-1.83742 0,-0.61105 0.17213,-1.08869 0.17642,-0.47765 0.47334,-0.81329 0.29261,-0.32703 0.67989,-0.49916 0.39158,-0.17212 0.80898,-0.17212 0.37868,0 0.67129,0.0818 0.29261,0.0774 0.61534,0.24527 v -2.0827 h 0.80899 z m -0.80899,-1.18335 v -2.75829 q -0.32703,-0.14631 -0.58522,-0.20225 -0.25819,-0.0559 -0.56371,-0.0559 -0.67989,0 -1.05856,0.47334 -0.37868,0.47335 -0.37868,1.34257 0,0.85632 0.29262,1.30384 0.29261,0.44322 0.93807,0.44322 0.34425,0 0.69711,-0.15061 0.35285,-0.15491 0.65837,-0.39588 z"
         style="stroke-width:0.220319"
         id="path1372" />
    </g>
  </g>
</svg>
